<svg id="svg" version="1.1" width="400" height="94.03508771929825" viewBox="0 0 400 94.03508771929825" xmlns="http://www.w3.org/2000/svg" xmlns:xlink="http://www.w3.org/1999/xlink"><g id="svgg"><path id="path0" d="M250.000 30.250 L 250.000 60.500 325.000 60.500 L 400.000 60.500 400.000 30.250 L 400.000 0.000 325.000 0.000 L 250.000 0.000 250.000 30.250 M288.070 12.101 C 288.558 12.289,288.454 17.428,287.958 17.563 C 287.752 17.620,284.619 17.617,280.996 17.557 C 276.011 17.474,274.318 17.496,274.035 17.648 L 273.661 17.848 273.706 22.382 L 273.750 26.917 281.000 27.000 L 288.250 27.083 288.296 29.792 L 288.342 32.500 281.286 32.500 C 275.903 32.500,274.164 32.549,273.949 32.708 C 273.692 32.899,273.664 33.676,273.625 41.667 L 273.583 50.417 270.917 50.417 L 268.250 50.417 268.208 31.344 C 268.174 16.195,268.208 12.243,268.374 12.138 C 268.616 11.984,287.673 11.949,288.070 12.101 M307.751 12.375 C 307.801 12.581,307.821 21.225,307.796 31.583 L 307.750 50.417 305.083 50.417 L 302.417 50.417 302.374 31.435 C 302.343 17.546,302.382 12.392,302.520 12.226 C 302.892 11.777,307.639 11.912,307.751 12.375 M334.167 12.168 C 339.144 12.466,341.188 13.180,343.403 15.397 C 347.268 19.267,347.339 26.260,343.551 30.078 C 341.818 31.825,338.470 33.326,336.289 33.336 C 335.580 33.339,335.000 33.500,335.000 33.695 C 335.000 33.842,337.000 36.523,338.335 38.167 C 338.670 38.579,339.318 39.404,339.776 40.000 C 340.233 40.596,342.196 43.135,344.136 45.642 C 346.077 48.150,347.623 50.268,347.573 50.351 C 347.522 50.433,345.996 50.500,344.182 50.500 L 340.885 50.500 338.817 47.849 C 337.680 46.391,334.737 42.603,332.276 39.432 C 329.174 35.434,327.705 33.667,327.485 33.667 C 327.176 33.667,327.167 33.909,327.167 41.820 C 327.167 46.304,327.121 50.091,327.066 50.236 C 326.961 50.508,322.410 50.647,321.764 50.399 C 321.416 50.265,321.353 12.547,321.700 12.200 C 321.952 11.948,330.140 11.927,334.167 12.168 M383.133 12.200 C 383.304 12.370,383.453 17.392,383.292 17.538 C 383.269 17.559,379.387 17.615,374.667 17.663 L 366.083 17.750 366.083 22.333 L 366.083 26.917 370.583 26.960 C 375.991 27.011,375.501 26.725,375.497 29.824 C 375.494 32.866,376.004 32.568,370.631 32.667 L 366.083 32.750 366.040 38.792 C 366.016 42.115,366.016 44.850,366.040 44.871 C 366.064 44.892,369.908 44.948,374.583 44.996 L 383.083 45.083 383.083 47.750 L 383.083 50.417 371.844 50.460 C 362.963 50.493,360.577 50.458,360.471 50.293 C 360.240 49.928,360.301 12.433,360.533 12.200 C 360.823 11.911,382.844 11.911,383.133 12.200 M327.167 22.818 L 327.167 28.000 331.136 28.000 C 335.274 28.000,336.587 27.863,337.772 27.306 C 340.936 25.818,341.540 21.344,338.890 19.012 C 337.622 17.895,337.021 17.784,331.792 17.705 L 327.167 17.636 327.167 22.818 M114.940 33.208 C 114.488 33.933,111.000 40.307,111.000 40.409 C 111.000 40.510,114.559 46.208,116.392 49.042 L 117.335 50.500 120.918 50.500 C 123.380 50.500,124.500 50.444,124.500 50.319 C 124.500 50.220,124.190 49.564,123.811 48.861 C 123.431 48.158,122.878 47.133,122.582 46.583 C 122.285 46.033,121.629 44.796,121.123 43.833 C 116.360 34.761,115.329 32.833,115.239 32.833 C 115.204 32.833,115.069 33.002,114.940 33.208 M108.450 44.875 C 107.963 45.816,107.347 46.927,106.334 48.698 C 105.197 50.682,104.904 50.500,109.229 50.500 C 111.292 50.500,113.018 50.439,113.064 50.365 C 113.138 50.245,112.135 48.589,109.892 45.125 C 109.017 43.774,109.020 43.774,108.450 44.875 " stroke="none" fill="#ed3f28" fill-rule="evenodd"></path><path id="path1" d="M169.750 11.859 C 160.564 13.233,154.158 19.208,152.523 27.927 C 151.815 31.701,152.760 38.009,154.492 41.064 C 154.654 41.349,154.966 41.899,155.185 42.284 C 161.307 53.047,178.956 54.752,187.958 45.451 C 189.439 43.921,189.448 44.088,187.811 42.836 L 186.455 41.800 185.852 42.442 C 182.753 45.741,179.095 47.531,174.550 47.973 C 161.402 49.252,152.141 36.344,157.708 24.500 C 162.518 14.268,177.234 12.089,185.162 20.435 C 186.556 21.902,186.378 21.878,187.818 20.792 C 189.527 19.502,189.533 19.553,187.395 17.422 C 185.315 15.348,182.542 13.667,179.750 12.787 C 178.487 12.389,177.963 12.271,175.573 11.846 C 174.395 11.637,171.189 11.644,169.750 11.859 M268.374 12.138 C 268.208 12.243,268.174 16.195,268.208 31.344 L 268.250 50.417 270.917 50.417 L 273.583 50.417 273.625 41.667 C 273.664 33.676,273.692 32.899,273.949 32.708 C 274.164 32.549,275.903 32.500,281.286 32.500 L 288.342 32.500 288.296 29.792 L 288.250 27.083 281.000 27.000 L 273.750 26.917 273.706 22.382 L 273.661 17.848 274.035 17.648 C 274.318 17.496,276.011 17.474,280.996 17.557 C 284.619 17.617,287.752 17.620,287.958 17.563 C 288.454 17.428,288.558 12.289,288.070 12.101 C 287.673 11.949,268.616 11.984,268.374 12.138 M302.520 12.226 C 302.382 12.392,302.343 17.546,302.374 31.435 L 302.417 50.417 305.083 50.417 L 307.750 50.417 307.796 31.583 C 307.821 21.225,307.801 12.581,307.751 12.375 C 307.639 11.912,302.892 11.777,302.520 12.226 M321.700 12.200 C 321.353 12.547,321.416 50.265,321.764 50.399 C 322.410 50.647,326.961 50.508,327.066 50.236 C 327.121 50.091,327.167 46.304,327.167 41.820 C 327.167 33.909,327.176 33.667,327.485 33.667 C 327.705 33.667,329.174 35.434,332.276 39.432 C 334.737 42.603,337.680 46.391,338.817 47.849 L 340.885 50.500 344.182 50.500 C 345.996 50.500,347.522 50.433,347.573 50.351 C 347.623 50.268,346.077 48.150,344.136 45.642 C 342.196 43.135,340.233 40.596,339.776 40.000 C 339.318 39.404,338.670 38.579,338.335 38.167 C 337.000 36.523,335.000 33.842,335.000 33.695 C 335.000 33.500,335.580 33.339,336.289 33.336 C 340.091 33.320,344.619 30.091,345.688 26.635 C 347.797 19.814,344.467 13.826,337.833 12.514 C 335.388 12.030,322.128 11.772,321.700 12.200 M360.533 12.200 C 360.301 12.433,360.240 49.928,360.471 50.293 C 360.577 50.458,362.963 50.493,371.844 50.460 L 383.083 50.417 383.083 47.750 L 383.083 45.083 374.583 44.996 C 369.908 44.948,366.064 44.892,366.040 44.871 C 366.016 44.850,366.016 42.115,366.040 38.792 L 366.083 32.750 370.631 32.667 C 376.004 32.568,375.494 32.866,375.497 29.824 C 375.501 26.725,375.991 27.011,370.583 26.960 L 366.083 26.917 366.083 22.333 L 366.083 17.750 374.667 17.663 C 379.387 17.615,383.269 17.559,383.292 17.538 C 383.453 17.392,383.304 12.370,383.133 12.200 C 382.844 11.911,360.823 11.911,360.533 12.200 M16.000 31.568 L 16.000 50.500 21.958 50.500 C 30.676 50.500,32.432 50.055,35.434 47.086 C 40.578 41.998,39.264 33.968,32.776 30.838 C 30.722 29.847,30.744 29.923,32.167 28.775 C 37.133 24.767,36.311 16.644,30.667 13.954 C 28.504 12.923,27.587 12.799,21.458 12.713 L 16.000 12.636 16.000 31.568 M60.934 12.930 C 60.724 13.478,60.821 50.088,61.033 50.300 C 61.184 50.451,63.449 50.500,70.206 50.500 L 79.178 50.500 79.131 48.792 L 79.083 47.083 71.925 47.040 C 66.453 47.007,64.737 46.948,64.636 46.790 C 64.564 46.676,64.504 38.952,64.503 29.625 L 64.500 12.667 62.768 12.667 C 61.342 12.667,61.018 12.713,60.934 12.930 M114.708 12.777 C 114.594 12.823,114.500 12.923,114.500 12.998 C 114.500 13.073,113.986 14.211,113.359 15.526 C 112.731 16.841,111.971 18.442,111.671 19.083 C 111.016 20.483,110.018 22.583,108.476 25.803 C 107.848 27.115,107.333 28.214,107.333 28.245 C 107.333 28.298,106.476 30.104,103.981 35.310 C 103.350 36.626,102.833 37.725,102.833 37.751 C 102.833 37.777,102.158 39.202,101.333 40.917 C 100.508 42.632,99.833 44.057,99.833 44.085 C 99.833 44.112,99.196 45.459,98.417 47.078 C 96.624 50.804,96.581 50.500,98.897 50.500 C 101.094 50.500,100.832 50.694,101.956 48.242 C 102.337 47.412,103.092 45.799,103.635 44.658 C 104.178 43.517,104.812 42.171,105.043 41.667 C 105.274 41.162,106.184 39.270,107.065 37.460 C 107.946 35.651,108.667 34.141,108.667 34.103 C 108.667 34.066,109.220 32.884,109.896 31.476 C 111.235 28.687,112.240 26.565,113.081 24.750 C 114.550 21.580,114.862 21.000,115.101 21.000 C 115.326 21.000,116.335 22.939,117.833 26.250 C 118.040 26.708,118.659 28.021,119.209 29.167 C 120.149 31.127,120.626 32.147,121.623 34.333 C 121.853 34.837,122.360 35.925,122.748 36.750 C 123.137 37.575,123.624 38.625,123.831 39.083 C 124.038 39.542,124.749 41.042,125.410 42.417 C 126.071 43.792,126.979 45.704,127.427 46.667 C 127.875 47.629,128.476 48.867,128.763 49.417 L 129.285 50.417 131.143 50.464 C 133.335 50.519,133.267 50.628,132.319 48.565 C 131.635 47.079,131.336 46.437,129.956 43.500 C 129.547 42.629,129.042 41.542,128.835 41.083 C 128.628 40.625,127.980 39.249,127.396 38.025 C 126.811 36.802,126.333 35.780,126.333 35.754 C 126.333 35.729,125.818 34.627,125.188 33.306 C 124.557 31.984,123.853 30.494,123.622 29.993 C 123.392 29.493,122.888 28.408,122.503 27.583 C 122.119 26.758,121.653 25.746,121.469 25.333 C 121.285 24.921,120.849 23.983,120.500 23.250 C 120.151 22.517,119.624 21.392,119.329 20.750 C 118.580 19.121,117.793 17.446,116.568 14.875 C 115.515 12.666,115.375 12.508,114.708 12.777 M211.912 12.869 C 211.868 12.987,211.850 21.483,211.874 31.750 L 211.917 50.417 213.667 50.417 L 215.417 50.417 215.460 41.792 C 215.496 34.577,215.541 33.167,215.734 33.167 C 215.861 33.167,217.004 34.272,218.274 35.623 C 219.544 36.974,220.771 38.271,221.000 38.505 C 221.229 38.738,221.979 39.527,222.667 40.256 C 223.355 40.986,225.052 42.783,226.438 44.250 C 227.824 45.717,229.199 47.179,229.492 47.500 C 229.785 47.821,230.557 48.627,231.207 49.292 L 232.390 50.500 234.584 50.500 C 237.266 50.500,237.238 50.527,235.959 49.177 C 235.386 48.573,234.204 47.326,233.333 46.407 C 231.962 44.960,228.999 41.804,227.184 39.857 C 226.873 39.523,225.523 38.091,224.184 36.675 C 221.953 34.316,221.264 33.580,218.699 30.817 C 217.524 29.552,217.424 29.738,221.125 26.314 C 222.935 24.639,225.006 22.702,225.727 22.009 C 226.447 21.317,227.125 20.675,227.233 20.583 C 227.469 20.383,228.810 19.140,231.834 16.316 C 233.071 15.161,234.402 13.934,234.792 13.589 C 235.181 13.244,235.500 12.895,235.500 12.814 C 235.500 12.578,230.964 12.642,230.648 12.882 C 230.370 13.094,226.780 16.450,224.003 19.094 C 223.131 19.925,221.929 21.050,221.334 21.594 C 220.738 22.138,219.651 23.154,218.917 23.851 C 215.943 26.676,215.724 26.848,215.581 26.466 C 215.537 26.347,215.482 23.212,215.459 19.500 L 215.417 12.750 213.705 12.702 C 212.429 12.667,211.973 12.709,211.912 12.869 M26.298 16.402 C 30.971 17.103,32.954 20.698,30.944 24.824 C 29.663 27.456,26.868 28.584,21.917 28.470 L 19.583 28.417 19.540 22.520 C 19.508 18.306,19.550 16.558,19.685 16.395 C 19.943 16.084,24.210 16.088,26.298 16.402 M337.300 18.082 C 340.771 19.289,341.689 23.905,338.975 26.499 C 337.684 27.732,336.286 28.000,331.136 28.000 L 327.167 28.000 327.167 22.818 L 327.167 17.636 331.792 17.705 C 335.732 17.765,336.547 17.821,337.300 18.082 M26.667 32.410 C 30.195 32.838,32.114 33.845,33.664 36.083 C 36.181 39.719,34.231 44.910,29.820 46.319 C 27.649 47.012,19.830 47.332,19.601 46.736 C 19.395 46.198,19.488 32.578,19.700 32.367 C 19.979 32.088,24.230 32.114,26.667 32.410 " stroke="none" fill="#faf9f8" fill-rule="evenodd"></path><path id="path2" d="M0.000 30.250 L 0.000 60.500 124.427 60.500 C 201.590 60.500,248.816 60.441,248.757 60.344 C 248.704 60.258,248.906 60.165,249.205 60.136 L 249.750 60.083 249.796 30.417 C 249.821 14.100,249.800 0.581,249.751 0.375 L 249.660 0.000 124.830 0.000 L 0.000 0.000 0.000 30.250 M176.542 11.673 C 179.517 12.275,180.594 12.619,182.539 13.588 C 183.784 14.209,184.580 14.690,185.828 15.576 C 186.782 16.255,189.514 19.235,189.468 19.549 C 189.412 19.933,186.925 21.981,186.500 21.993 C 186.362 21.997,185.631 21.372,184.874 20.605 C 175.932 11.538,160.446 15.254,156.955 27.305 C 156.444 29.067,156.410 34.339,156.898 35.917 C 158.382 40.704,161.315 44.185,165.531 46.161 C 166.842 46.775,167.290 46.924,169.167 47.370 C 174.711 48.685,181.966 46.439,185.622 42.275 C 186.264 41.544,186.644 41.514,187.369 42.136 C 187.670 42.394,188.273 42.857,188.708 43.164 C 189.779 43.920,189.732 44.128,188.125 45.737 C 186.073 47.790,184.211 49.013,181.083 50.361 C 177.779 51.786,170.888 52.164,166.917 51.138 C 164.979 50.638,161.785 49.303,160.917 48.630 C 160.825 48.559,160.295 48.167,159.739 47.759 C 153.087 42.879,150.276 33.350,152.984 24.855 C 155.896 15.720,166.691 9.680,176.542 11.673 M26.504 12.507 C 30.730 13.026,33.397 14.708,34.819 17.750 C 35.034 18.208,35.293 18.763,35.396 18.984 C 35.784 19.813,35.635 24.123,35.179 25.250 C 34.504 26.920,33.564 28.176,32.292 29.113 C 31.541 29.665,31.303 30.000,31.662 30.000 C 32.009 30.000,33.799 30.925,34.771 31.605 C 36.095 32.533,38.000 34.872,38.000 35.570 C 38.000 35.704,38.066 35.855,38.147 35.905 C 38.809 36.314,39.004 41.285,38.422 42.917 C 36.881 47.239,33.713 49.822,29.000 50.599 C 27.117 50.909,16.171 50.938,15.867 50.633 C 15.648 50.415,15.561 12.662,15.778 12.444 C 15.957 12.265,24.961 12.317,26.504 12.507 M64.833 29.500 L 64.917 46.583 71.985 46.627 C 76.865 46.657,79.123 46.728,79.277 46.856 C 79.573 47.101,79.593 50.341,79.300 50.633 C 79.088 50.845,61.472 50.940,60.930 50.732 C 60.652 50.625,60.506 12.716,60.783 12.439 C 60.847 12.376,61.765 12.344,62.824 12.370 L 64.750 12.417 64.833 29.500 M116.083 13.090 C 116.267 13.461,116.766 14.511,117.193 15.424 C 119.030 19.354,120.414 22.324,120.879 23.333 C 121.154 23.929,121.781 25.270,122.273 26.312 C 122.764 27.355,123.167 28.227,123.167 28.250 C 123.167 28.273,123.680 29.370,124.307 30.688 C 124.935 32.005,125.585 33.383,125.751 33.750 C 126.033 34.370,126.582 35.547,128.044 38.667 C 128.367 39.354,128.819 40.329,129.049 40.833 C 129.279 41.337,129.840 42.537,130.295 43.500 C 130.750 44.462,131.312 45.663,131.544 46.167 C 131.776 46.671,132.314 47.823,132.739 48.726 C 133.726 50.827,133.721 50.833,131.327 50.833 C 129.065 50.833,129.096 50.848,128.465 49.522 C 128.176 48.914,127.362 47.217,126.657 45.750 C 125.261 42.849,124.279 40.778,123.377 38.833 C 123.058 38.146,122.467 36.887,122.065 36.037 C 121.663 35.187,121.333 34.453,121.333 34.408 C 121.333 34.362,120.837 33.296,120.230 32.037 C 119.623 30.779,118.938 29.340,118.709 28.840 C 118.479 28.339,117.790 26.877,117.177 25.590 C 116.564 24.303,115.885 22.856,115.668 22.375 C 115.329 21.623,114.833 21.190,114.833 21.647 C 114.833 21.784,113.787 24.050,112.092 27.583 C 111.014 29.830,109.860 32.264,109.208 33.667 C 108.889 34.354,108.251 35.704,107.791 36.667 C 105.841 40.746,104.927 42.666,104.299 44.000 C 103.932 44.779,103.310 46.092,102.917 46.917 C 102.523 47.742,101.974 48.913,101.696 49.519 C 101.089 50.846,101.116 50.833,98.757 50.833 C 96.500 50.833,96.281 50.708,96.803 49.715 C 97.144 49.067,98.238 46.780,99.338 44.417 C 99.679 43.683,100.334 42.296,100.794 41.333 C 101.255 40.371,101.892 39.021,102.212 38.333 C 102.532 37.646,103.204 36.221,103.706 35.167 C 104.208 34.112,104.902 32.650,105.248 31.917 C 105.595 31.183,106.251 29.796,106.706 28.833 C 107.161 27.871,107.760 26.596,108.036 26.000 C 108.313 25.404,108.971 24.017,109.499 22.917 C 110.871 20.058,113.146 15.266,114.088 13.250 C 114.651 12.044,115.531 11.974,116.083 13.090 M215.644 12.556 C 215.772 12.710,215.843 14.879,215.873 19.508 L 215.917 26.237 217.417 24.838 C 218.242 24.069,220.042 22.380,221.417 21.086 C 227.682 15.187,228.751 14.190,229.771 13.287 L 230.859 12.325 233.374 12.371 C 235.027 12.401,235.910 12.480,235.951 12.601 C 236.005 12.765,234.851 13.966,233.167 15.497 C 232.274 16.309,228.606 19.736,226.832 21.416 C 225.038 23.115,221.735 26.188,220.267 27.523 C 219.727 28.015,218.993 28.695,218.635 29.036 L 217.985 29.655 219.283 31.036 C 219.996 31.795,221.223 33.092,222.010 33.917 C 223.598 35.584,225.584 37.695,227.091 39.320 C 227.637 39.909,228.767 41.109,229.602 41.987 C 230.437 42.865,231.637 44.141,232.269 44.822 C 232.900 45.503,234.101 46.778,234.938 47.655 C 238.063 50.931,238.070 50.833,234.719 50.833 L 232.262 50.833 231.006 49.533 C 230.315 48.817,229.188 47.633,228.500 46.901 C 227.813 46.170,225.450 43.662,223.250 41.329 C 221.050 38.995,218.575 36.365,217.750 35.483 C 216.925 34.601,216.156 33.834,216.042 33.778 C 215.876 33.698,215.833 35.410,215.833 42.055 C 215.833 48.349,215.784 50.483,215.633 50.633 C 215.359 50.908,211.974 50.908,211.700 50.633 C 211.410 50.343,211.410 12.824,211.700 12.533 C 211.994 12.240,215.398 12.260,215.644 12.556 M19.958 16.592 C 19.890 16.664,19.833 19.335,19.833 22.528 L 19.833 28.333 21.034 28.333 C 28.211 28.333,31.584 26.066,31.292 21.437 C 31.139 19.005,29.765 17.483,27.132 16.827 C 26.261 16.610,20.133 16.409,19.958 16.592 M19.958 32.595 C 19.890 32.665,19.833 35.870,19.833 39.717 L 19.833 46.711 23.792 46.624 C 29.157 46.506,30.753 46.083,32.504 44.313 C 36.518 40.257,34.061 34.067,27.986 32.930 C 26.587 32.668,20.150 32.399,19.958 32.595 M115.712 33.187 C 115.874 33.473,116.429 34.503,116.945 35.478 C 117.461 36.453,118.461 38.337,119.167 39.667 C 119.874 40.996,120.923 42.983,121.499 44.083 C 122.709 46.393,123.677 48.211,124.365 49.462 C 125.041 50.694,125.118 50.667,120.909 50.667 L 117.171 50.667 116.777 50.042 C 116.560 49.698,115.795 48.479,115.076 47.333 C 114.358 46.188,113.110 44.216,112.302 42.951 C 111.494 41.687,110.833 40.544,110.833 40.413 C 110.833 40.239,113.935 34.490,114.945 32.792 C 115.105 32.524,115.430 32.692,115.712 33.187 M110.427 45.625 C 111.049 46.610,111.957 48.038,112.445 48.797 C 113.743 50.815,113.989 50.667,109.333 50.667 C 105.799 50.667,105.333 50.636,105.333 50.403 C 105.333 50.188,107.755 45.614,108.612 44.208 C 109.001 43.571,109.259 43.772,110.427 45.625 M3.044 74.620 C 3.297 74.658,3.672 74.657,3.877 74.617 C 4.082 74.578,3.875 74.546,3.417 74.548 C 2.958 74.549,2.791 74.581,3.044 74.620 M4.521 74.775 C 4.707 74.999,4.766 76.779,4.836 84.150 L 4.922 93.250 4.956 84.167 C 4.990 75.012,4.961 74.500,4.420 74.500 C 4.350 74.500,4.395 74.624,4.521 74.775 M49.208 74.610 C 49.094 74.657,49.000 74.772,49.000 74.868 C 49.000 74.985,49.068 74.984,49.213 74.864 C 49.331 74.766,49.837 74.659,50.338 74.624 L 51.250 74.562 50.333 74.544 C 49.829 74.534,49.323 74.564,49.208 74.610 M97.211 74.620 C 97.464 74.658,97.839 74.657,98.044 74.617 C 98.249 74.578,98.042 74.546,97.583 74.548 C 97.125 74.549,96.957 74.581,97.211 74.620 M174.329 74.620 C 174.922 74.656,175.472 74.774,175.550 74.884 C 175.650 75.024,175.672 75.009,175.624 74.833 C 175.573 74.644,175.279 74.580,174.403 74.570 L 173.250 74.556 174.329 74.620 M187.750 74.599 C 188.531 74.724,189.629 74.740,189.558 74.625 C 189.515 74.556,189.016 74.510,188.448 74.523 C 187.881 74.535,187.567 74.570,187.750 74.599 M261.635 74.625 C 263.039 74.653,265.289 74.653,266.635 74.625 C 267.982 74.597,266.833 74.574,264.083 74.574 C 261.333 74.574,260.232 74.597,261.635 74.625 M299.367 74.700 C 299.049 75.017,299.135 75.247,299.460 74.953 C 299.629 74.800,300.144 74.660,300.669 74.624 L 301.583 74.562 300.575 74.531 C 299.973 74.512,299.486 74.581,299.367 74.700 M301.897 74.867 C 302.131 75.262,302.169 76.423,302.208 84.367 L 302.253 93.417 302.293 84.310 C 302.333 75.255,302.331 75.201,301.982 74.810 L 301.630 74.417 301.897 74.867 M385.337 74.895 C 385.564 75.112,385.782 75.261,385.821 75.227 C 385.911 75.147,385.226 74.500,385.052 74.500 C 384.981 74.500,385.110 74.678,385.337 74.895 M397.711 74.620 C 397.964 74.658,398.339 74.657,398.544 74.617 C 398.749 74.578,398.542 74.546,398.083 74.548 C 397.625 74.549,397.457 74.581,397.711 74.620 M83.444 74.944 C 83.290 75.099,83.304 93.295,83.458 93.391 C 83.527 93.433,83.583 89.275,83.583 84.151 C 83.583 79.026,83.577 74.833,83.569 74.833 C 83.562 74.833,83.506 74.883,83.444 74.944 M51.744 84.083 C 51.744 89.125,51.766 91.212,51.792 88.720 C 51.817 86.229,51.817 82.104,51.792 79.553 C 51.766 77.003,51.744 79.042,51.744 84.083 M221.846 75.343 C 221.839 75.486,221.950 75.749,222.093 75.926 C 222.348 76.245,222.349 76.245,222.198 75.917 C 222.114 75.733,222.003 75.471,221.952 75.333 C 221.872 75.117,221.858 75.119,221.846 75.343 M384.081 84.403 C 384.083 92.544,384.115 93.731,384.333 93.790 C 384.517 93.841,384.528 93.820,384.376 93.712 C 384.217 93.599,384.159 91.451,384.124 84.324 L 384.079 75.083 384.081 84.403 M386.167 75.762 C 386.167 75.874,386.454 76.154,386.917 76.494 C 387.100 76.628,387.030 76.496,386.760 76.202 C 386.267 75.662,386.167 75.588,386.167 75.762 M86.339 76.449 C 86.347 76.634,86.993 77.396,87.073 77.315 C 87.109 77.279,86.957 77.040,86.736 76.782 C 86.514 76.525,86.336 76.375,86.339 76.449 M132.692 76.940 C 132.385 77.261,132.165 77.554,132.203 77.592 C 132.241 77.630,132.563 77.362,132.920 76.997 C 133.276 76.632,133.496 76.338,133.409 76.345 C 133.321 76.351,132.999 76.619,132.692 76.940 M139.667 76.798 C 139.667 76.870,139.817 76.929,140.000 76.929 C 140.183 76.929,140.333 76.870,140.333 76.798 C 140.333 76.726,140.183 76.667,140.000 76.667 C 139.817 76.667,139.667 76.726,139.667 76.798 M335.584 76.999 C 335.418 77.183,335.336 77.333,335.403 77.333 C 335.578 77.333,336.054 76.831,335.963 76.741 C 335.921 76.699,335.751 76.815,335.584 76.999 M342.437 76.801 C 342.391 76.874,342.624 76.942,342.953 76.952 C 343.363 76.963,343.478 76.922,343.318 76.820 C 343.024 76.634,342.546 76.624,342.437 76.801 M144.509 78.457 C 144.514 78.526,144.748 78.765,145.029 78.987 C 145.470 79.337,145.510 79.346,145.328 79.053 C 145.102 78.691,144.494 78.248,144.509 78.457 M41.039 78.833 C 41.153 79.017,41.304 79.167,41.375 79.167 C 41.445 79.167,41.409 79.017,41.295 78.833 C 41.180 78.650,41.029 78.500,40.958 78.500 C 40.888 78.500,40.924 78.650,41.039 78.833 M88.839 79.282 C 88.847 79.467,89.493 80.229,89.573 80.149 C 89.609 80.113,89.457 79.873,89.236 79.616 C 89.014 79.359,88.836 79.209,88.839 79.282 M42.500 80.292 C 42.500 80.375,42.704 80.624,42.953 80.846 C 43.286 81.142,43.341 81.161,43.162 80.917 C 42.771 80.387,42.500 80.131,42.500 80.292 M184.202 80.839 C 184.091 81.017,184.000 81.257,184.001 81.373 C 184.002 81.489,184.115 81.366,184.254 81.100 C 184.543 80.546,184.505 80.354,184.202 80.839 M386.796 87.420 C 386.759 92.588,386.791 93.784,386.958 93.555 C 387.116 93.339,387.167 91.809,387.167 87.281 C 387.167 81.603,387.182 81.304,387.458 81.518 C 387.696 81.702,387.691 81.675,387.433 81.372 C 387.258 81.167,387.053 81.000,386.978 81.000 C 386.903 81.000,386.821 83.889,386.796 87.420 M43.500 81.465 C 43.500 81.659,44.147 82.408,44.237 82.318 C 44.274 82.281,44.124 82.040,43.902 81.782 C 43.681 81.525,43.500 81.382,43.500 81.465 M391.348 81.770 C 391.569 82.056,391.784 82.260,391.824 82.223 C 391.865 82.186,391.684 81.953,391.422 81.703 L 390.945 81.250 391.348 81.770 M150.067 84.344 C 150.058 85.207,150.110 85.761,150.189 85.636 C 150.362 85.363,150.379 82.833,150.208 82.833 C 150.140 82.833,150.076 83.513,150.067 84.344 M223.089 84.843 C 223.164 84.964,222.491 85.003,220.932 84.968 C 219.686 84.940,218.666 84.973,218.666 85.042 C 218.667 85.110,219.717 85.167,221.000 85.167 C 222.963 85.167,223.333 85.127,223.333 84.917 C 223.333 84.779,223.254 84.667,223.157 84.667 C 223.060 84.667,223.029 84.746,223.089 84.843 M94.167 85.569 C 94.167 85.745,94.669 86.220,94.759 86.130 C 94.801 86.088,94.685 85.917,94.501 85.751 C 94.317 85.585,94.167 85.503,94.167 85.569 M92.167 87.560 C 92.167 87.732,93.005 88.551,93.092 88.464 C 93.131 88.425,92.939 88.178,92.665 87.915 C 92.391 87.652,92.167 87.493,92.167 87.560 M134.167 88.758 C 134.167 88.866,134.789 89.482,135.253 89.833 C 135.435 89.971,135.321 89.771,135.000 89.389 C 134.465 88.752,134.167 88.526,134.167 88.758 M351.667 89.333 C 351.471 89.608,351.348 89.833,351.394 89.833 C 351.440 89.833,351.638 89.608,351.833 89.333 C 352.029 89.058,352.152 88.833,352.106 88.833 C 352.060 88.833,351.862 89.058,351.667 89.333 M94.103 89.747 C 94.856 90.714,95.497 91.394,95.575 91.309 C 95.606 91.277,95.142 90.725,94.544 90.083 C 93.726 89.205,93.617 89.122,94.103 89.747 M228.167 89.146 C 228.167 89.249,228.236 89.333,228.321 89.333 C 228.406 89.333,228.510 89.465,228.552 89.625 C 228.616 89.871,228.631 89.874,228.647 89.645 C 228.658 89.496,228.554 89.281,228.417 89.167 C 228.244 89.023,228.167 89.017,228.167 89.146 M46.833 89.719 C 46.833 89.748,47.077 89.991,47.375 90.260 L 47.917 90.750 47.427 90.208 C 46.971 89.703,46.833 89.590,46.833 89.719 M131.667 90.132 C 131.667 90.326,132.314 91.075,132.404 90.985 C 132.441 90.947,132.291 90.706,132.069 90.449 C 131.848 90.192,131.667 90.049,131.667 90.132 M335.537 91.393 C 335.837 91.700,336.115 91.924,336.155 91.891 C 336.251 91.808,335.307 90.833,335.131 90.833 C 335.054 90.833,335.236 91.085,335.537 91.393 M133.500 92.072 C 133.500 92.112,133.744 92.310,134.042 92.512 L 134.583 92.880 134.132 92.440 C 133.709 92.027,133.500 91.905,133.500 92.072 M181.939 93.375 L 181.639 93.917 181.982 93.500 C 182.287 93.130,182.422 92.833,182.286 92.833 C 182.260 92.833,182.104 93.077,181.939 93.375 M230.066 93.329 C 230.056 93.601,230.112 93.783,230.191 93.735 C 230.366 93.627,230.382 92.833,230.208 92.834 C 230.140 92.834,230.075 93.057,230.066 93.329 M211.589 93.216 C 211.517 93.380,211.506 93.561,211.563 93.618 C 211.732 93.788,211.868 93.550,211.791 93.221 C 211.721 92.930,211.712 92.930,211.589 93.216 " stroke="none" fill="#040404" fill-rule="evenodd"></path><path id="path3" d="M249.750 30.042 L 249.750 60.083 249.205 60.136 C 248.499 60.204,248.679 60.500,249.427 60.500 L 250.000 60.500 250.000 30.250 C 250.000 13.613,249.944 -0.000,249.875 -0.000 C 249.806 -0.000,249.750 13.519,249.750 30.042 M172.121 11.454 C 172.417 11.490,172.942 11.491,173.288 11.455 C 173.634 11.419,173.392 11.389,172.750 11.388 C 172.108 11.387,171.825 11.417,172.121 11.454 M169.000 11.662 C 168.771 11.732,169.183 11.752,169.917 11.706 C 170.650 11.659,171.281 11.594,171.319 11.561 C 171.452 11.445,169.415 11.534,169.000 11.662 M174.250 11.583 C 174.629 11.711,176.728 11.784,176.417 11.658 C 176.233 11.584,175.633 11.524,175.083 11.525 C 174.533 11.526,174.158 11.552,174.250 11.583 M166.917 12.103 C 166.263 12.332,166.261 12.335,166.833 12.233 C 168.263 11.979,168.631 11.872,168.083 11.870 C 167.808 11.869,167.283 11.974,166.917 12.103 M177.250 11.952 C 177.525 11.990,178.120 12.129,178.572 12.261 C 179.775 12.611,179.921 12.524,178.750 12.154 C 178.200 11.980,177.525 11.848,177.250 11.861 L 176.750 11.883 177.250 11.952 M15.778 12.444 C 15.561 12.662,15.648 50.415,15.867 50.633 C 16.087 50.853,27.089 50.908,28.500 50.696 C 28.912 50.634,26.250 50.583,22.583 50.583 L 15.917 50.583 15.917 31.583 L 15.917 12.583 20.833 12.496 L 25.750 12.409 20.819 12.371 C 18.108 12.350,15.839 12.383,15.778 12.444 M60.783 12.439 C 60.719 12.503,60.685 20.962,60.707 31.236 L 60.748 49.917 60.832 31.250 L 60.917 12.583 62.750 12.583 L 64.583 12.583 64.667 29.667 L 64.750 46.750 72.000 46.833 L 79.250 46.917 79.250 48.750 L 79.250 50.583 70.120 50.626 L 60.990 50.670 60.839 50.293 C 60.690 49.922,60.688 49.922,60.677 50.274 C 60.661 50.832,60.685 50.833,70.147 50.833 C 80.513 50.833,79.500 51.060,79.500 48.737 C 79.500 46.471,80.236 46.678,71.985 46.627 L 64.917 46.583 64.833 29.500 L 64.750 12.417 62.824 12.370 C 61.765 12.344,60.847 12.376,60.783 12.439 M114.542 12.440 C 114.427 12.488,114.333 12.612,114.333 12.714 C 114.333 12.843,114.394 12.839,114.533 12.700 C 114.978 12.256,116.167 12.850,116.167 13.516 C 116.167 13.592,116.617 14.603,117.167 15.764 C 117.717 16.924,118.167 17.892,118.167 17.916 C 118.167 17.940,118.678 19.037,119.303 20.354 C 119.929 21.672,120.728 23.369,121.080 24.126 C 121.432 24.883,121.747 25.475,121.781 25.442 C 121.814 25.408,121.512 24.677,121.110 23.816 C 120.707 22.954,119.836 21.087,119.173 19.667 C 115.453 11.689,115.848 12.423,115.250 12.384 C 114.975 12.366,114.656 12.391,114.542 12.440 M164.417 12.895 C 162.786 13.564,162.276 13.832,162.398 13.954 C 162.450 14.005,162.604 13.955,162.740 13.842 C 162.876 13.728,163.722 13.345,164.619 12.989 C 165.516 12.633,166.137 12.344,166.000 12.345 C 165.862 12.347,165.150 12.594,164.417 12.895 M211.700 12.533 C 211.410 12.824,211.410 50.343,211.700 50.633 C 211.974 50.908,215.359 50.908,215.633 50.633 C 215.784 50.483,215.833 48.349,215.833 42.055 C 215.833 35.410,215.876 33.698,216.042 33.778 C 216.156 33.834,216.925 34.601,217.750 35.483 C 219.452 37.302,226.629 44.917,228.462 46.848 C 229.129 47.550,229.824 48.297,230.005 48.506 C 230.187 48.715,230.368 48.854,230.407 48.815 C 230.447 48.775,229.903 48.144,229.198 47.411 C 228.493 46.678,226.229 44.282,224.167 42.085 C 222.104 39.889,219.735 37.377,218.902 36.504 C 218.069 35.631,217.067 34.561,216.675 34.127 C 216.282 33.693,215.895 33.379,215.814 33.429 C 215.732 33.479,215.667 37.263,215.667 41.992 C 215.667 49.564,215.639 50.475,215.403 50.566 C 215.016 50.714,212.119 50.684,211.874 50.529 C 211.708 50.423,211.674 46.505,211.708 31.490 L 211.750 12.583 213.667 12.583 L 215.583 12.583 215.667 19.417 C 215.727 24.339,215.803 26.250,215.938 26.250 C 216.150 26.250,217.168 25.317,224.667 18.241 C 225.354 17.593,226.592 16.431,227.417 15.660 C 228.242 14.890,229.329 13.852,229.833 13.355 L 230.750 12.451 229.719 13.350 C 228.746 14.200,227.315 15.534,221.417 21.086 C 220.042 22.380,218.242 24.069,217.417 24.838 L 215.917 26.237 215.873 19.508 C 215.843 14.879,215.772 12.710,215.644 12.556 C 215.398 12.260,211.994 12.240,211.700 12.533 M233.163 12.456 C 234.490 12.485,235.638 12.572,235.714 12.648 C 235.790 12.723,234.838 13.734,233.599 14.893 C 232.360 16.052,231.400 16.998,231.465 16.996 C 231.583 16.992,232.736 15.938,234.881 13.874 C 236.387 12.424,236.380 12.418,233.320 12.409 L 230.750 12.402 233.163 12.456 M26.294 12.618 C 26.501 12.658,26.801 12.656,26.960 12.615 C 27.120 12.573,26.950 12.540,26.583 12.542 C 26.217 12.544,26.086 12.578,26.294 12.618 M180.736 12.924 C 181.279 13.149,181.749 13.306,181.782 13.274 C 181.859 13.196,180.178 12.498,179.936 12.507 C 179.834 12.511,180.194 12.698,180.736 12.924 M27.750 12.833 C 28.455 13.013,29.060 13.013,28.500 12.833 C 28.271 12.760,27.896 12.701,27.667 12.703 C 27.292 12.706,27.301 12.719,27.750 12.833 M29.333 13.186 C 31.670 14.180,33.209 15.303,34.012 16.602 C 34.209 16.922,34.409 17.146,34.456 17.100 C 34.576 16.979,33.556 15.694,32.759 14.963 C 32.008 14.273,30.187 13.264,29.417 13.109 C 28.940 13.014,28.936 13.017,29.333 13.186 M113.509 14.462 C 112.978 15.545,112.649 16.333,112.729 16.333 C 112.826 16.333,114.017 13.795,113.951 13.729 C 113.921 13.699,113.722 14.029,113.509 14.462 M160.667 14.876 C 158.427 16.412,153.931 21.320,154.365 21.754 C 154.401 21.790,154.837 21.204,155.335 20.451 C 156.854 18.154,159.141 15.995,161.938 14.218 C 162.109 14.109,162.175 14.019,162.083 14.019 C 161.992 14.018,161.354 14.404,160.667 14.876 M183.333 14.036 C 183.526 14.259,185.666 15.628,185.665 15.527 C 185.663 15.466,185.382 15.235,185.040 15.012 C 184.232 14.488,183.227 13.913,183.333 14.036 M170.083 15.667 L 169.417 15.786 170.083 15.798 C 170.450 15.805,170.900 15.745,171.083 15.667 L 171.417 15.523 171.083 15.535 C 170.900 15.542,170.450 15.601,170.083 15.667 M174.583 15.661 C 174.899 15.802,176.300 15.902,176.153 15.773 C 176.115 15.739,175.671 15.667,175.167 15.612 C 174.568 15.547,174.366 15.564,174.583 15.661 M187.511 17.320 C 189.504 19.331,189.603 19.566,188.746 20.246 C 187.549 21.197,187.250 21.536,188.333 20.715 C 188.929 20.264,189.439 19.743,189.466 19.558 C 189.515 19.226,186.825 16.186,186.174 15.837 C 186.019 15.754,186.621 16.421,187.511 17.320 M168.417 16.000 L 168.083 16.143 168.417 16.143 C 168.600 16.143,168.900 16.079,169.083 16.000 L 169.417 15.857 169.083 15.857 C 168.900 15.857,168.600 15.921,168.417 16.000 M176.516 15.896 C 176.656 16.048,178.530 16.525,178.624 16.432 C 178.695 16.361,178.112 16.180,176.917 15.902 C 176.642 15.839,176.462 15.836,176.516 15.896 M21.292 16.457 C 21.956 16.489,23.044 16.489,23.708 16.457 C 24.373 16.425,23.829 16.400,22.500 16.400 C 21.171 16.400,20.627 16.425,21.292 16.457 M19.703 22.458 C 19.723 25.735,19.760 27.479,19.785 26.333 C 19.903 21.067,19.906 16.500,19.792 16.500 C 19.723 16.500,19.683 19.181,19.703 22.458 M25.181 16.560 C 25.219 16.593,25.738 16.661,26.333 16.711 C 26.983 16.765,27.250 16.748,27.000 16.667 C 26.589 16.535,25.046 16.444,25.181 16.560 M165.833 16.917 C 164.850 17.443,165.062 17.444,166.192 16.918 C 166.682 16.690,166.971 16.506,166.833 16.509 C 166.696 16.512,166.246 16.696,165.833 16.917 M28.083 17.120 C 28.905 17.453,30.167 18.293,30.167 18.508 C 30.167 18.595,30.256 18.667,30.365 18.667 C 30.473 18.667,30.356 18.452,30.105 18.189 C 29.638 17.702,28.033 16.826,27.635 16.842 C 27.515 16.847,27.717 16.972,28.083 17.120 M180.790 17.496 C 182.465 18.409,183.562 19.251,185.003 20.731 C 186.276 22.038,186.633 22.211,187.013 21.708 C 187.201 21.460,187.199 21.448,187.000 21.625 C 186.588 21.992,186.358 21.860,184.958 20.448 C 183.543 19.022,182.231 18.041,180.714 17.273 C 179.379 16.598,179.433 16.756,180.790 17.496 M111.865 17.925 C 111.363 18.958,111.419 19.103,111.936 18.109 C 112.167 17.664,112.328 17.272,112.293 17.237 C 112.258 17.202,112.065 17.512,111.865 17.925 M228.417 19.700 C 225.189 22.744,224.425 23.461,221.383 26.295 C 220.082 27.508,219.069 28.498,219.133 28.496 C 219.198 28.494,219.700 28.072,220.250 27.559 C 220.800 27.045,222.150 25.790,223.249 24.771 C 224.349 23.751,225.962 22.242,226.835 21.417 C 227.707 20.592,229.079 19.298,229.883 18.542 C 230.687 17.785,231.286 17.171,231.214 17.175 C 231.142 17.180,229.883 18.316,228.417 19.700 M164.054 17.831 C 163.579 18.104,163.146 18.398,163.092 18.487 C 163.003 18.631,164.750 17.639,164.966 17.423 C 165.155 17.234,164.885 17.355,164.054 17.831 M161.980 19.346 L 161.250 20.026 162.042 19.394 C 162.477 19.047,162.833 18.741,162.833 18.715 C 162.833 18.586,162.651 18.721,161.980 19.346 M30.750 19.333 C 30.892 19.608,31.046 19.833,31.092 19.833 C 31.138 19.833,31.059 19.608,30.917 19.333 C 30.774 19.058,30.621 18.833,30.575 18.833 C 30.529 18.833,30.608 19.058,30.750 19.333 M35.178 18.948 C 35.216 19.381,35.477 19.748,35.488 19.385 C 35.495 19.184,35.425 18.973,35.333 18.917 C 35.242 18.860,35.172 18.874,35.178 18.948 M110.922 19.922 C 110.690 20.428,110.503 20.897,110.507 20.963 C 110.515 21.116,110.970 20.278,111.273 19.553 C 111.656 18.636,111.374 18.932,110.922 19.922 M35.564 21.833 C 35.564 22.979,35.591 23.448,35.623 22.875 C 35.656 22.302,35.656 21.365,35.623 20.792 C 35.591 20.219,35.564 20.688,35.564 21.833 M31.289 21.333 C 31.365 22.603,31.298 23.137,30.924 24.250 C 30.863 24.433,30.943 24.358,31.104 24.083 C 31.445 23.498,31.621 20.987,31.367 20.333 C 31.250 20.034,31.229 20.317,31.289 21.333 M160.263 20.928 C 159.812 21.423,159.303 22.036,159.132 22.289 C 158.491 23.236,157.632 24.854,157.721 24.943 C 157.772 24.994,157.925 24.769,158.061 24.443 C 158.431 23.559,159.611 21.854,160.470 20.962 C 160.888 20.529,161.197 20.141,161.156 20.101 C 161.116 20.060,160.713 20.432,160.263 20.928 M109.317 23.271 C 108.768 24.428,108.347 25.403,108.381 25.437 C 108.415 25.471,108.880 24.580,109.414 23.458 C 109.948 22.335,110.416 21.360,110.452 21.292 C 110.489 21.223,110.474 21.167,110.417 21.167 C 110.361 21.167,109.866 22.114,109.317 23.271 M114.917 21.333 C 114.860 21.425,114.918 21.500,115.045 21.500 C 115.173 21.500,115.471 21.931,115.707 22.458 C 116.579 24.399,117.378 26.011,117.438 25.950 C 117.531 25.858,115.273 21.167,115.137 21.167 C 115.072 21.167,114.973 21.242,114.917 21.333 M113.363 24.529 C 112.612 26.101,112.030 27.419,112.070 27.459 C 112.111 27.500,112.309 27.169,112.511 26.725 C 112.714 26.280,113.320 24.987,113.859 23.850 C 114.398 22.713,114.814 21.758,114.783 21.728 C 114.753 21.697,114.114 22.958,113.363 24.529 M153.673 23.042 C 153.410 23.615,153.151 24.271,153.097 24.500 L 152.998 24.917 153.196 24.500 C 153.751 23.335,154.303 22.000,154.231 22.000 C 154.186 22.000,153.935 22.469,153.673 23.042 M35.262 24.429 C 35.201 24.673,35.188 24.910,35.234 24.956 C 35.280 25.002,35.367 24.839,35.429 24.595 C 35.490 24.351,35.503 24.114,35.457 24.068 C 35.411 24.022,35.323 24.184,35.262 24.429 M30.053 25.570 C 29.309 26.534,28.294 27.222,26.929 27.688 C 26.464 27.847,26.233 27.982,26.417 27.988 C 27.432 28.023,30.002 26.265,30.601 25.125 C 30.948 24.464,30.839 24.553,30.053 25.570 M34.523 26.254 C 34.002 27.260,31.913 29.500,31.497 29.500 C 31.407 29.500,31.333 29.611,31.333 29.748 C 31.333 29.981,32.470 30.586,32.621 30.434 C 32.660 30.396,32.424 30.267,32.096 30.148 C 31.331 29.872,31.343 29.811,32.292 29.113 C 33.395 28.301,34.443 26.995,34.972 25.770 C 35.356 24.882,35.081 25.178,34.523 26.254 M157.360 25.590 C 157.254 25.824,157.170 26.106,157.173 26.216 C 157.177 26.326,157.290 26.162,157.426 25.850 C 157.711 25.194,157.650 24.954,157.360 25.590 M108.019 26.019 C 107.933 26.238,107.331 27.528,106.681 28.886 C 106.032 30.244,105.505 31.407,105.511 31.469 C 105.517 31.532,106.155 30.278,106.929 28.682 C 107.703 27.086,108.300 25.744,108.256 25.700 C 108.212 25.656,108.105 25.800,108.019 26.019 M117.500 26.222 C 117.500 26.263,117.995 27.336,118.601 28.607 C 119.206 29.877,119.877 31.310,120.092 31.792 C 120.306 32.273,120.521 32.667,120.568 32.667 C 120.679 32.667,120.302 31.808,118.934 28.947 C 118.329 27.680,117.833 26.578,117.833 26.498 C 117.833 26.418,117.758 26.307,117.667 26.250 C 117.575 26.193,117.500 26.181,117.500 26.222 M152.350 27.090 C 152.235 27.636,152.171 28.383,152.209 28.750 C 152.274 29.383,152.279 29.374,152.306 28.583 C 152.322 28.125,152.415 27.464,152.512 27.115 C 152.608 26.766,152.659 26.394,152.624 26.289 C 152.589 26.184,152.466 26.544,152.350 27.090 M122.182 26.417 C 122.182 26.508,122.400 26.996,122.667 27.500 C 122.933 28.004,123.151 28.342,123.151 28.250 C 123.151 28.158,122.933 27.671,122.667 27.167 C 122.400 26.662,122.182 26.325,122.182 26.417 M156.937 26.756 C 156.880 26.905,156.840 27.152,156.848 27.305 C 156.856 27.458,156.928 27.362,157.009 27.092 C 157.166 26.566,157.110 26.305,156.937 26.756 M111.661 28.125 C 111.310 28.828,111.308 28.833,111.395 28.833 C 111.502 28.833,112.017 27.795,111.945 27.723 C 111.915 27.692,111.787 27.873,111.661 28.125 M156.607 28.035 C 156.551 28.245,156.512 28.642,156.522 28.917 C 156.534 29.262,156.582 29.160,156.678 28.589 C 156.823 27.718,156.781 27.386,156.607 28.035 M23.667 28.167 L 22.917 28.283 23.750 28.299 C 24.208 28.307,24.883 28.252,25.250 28.176 L 25.917 28.038 25.167 28.044 C 24.754 28.047,24.079 28.103,23.667 28.167 M20.796 28.456 C 21.188 28.491,21.788 28.490,22.129 28.454 C 22.471 28.419,22.150 28.390,21.417 28.390 C 20.683 28.391,20.404 28.420,20.796 28.456 M218.333 29.083 C 218.118 29.313,217.996 29.500,218.062 29.500 C 218.128 29.500,218.369 29.313,218.598 29.083 C 218.828 28.854,218.950 28.667,218.870 28.667 C 218.790 28.667,218.549 28.854,218.333 29.083 M110.039 31.522 C 109.374 32.914,108.866 34.088,108.910 34.132 C 108.954 34.177,109.060 34.034,109.144 33.815 C 109.228 33.596,109.756 32.481,110.316 31.337 C 110.877 30.193,111.316 29.198,111.292 29.125 C 111.267 29.052,110.704 30.131,110.039 31.522 M123.515 29.250 C 123.515 29.342,123.696 29.754,123.917 30.167 C 124.138 30.579,124.318 30.842,124.318 30.750 C 124.318 30.658,124.138 30.246,123.917 29.833 C 123.696 29.421,123.515 29.158,123.515 29.250 M151.950 30.625 C 151.899 31.244,151.912 32.125,151.980 32.583 C 152.075 33.230,152.106 32.979,152.115 31.458 C 152.130 29.232,152.084 29.002,151.950 30.625 M156.399 31.750 C 156.399 33.033,156.426 33.536,156.457 32.868 C 156.489 32.199,156.489 31.149,156.457 30.534 C 156.425 29.920,156.399 30.467,156.399 31.750 M218.006 29.791 C 218.011 29.912,218.749 30.711,222.060 34.180 C 222.898 35.058,223.960 36.183,224.420 36.680 C 225.498 37.845,232.291 45.068,235.045 47.979 C 236.216 49.216,237.147 50.308,237.115 50.406 C 237.078 50.517,236.171 50.601,234.669 50.630 L 232.281 50.676 231.460 49.824 C 231.008 49.356,230.607 49.004,230.568 49.044 C 230.528 49.083,230.905 49.501,231.405 49.974 L 232.313 50.833 234.745 50.833 C 238.066 50.833,238.060 50.928,234.938 47.655 C 234.101 46.778,232.900 45.503,232.269 44.822 C 231.637 44.141,230.437 42.865,229.602 41.987 C 228.767 41.109,227.637 39.909,227.091 39.320 C 225.775 37.901,223.779 35.780,221.925 33.829 C 221.096 32.956,219.873 31.662,219.208 30.954 C 218.544 30.245,218.003 29.722,218.006 29.791 M33.592 30.964 C 33.679 31.036,34.183 31.384,34.712 31.737 C 35.793 32.458,36.702 33.478,37.475 34.833 C 37.762 35.337,37.998 35.655,37.998 35.538 C 38.005 34.624,34.437 30.833,33.571 30.833 C 33.495 30.833,33.505 30.892,33.592 30.964 M124.342 31.125 C 124.353 31.299,125.648 33.775,125.658 33.642 C 125.670 33.496,124.479 31.000,124.398 31.000 C 124.363 31.000,124.337 31.056,124.342 31.125 M104.765 32.919 C 103.966 34.626,104.018 34.740,104.852 33.108 C 105.220 32.388,105.486 31.764,105.442 31.720 C 105.399 31.677,105.094 32.216,104.765 32.919 M19.743 32.542 C 19.699 32.656,19.683 35.900,19.706 39.750 L 19.750 46.750 22.292 46.757 L 24.834 46.763 22.332 46.711 L 19.830 46.658 19.873 39.621 L 19.917 32.583 23.417 32.605 C 26.362 32.624,26.626 32.607,25.083 32.502 C 21.996 32.290,19.833 32.306,19.743 32.542 M27.014 32.729 C 27.052 32.763,27.458 32.834,27.917 32.887 C 28.479 32.952,28.614 32.937,28.333 32.842 C 27.917 32.700,26.883 32.612,27.014 32.729 M114.945 32.792 C 113.935 34.490,110.833 40.239,110.833 40.413 C 110.833 40.544,111.494 41.687,112.302 42.951 C 113.110 44.216,114.358 46.188,115.076 47.333 C 115.795 48.479,116.560 49.698,116.777 50.042 L 117.171 50.667 120.909 50.667 C 125.118 50.667,125.041 50.694,124.365 49.462 C 123.677 48.211,122.709 46.393,121.499 44.083 C 120.923 42.983,119.874 40.996,119.167 39.667 C 118.461 38.337,117.461 36.453,116.945 35.478 C 115.397 32.554,115.225 32.322,114.945 32.792 M116.133 34.375 C 116.876 35.759,118.456 38.754,121.123 43.833 C 121.629 44.796,122.285 46.033,122.582 46.583 C 122.878 47.133,123.431 48.158,123.811 48.861 C 124.190 49.564,124.500 50.220,124.500 50.319 C 124.500 50.444,123.380 50.500,120.918 50.500 L 117.335 50.500 116.392 49.042 C 114.559 46.208,111.000 40.510,111.000 40.409 C 111.000 40.180,115.111 32.833,115.239 32.833 C 115.275 32.833,115.677 33.527,116.133 34.375 M30.583 33.778 C 31.782 34.395,32.734 35.217,33.351 36.169 C 33.647 36.626,33.923 36.966,33.965 36.924 C 34.397 36.492,30.748 33.290,29.882 33.341 C 29.809 33.345,30.125 33.542,30.583 33.778 M121.059 33.667 C 121.212 34.208,121.735 35.434,121.945 35.745 C 122.315 36.294,122.197 35.939,121.578 34.647 C 121.254 33.970,121.021 33.529,121.059 33.667 M152.198 34.333 C 152.189 34.746,152.290 35.496,152.424 36.000 C 152.648 36.849,152.658 36.862,152.557 36.167 C 152.497 35.754,152.396 35.004,152.332 34.500 L 152.216 33.583 152.198 34.333 M156.520 34.610 C 156.498 35.186,157.333 37.898,157.756 38.627 C 157.902 38.878,157.969 38.933,157.905 38.750 C 157.841 38.567,157.565 37.785,157.293 37.014 C 157.021 36.242,156.740 35.267,156.668 34.847 C 156.563 34.223,156.536 34.180,156.520 34.610 M107.363 37.196 C 106.612 38.767,106.033 40.089,106.077 40.133 C 106.121 40.177,106.227 40.034,106.311 39.815 C 106.396 39.596,107.004 38.304,107.662 36.944 C 108.321 35.583,108.830 34.441,108.794 34.405 C 108.758 34.369,108.114 35.625,107.363 37.196 M126.648 36.042 C 128.309 39.649,128.722 40.500,128.786 40.437 C 128.823 40.399,128.503 39.629,128.073 38.726 C 127.644 37.822,127.044 36.540,126.739 35.875 C 126.435 35.210,126.147 34.667,126.100 34.667 C 126.054 34.667,126.300 35.285,126.648 36.042 M103.023 36.595 C 102.104 38.509,102.157 38.629,103.102 36.774 C 103.516 35.963,103.822 35.267,103.784 35.228 C 103.745 35.189,103.402 35.804,103.023 36.595 M38.012 35.948 C 38.049 36.381,38.310 36.748,38.322 36.385 C 38.328 36.184,38.258 35.973,38.167 35.917 C 38.075 35.860,38.005 35.874,38.012 35.948 M122.348 36.583 C 122.348 36.675,122.529 37.087,122.750 37.500 C 122.971 37.912,123.152 38.175,123.152 38.083 C 123.152 37.992,122.971 37.579,122.750 37.167 C 122.529 36.754,122.348 36.492,122.348 36.583 M38.441 37.333 C 38.573 38.052,38.668 38.188,38.664 37.653 C 38.663 37.431,38.588 37.137,38.498 37.000 C 38.382 36.824,38.366 36.923,38.441 37.333 M152.690 37.167 C 152.690 37.304,152.755 37.567,152.833 37.750 C 152.924 37.960,152.977 37.991,152.977 37.833 C 152.977 37.696,152.912 37.433,152.833 37.250 C 152.743 37.040,152.690 37.009,152.690 37.167 M34.005 37.333 C 34.005 37.471,34.078 37.696,34.167 37.833 C 34.310 38.056,34.328 38.056,34.328 37.833 C 34.328 37.696,34.256 37.471,34.167 37.333 C 34.023 37.111,34.005 37.111,34.005 37.333 M34.398 39.750 C 34.400 41.283,34.413 41.348,34.554 40.557 C 34.649 40.027,34.648 39.388,34.552 38.890 C 34.412 38.166,34.396 38.253,34.398 39.750 M153.000 38.216 C 153.000 38.456,153.721 40.263,153.878 40.417 C 153.994 40.530,154.008 40.476,153.920 40.250 C 153.158 38.283,153.000 37.935,153.000 38.216 M38.667 39.750 C 38.667 40.560,38.707 41.182,38.756 41.133 C 38.877 41.012,38.883 38.494,38.763 38.374 C 38.710 38.321,38.667 38.940,38.667 39.750 M101.762 39.270 C 101.526 39.785,101.336 40.254,101.340 40.312 C 101.349 40.451,101.816 39.582,102.107 38.887 C 102.491 37.967,102.222 38.266,101.762 39.270 M123.508 39.024 C 123.493 39.219,124.708 41.681,124.782 41.607 C 124.822 41.567,124.554 40.945,124.186 40.225 C 123.818 39.506,123.513 38.965,123.508 39.024 M158.169 39.500 C 159.085 41.279,161.466 43.892,163.248 45.075 C 164.270 45.753,166.829 47.001,167.191 46.998 C 167.315 46.997,166.828 46.739,166.108 46.424 C 163.292 45.195,160.627 42.987,158.980 40.519 C 158.052 39.128,157.842 38.864,158.169 39.500 M105.098 41.931 C 104.675 42.823,104.366 43.588,104.410 43.632 C 104.454 43.677,104.559 43.534,104.643 43.315 C 104.727 43.096,105.066 42.360,105.398 41.681 C 105.729 41.001,105.970 40.414,105.933 40.377 C 105.896 40.340,105.520 41.039,105.098 41.931 M129.181 41.356 C 129.173 41.415,129.649 42.465,130.238 43.690 C 130.828 44.914,131.311 45.842,131.312 45.750 C 131.314 45.555,129.202 41.199,129.181 41.356 M154.333 41.404 C 154.333 42.275,158.859 47.418,160.342 48.232 C 161.056 48.624,160.870 48.437,159.565 47.452 C 158.185 46.410,156.507 44.557,155.318 42.762 C 154.777 41.944,154.333 41.333,154.333 41.404 M33.802 42.466 C 33.024 44.118,31.647 45.339,29.823 45.995 C 29.325 46.175,29.050 46.324,29.212 46.327 C 30.795 46.360,34.696 42.791,34.304 41.669 C 34.274 41.584,34.048 41.943,33.802 42.466 M38.385 42.301 C 38.281 42.731,38.139 43.227,38.070 43.402 C 37.991 43.601,38.006 43.683,38.110 43.618 C 38.291 43.507,38.767 41.711,38.647 41.592 C 38.607 41.552,38.489 41.871,38.385 42.301 M185.600 42.271 C 184.227 43.922,181.315 45.841,178.788 46.758 C 177.000 47.408,177.031 47.530,178.830 46.918 C 181.086 46.150,183.586 44.540,185.410 42.677 C 186.361 41.708,186.502 41.677,187.318 42.265 L 187.917 42.697 187.372 42.182 C 186.673 41.520,186.206 41.544,185.600 42.271 M99.942 43.109 C 99.598 43.804,99.348 44.404,99.387 44.442 C 99.425 44.481,99.731 43.936,100.065 43.232 C 100.400 42.528,100.650 41.927,100.620 41.898 C 100.591 41.869,100.286 42.414,99.942 43.109 M125.182 42.583 C 125.182 42.675,125.362 43.087,125.583 43.500 C 125.804 43.913,125.985 44.175,125.985 44.083 C 125.985 43.992,125.804 43.579,125.583 43.167 C 125.362 42.754,125.182 42.492,125.182 42.583 M188.628 43.277 C 189.019 43.629,189.337 44.005,189.336 44.114 C 189.332 44.444,186.803 46.887,185.574 47.747 C 184.231 48.688,183.915 48.958,184.500 48.666 C 185.884 47.975,189.500 44.631,189.500 44.042 C 189.500 43.849,189.187 43.509,188.708 43.180 L 187.917 42.636 188.628 43.277 M37.373 44.885 C 36.834 45.924,35.650 47.298,34.417 48.319 L 33.750 48.871 34.417 48.410 C 35.931 47.362,38.362 44.306,37.983 43.927 C 37.943 43.887,37.668 44.318,37.373 44.885 M108.612 44.208 C 107.755 45.614,105.333 50.188,105.333 50.403 C 105.333 50.636,105.799 50.667,109.333 50.667 C 113.989 50.667,113.743 50.815,112.445 48.797 C 111.957 48.038,111.049 46.610,110.427 45.625 C 109.259 43.772,109.001 43.571,108.612 44.208 M109.892 45.125 C 112.135 48.589,113.138 50.245,113.064 50.365 C 113.018 50.439,111.292 50.500,109.229 50.500 C 104.904 50.500,105.197 50.682,106.334 48.698 C 107.347 46.927,107.963 45.816,108.450 44.875 C 109.020 43.774,109.017 43.774,109.892 45.125 M103.531 45.258 C 103.029 46.292,103.085 46.436,103.603 45.442 C 103.834 44.998,103.994 44.606,103.960 44.571 C 103.925 44.536,103.732 44.845,103.531 45.258 M98.700 45.759 C 98.407 46.353,98.170 46.894,98.175 46.961 C 98.179 47.029,98.447 46.569,98.769 45.941 C 99.091 45.313,99.328 44.772,99.294 44.738 C 99.260 44.705,98.993 45.164,98.700 45.759 M126.333 45.059 C 126.333 45.231,127.825 48.167,127.913 48.167 C 127.992 48.167,126.569 45.180,126.418 45.029 C 126.372 44.983,126.333 44.996,126.333 45.059 M131.333 46.066 C 131.333 46.237,132.551 48.671,132.608 48.614 C 132.680 48.542,131.503 46.000,131.398 46.000 C 131.363 46.000,131.333 46.030,131.333 46.066 M27.250 46.500 L 26.250 46.611 27.167 46.622 C 27.671 46.628,28.271 46.573,28.500 46.500 C 29.006 46.338,28.714 46.338,27.250 46.500 M102.797 46.882 C 102.237 47.982,102.157 48.167,102.241 48.167 C 102.357 48.167,103.206 46.483,103.129 46.407 C 103.096 46.374,102.946 46.587,102.797 46.882 M167.750 47.167 C 168.248 47.381,168.665 47.381,168.333 47.167 C 168.196 47.078,167.933 47.009,167.750 47.014 L 167.417 47.023 167.750 47.167 M97.598 48.033 C 97.134 48.964,97.006 49.571,97.444 48.762 C 97.804 48.097,98.187 47.167,98.100 47.167 C 98.062 47.167,97.836 47.556,97.598 48.033 M169.167 47.500 C 169.809 47.706,170.152 47.706,169.833 47.500 C 169.696 47.411,169.396 47.345,169.167 47.352 L 168.750 47.367 169.167 47.500 M176.083 47.500 L 175.750 47.643 176.083 47.638 C 176.267 47.636,176.604 47.573,176.833 47.500 L 177.250 47.367 176.833 47.362 C 176.604 47.359,176.267 47.421,176.083 47.500 M171.875 47.829 C 172.494 47.892,173.506 47.892,174.125 47.829 C 175.024 47.737,174.799 47.714,173.000 47.714 C 171.201 47.714,170.976 47.737,171.875 47.829 M101.661 49.209 C 100.993 50.688,101.034 50.667,98.886 50.667 C 96.816 50.667,96.600 50.562,96.975 49.739 C 97.241 49.154,97.058 49.239,96.744 49.845 C 96.301 50.701,96.571 50.833,98.757 50.833 C 99.792 50.833,100.764 50.786,100.915 50.727 C 101.173 50.628,102.255 48.533,102.119 48.397 C 102.085 48.362,101.879 48.728,101.661 49.209 M128.012 48.419 C 127.988 48.756,129.002 50.632,129.262 50.731 C 129.408 50.787,130.337 50.833,131.327 50.833 C 133.402 50.833,133.702 50.687,133.268 49.886 C 133.128 49.628,133.010 49.478,133.007 49.553 C 133.003 49.627,133.083 49.843,133.184 50.032 C 133.465 50.558,133.132 50.662,131.167 50.662 C 129.095 50.662,129.182 50.706,128.535 49.333 C 128.253 48.737,128.018 48.326,128.012 48.419 M32.667 49.333 C 32.162 49.600,31.809 49.821,31.881 49.825 C 32.058 49.836,33.667 49.015,33.667 48.914 C 33.667 48.803,33.690 48.793,32.667 49.333 M161.500 48.912 C 161.500 49.053,163.861 50.194,163.957 50.099 C 164.006 50.050,163.853 49.936,163.617 49.846 C 163.381 49.756,162.808 49.490,162.344 49.255 C 161.880 49.020,161.500 48.866,161.500 48.912 M183.000 49.333 C 182.496 49.600,182.142 49.821,182.214 49.825 C 182.391 49.836,184.000 49.015,184.000 48.914 C 184.000 48.803,184.023 48.793,183.000 49.333 M31.000 50.000 C 30.778 50.144,30.778 50.162,31.000 50.162 C 31.137 50.162,31.363 50.089,31.500 50.000 C 31.722 49.856,31.722 49.838,31.500 49.838 C 31.363 49.838,31.137 49.911,31.000 50.000 M29.750 50.333 C 29.296 50.449,29.289 50.461,29.667 50.469 C 29.896 50.473,30.233 50.412,30.417 50.333 C 30.828 50.157,30.444 50.157,29.750 50.333 M180.803 50.252 C 180.664 50.391,177.953 51.157,177.500 51.186 C 177.136 51.209,177.128 51.221,177.438 51.282 C 177.819 51.356,180.813 50.561,181.075 50.315 C 181.174 50.222,181.169 50.167,181.061 50.167 C 180.966 50.167,180.850 50.205,180.803 50.252 M165.500 50.750 C 165.821 50.874,166.233 50.975,166.417 50.976 C 166.600 50.977,166.412 50.871,166.000 50.741 C 165.058 50.445,164.722 50.450,165.500 50.750 M167.000 51.158 C 167.137 51.252,167.469 51.329,167.736 51.331 C 168.377 51.334,168.243 51.238,167.417 51.099 C 166.939 51.019,166.821 51.036,167.000 51.158 M168.917 51.498 C 169.422 51.629,171.114 51.718,170.986 51.606 C 170.948 51.573,170.354 51.506,169.667 51.457 C 168.934 51.405,168.624 51.422,168.917 51.498 M175.417 51.500 L 174.583 51.614 175.333 51.621 C 175.746 51.624,176.308 51.570,176.583 51.500 C 177.240 51.333,176.635 51.333,175.417 51.500 M172.377 51.786 C 172.631 51.825,173.006 51.824,173.211 51.784 C 173.416 51.744,173.208 51.713,172.750 51.714 C 172.292 51.716,172.124 51.748,172.377 51.786 M137.833 74.316 C 137.696 74.398,137.292 74.504,136.937 74.551 C 136.581 74.597,136.094 74.778,135.853 74.952 C 135.613 75.126,135.173 75.367,134.875 75.488 C 134.577 75.608,134.333 75.773,134.333 75.854 C 134.333 75.934,134.240 76.001,134.125 76.003 C 133.863 76.007,131.833 78.048,131.833 78.308 C 131.833 78.413,131.758 78.500,131.667 78.500 C 131.575 78.500,131.500 78.650,131.500 78.833 C 131.500 79.017,131.427 79.167,131.337 79.167 C 131.162 79.167,130.673 80.159,130.267 81.338 C 130.012 82.077,129.908 86.547,130.137 86.917 C 130.194 87.008,130.258 87.158,130.279 87.250 C 130.398 87.772,130.799 88.653,131.125 89.110 C 131.331 89.399,131.500 89.759,131.500 89.911 C 131.500 90.062,131.575 90.140,131.667 90.083 C 131.758 90.027,131.833 90.042,131.833 90.118 C 131.833 90.298,133.391 92.000,133.555 92.000 C 133.624 92.000,133.884 92.191,134.132 92.424 C 134.380 92.657,135.071 93.089,135.667 93.382 L 136.750 93.917 140.083 93.917 L 143.417 93.917 144.556 93.350 C 145.831 92.717,148.257 90.492,148.754 89.500 C 148.915 89.179,149.094 88.879,149.151 88.833 C 149.626 88.455,150.044 86.295,150.055 84.157 C 150.067 81.946,150.016 81.638,149.408 80.247 C 149.287 79.971,149.110 79.540,149.015 79.289 C 148.920 79.038,148.782 78.833,148.710 78.833 C 148.638 78.833,148.393 78.533,148.167 78.167 C 147.940 77.800,147.697 77.500,147.627 77.500 C 147.557 77.500,147.499 77.406,147.499 77.292 C 147.498 77.177,147.236 76.905,146.916 76.687 C 146.595 76.469,146.333 76.225,146.333 76.145 C 146.333 76.065,146.227 76.000,146.097 76.000 C 145.967 76.000,145.836 75.944,145.806 75.875 C 145.361 74.875,138.985 73.628,137.833 74.316 M340.667 74.343 C 340.667 74.429,340.610 74.481,340.542 74.458 C 340.274 74.370,338.625 74.915,338.547 75.119 C 338.501 75.237,338.322 75.333,338.149 75.333 C 337.975 75.333,337.833 75.390,337.833 75.459 C 337.833 75.529,337.615 75.682,337.348 75.800 C 336.807 76.040,335.000 77.711,335.000 77.972 C 335.000 78.064,334.941 78.164,334.868 78.194 C 334.611 78.303,333.833 79.452,333.833 79.724 C 333.833 79.876,333.758 80.000,333.667 80.000 C 333.575 80.000,333.500 80.183,333.500 80.407 C 333.500 80.631,333.425 80.860,333.333 80.917 C 333.242 80.973,333.167 81.240,333.167 81.510 C 333.167 81.779,333.088 82.000,332.993 82.000 C 332.880 82.000,332.827 82.811,332.843 84.333 C 332.856 85.617,332.934 86.667,333.016 86.667 C 333.099 86.667,333.167 86.929,333.167 87.250 C 333.167 87.571,333.224 87.833,333.295 87.833 C 333.365 87.833,333.606 88.259,333.831 88.778 C 334.055 89.298,334.410 89.895,334.619 90.104 C 334.829 90.314,335.000 90.517,335.000 90.556 C 335.000 90.649,336.351 92.000,336.444 92.000 C 336.484 92.000,336.687 92.184,336.896 92.410 C 337.257 92.800,338.108 93.251,338.375 93.194 C 338.444 93.179,338.500 93.242,338.500 93.333 C 338.500 93.425,338.635 93.500,338.800 93.500 C 338.965 93.500,339.194 93.594,339.308 93.708 C 339.900 94.302,347.500 93.943,347.500 93.322 C 347.500 93.264,347.800 93.082,348.167 92.917 C 348.533 92.751,348.833 92.552,348.833 92.475 C 348.833 92.397,348.913 92.333,349.011 92.333 C 349.259 92.333,351.333 90.160,351.333 89.900 C 351.333 89.848,351.560 89.489,351.836 89.104 C 352.291 88.470,352.501 87.956,352.541 87.375 C 352.549 87.260,352.611 87.167,352.678 87.167 C 352.829 87.167,353.003 85.856,353.082 84.125 C 353.115 83.404,353.073 82.833,352.987 82.833 C 352.903 82.833,352.833 82.532,352.833 82.164 C 352.833 81.796,352.765 81.365,352.681 81.206 C 352.598 81.047,352.400 80.550,352.242 80.103 C 352.085 79.655,351.815 79.149,351.644 78.978 C 351.473 78.807,351.333 78.610,351.333 78.542 C 351.333 78.283,349.572 76.333,349.338 76.333 C 349.244 76.333,349.167 76.277,349.167 76.208 C 349.167 76.139,348.810 75.897,348.375 75.670 C 347.940 75.444,347.538 75.195,347.483 75.118 C 347.428 75.041,347.278 74.962,347.150 74.943 C 347.022 74.923,346.828 74.852,346.719 74.784 C 346.012 74.342,340.667 73.952,340.667 74.343 M2.242 74.952 C 1.898 75.477,1.889 93.089,2.232 93.542 C 2.533 93.938,4.667 93.974,4.667 93.583 C 4.667 93.446,4.723 93.333,4.792 93.333 C 5.010 93.333,4.777 75.044,4.556 74.822 C 4.177 74.444,2.514 74.537,2.242 74.952 M36.580 74.837 C 36.357 75.083,36.331 76.270,36.371 84.434 L 36.417 93.750 37.750 93.750 L 39.083 93.750 39.127 87.292 C 39.155 83.178,39.230 80.833,39.335 80.833 C 39.426 80.833,39.500 80.946,39.500 81.083 C 39.500 81.221,39.575 81.333,39.667 81.333 C 39.758 81.333,39.833 81.411,39.833 81.505 C 39.833 81.600,40.190 82.039,40.625 82.481 C 41.793 83.667,42.333 84.266,42.333 84.374 C 42.333 84.426,42.676 84.833,43.096 85.276 C 43.515 85.720,44.153 86.396,44.512 86.778 C 44.872 87.160,45.167 87.518,45.167 87.574 C 45.167 87.630,45.504 88.013,45.917 88.425 C 46.329 88.838,46.668 89.230,46.669 89.296 C 46.670 89.362,47.195 89.961,47.835 90.626 C 48.476 91.292,49.000 91.907,49.000 91.995 C 49.000 92.082,49.372 92.531,49.827 92.993 C 50.714 93.895,51.663 94.177,51.669 93.542 C 51.739 86.095,51.624 74.941,51.476 74.782 C 51.257 74.546,49.521 74.614,49.208 74.870 C 49.048 75.001,49.000 76.507,49.000 81.362 L 49.000 87.682 48.588 87.383 C 48.361 87.218,48.134 86.964,48.085 86.819 C 48.035 86.673,47.677 86.222,47.289 85.816 C 46.901 85.411,46.410 84.855,46.197 84.581 C 45.985 84.307,45.330 83.558,44.741 82.917 C 43.346 81.396,42.003 79.783,42.001 79.625 C 42.001 79.556,41.920 79.500,41.821 79.500 C 41.585 79.500,41.342 79.241,40.701 78.304 C 40.408 77.876,39.829 77.163,39.415 76.721 C 37.197 74.354,37.085 74.279,36.580 74.837 M83.833 74.663 C 83.616 74.801,83.583 76.054,83.583 84.286 L 83.583 93.750 85.000 93.750 C 86.011 93.750,86.423 93.690,86.438 93.542 C 86.449 93.427,86.468 90.549,86.479 87.146 L 86.500 80.958 87.250 81.741 C 87.662 82.172,88.000 82.555,88.000 82.592 C 88.000 82.656,88.416 83.143,89.250 84.058 C 89.433 84.259,89.957 84.872,90.414 85.420 C 90.871 85.968,91.433 86.604,91.664 86.833 C 92.309 87.475,95.667 91.309,95.667 91.404 C 95.667 91.451,95.948 91.806,96.292 92.193 C 97.658 93.733,97.813 93.858,98.290 93.803 L 98.750 93.750 98.793 84.446 C 98.817 79.329,98.771 75.026,98.691 74.884 C 98.563 74.654,97.803 74.575,96.500 74.656 C 96.392 74.663,96.333 76.986,96.333 81.270 L 96.333 87.874 95.250 86.769 C 94.654 86.161,94.165 85.608,94.162 85.540 C 94.159 85.472,93.841 85.074,93.454 84.655 C 93.067 84.237,92.601 83.693,92.419 83.447 C 92.237 83.201,91.993 83.000,91.877 83.000 C 91.761 83.000,91.667 82.906,91.667 82.791 C 91.667 82.676,91.367 82.263,91.000 81.874 C 90.633 81.484,90.333 81.130,90.333 81.086 C 90.333 81.042,90.090 80.752,89.792 80.441 C 89.494 80.131,88.950 79.523,88.583 79.090 C 88.217 78.658,87.560 77.920,87.125 77.450 C 86.690 76.980,86.333 76.537,86.333 76.465 C 86.333 76.262,84.480 74.500,84.270 74.503 C 84.167 74.504,83.971 74.576,83.833 74.663 M172.991 74.742 C 172.781 74.952,172.788 75.833,173.000 75.833 C 173.092 75.833,173.167 75.947,173.167 76.086 C 173.167 76.224,173.236 76.468,173.320 76.627 C 173.561 77.083,174.112 78.379,174.239 78.792 C 174.303 78.998,174.426 79.167,174.511 79.167 C 174.597 79.167,174.667 79.354,174.667 79.583 C 174.667 79.813,174.742 80.000,174.833 80.000 C 174.925 80.000,175.000 80.188,175.000 80.417 C 175.000 80.646,175.075 80.833,175.167 80.833 C 175.258 80.833,175.333 81.021,175.333 81.250 C 175.333 81.479,175.408 81.667,175.500 81.667 C 175.592 81.667,175.667 81.817,175.667 82.000 C 175.667 82.183,175.725 82.333,175.797 82.333 C 175.869 82.333,175.944 82.540,175.965 82.792 C 175.986 83.044,176.077 83.275,176.168 83.306 C 176.259 83.336,176.333 83.505,176.333 83.681 C 176.333 83.856,176.408 84.000,176.500 84.000 C 176.592 84.000,176.667 84.183,176.667 84.407 C 176.667 84.631,176.742 84.860,176.833 84.917 C 176.925 84.973,177.000 85.165,177.000 85.343 C 177.000 85.521,177.075 85.667,177.167 85.667 C 177.258 85.667,177.336 85.798,177.339 85.958 C 177.342 86.119,177.454 86.396,177.589 86.574 C 177.723 86.751,177.833 87.033,177.833 87.199 C 177.833 87.364,177.908 87.500,178.000 87.500 C 178.092 87.500,178.167 87.650,178.167 87.833 C 178.167 88.017,178.242 88.167,178.333 88.167 C 178.425 88.167,178.500 88.280,178.500 88.419 C 178.500 88.558,178.575 88.820,178.667 89.002 C 178.758 89.184,178.908 89.482,179.000 89.664 C 179.092 89.846,179.167 90.102,179.167 90.232 C 179.167 90.362,179.313 90.757,179.492 91.109 C 180.110 92.327,180.500 93.230,180.500 93.445 C 180.500 93.690,181.214 93.915,181.565 93.780 C 181.693 93.731,181.996 93.254,182.239 92.720 C 182.481 92.187,182.752 91.620,182.840 91.461 C 182.928 91.301,183.000 91.093,183.000 90.996 C 183.000 90.900,183.128 90.626,183.285 90.386 C 183.442 90.147,183.594 89.793,183.623 89.601 C 183.652 89.408,183.749 89.225,183.838 89.194 C 183.927 89.164,184.002 88.976,184.004 88.778 C 184.006 88.579,184.154 88.229,184.333 88.000 C 184.513 87.771,184.661 87.377,184.663 87.125 C 184.665 86.873,184.724 86.667,184.794 86.667 C 184.928 86.667,185.500 85.450,185.500 85.166 C 185.500 85.074,185.561 85.000,185.637 85.000 C 185.712 85.000,185.875 84.625,186.000 84.167 C 186.125 83.708,186.288 83.333,186.363 83.333 C 186.439 83.333,186.500 83.188,186.500 83.010 C 186.500 82.832,186.575 82.640,186.667 82.583 C 186.758 82.527,186.833 82.335,186.833 82.157 C 186.833 81.979,186.908 81.833,187.000 81.833 C 187.092 81.833,187.167 81.686,187.167 81.505 C 187.167 81.325,187.317 80.910,187.500 80.583 C 187.683 80.257,187.833 79.880,187.833 79.745 C 187.833 79.610,187.908 79.500,188.000 79.500 C 188.092 79.500,188.167 79.394,188.167 79.264 C 188.167 79.133,188.275 78.815,188.407 78.555 C 189.263 76.876,189.681 75.761,189.635 75.282 L 189.583 74.750 188.429 74.667 C 187.154 74.575,187.008 74.646,186.676 75.527 C 186.560 75.833,186.314 76.421,186.128 76.833 C 185.943 77.246,185.717 77.771,185.626 78.000 C 185.535 78.229,185.395 78.547,185.314 78.706 C 185.233 78.865,185.167 79.109,185.167 79.248 C 185.167 79.386,185.092 79.500,185.000 79.500 C 184.908 79.500,184.833 79.650,184.833 79.833 C 184.833 80.017,184.758 80.167,184.667 80.167 C 184.575 80.167,184.500 80.265,184.500 80.385 C 184.500 80.506,184.336 80.937,184.135 81.344 C 183.934 81.750,183.756 82.158,183.739 82.250 C 183.705 82.431,183.067 83.905,182.820 84.373 C 182.736 84.532,182.667 84.776,182.667 84.914 C 182.667 85.053,182.592 85.167,182.500 85.167 C 182.408 85.167,182.333 85.280,182.333 85.419 C 182.333 85.558,182.267 85.801,182.186 85.961 C 182.105 86.120,181.946 86.475,181.833 86.750 C 181.720 87.025,181.562 87.380,181.481 87.539 C 181.400 87.699,181.324 87.961,181.314 88.123 C 181.294 88.422,181.204 88.173,180.925 87.042 C 180.852 86.744,180.726 86.500,180.646 86.500 C 180.566 86.500,180.500 86.350,180.500 86.167 C 180.500 85.983,180.425 85.833,180.333 85.833 C 180.242 85.833,180.167 85.720,180.167 85.581 C 180.167 85.442,180.098 85.199,180.014 85.039 C 179.645 84.342,179.167 83.150,179.167 82.928 C 179.167 82.795,179.092 82.640,179.000 82.583 C 178.908 82.527,178.833 82.344,178.833 82.177 C 178.833 82.011,178.722 81.781,178.585 81.668 C 178.449 81.555,178.373 81.404,178.417 81.333 C 178.460 81.262,178.385 81.112,178.248 80.998 C 178.112 80.885,178.000 80.652,178.000 80.480 C 178.000 80.307,177.925 80.167,177.833 80.167 C 177.742 80.167,177.667 79.984,177.667 79.760 C 177.667 79.536,177.592 79.307,177.500 79.250 C 177.408 79.193,177.333 79.001,177.333 78.823 C 177.333 78.646,177.272 78.500,177.197 78.500 C 177.122 78.500,176.958 78.125,176.833 77.667 C 176.709 77.208,176.545 76.833,176.470 76.833 C 176.395 76.833,176.333 76.688,176.333 76.510 C 176.333 76.332,176.258 76.140,176.167 76.083 C 176.075 76.027,176.000 75.835,176.000 75.657 C 176.000 75.479,175.912 75.333,175.806 75.333 C 175.699 75.333,175.658 75.287,175.714 75.230 C 175.771 75.173,175.721 75.030,175.603 74.912 C 175.346 74.655,173.216 74.516,172.991 74.742 M220.551 74.648 C 220.299 74.828,219.833 75.647,219.833 75.911 C 219.833 76.052,219.758 76.167,219.667 76.167 C 219.575 76.167,219.500 76.317,219.500 76.500 C 219.500 76.683,219.425 76.833,219.333 76.833 C 219.242 76.833,219.167 76.983,219.167 77.167 C 219.167 77.350,219.092 77.500,219.000 77.500 C 218.908 77.500,218.833 77.688,218.833 77.917 C 218.833 78.146,218.758 78.333,218.667 78.333 C 218.575 78.333,218.500 78.521,218.500 78.750 C 218.500 78.979,218.425 79.167,218.333 79.167 C 218.242 79.167,218.167 79.310,218.167 79.486 C 218.167 79.662,218.108 79.831,218.037 79.861 C 217.881 79.928,216.667 82.405,216.667 82.656 C 216.667 82.754,216.592 82.833,216.500 82.833 C 216.408 82.833,216.333 83.021,216.333 83.250 C 216.333 83.479,216.258 83.667,216.167 83.667 C 216.075 83.667,216.000 83.745,216.000 83.841 C 216.000 83.937,215.850 84.327,215.667 84.706 C 215.483 85.085,215.333 85.494,215.333 85.615 C 215.333 85.735,215.258 85.833,215.167 85.833 C 215.075 85.833,215.000 85.983,215.000 86.167 C 215.000 86.350,214.925 86.500,214.833 86.500 C 214.742 86.500,214.667 86.618,214.667 86.762 C 214.667 86.906,214.553 87.137,214.415 87.275 C 214.277 87.414,214.201 87.587,214.247 87.661 C 214.292 87.735,214.218 87.888,214.081 88.002 C 213.945 88.115,213.833 88.300,213.833 88.414 C 213.833 88.528,213.533 89.204,213.167 89.917 C 212.800 90.629,212.500 91.315,212.500 91.440 C 212.500 91.565,212.444 91.667,212.375 91.668 C 212.147 91.670,211.833 92.557,211.833 93.200 L 211.833 93.833 213.125 93.832 C 214.456 93.831,214.833 93.587,214.833 92.731 C 214.833 92.619,214.890 92.503,214.958 92.472 C 215.150 92.387,216.333 90.053,216.333 89.759 C 216.333 89.617,216.408 89.500,216.500 89.500 C 216.592 89.500,216.667 89.350,216.667 89.167 C 216.667 88.983,216.742 88.833,216.833 88.833 C 216.925 88.833,217.000 88.715,217.000 88.571 C 217.000 87.890,217.318 87.833,221.155 87.833 C 224.685 87.833,224.833 87.846,224.833 88.157 C 224.833 88.335,224.908 88.527,225.000 88.583 C 225.092 88.640,225.167 88.869,225.167 89.093 C 225.167 89.317,225.242 89.500,225.333 89.500 C 225.425 89.500,225.500 89.612,225.500 89.750 C 225.500 89.888,225.575 90.000,225.667 90.000 C 225.758 90.000,225.833 90.188,225.833 90.417 C 225.833 90.646,225.896 90.833,225.973 90.833 C 226.050 90.833,226.216 91.152,226.341 91.542 C 226.467 91.931,226.618 92.287,226.678 92.333 C 226.738 92.379,226.920 92.679,227.083 93.000 C 227.482 93.783,227.577 93.828,228.864 93.831 C 230.261 93.834,230.408 93.579,229.765 92.265 C 229.527 91.780,229.333 91.260,229.333 91.108 C 229.333 90.957,229.258 90.833,229.167 90.833 C 229.075 90.833,229.000 90.693,229.000 90.520 C 229.000 90.348,228.887 90.114,228.750 90.000 C 228.612 89.886,228.500 89.689,228.500 89.563 C 228.500 89.437,228.425 89.333,228.333 89.333 C 228.242 89.333,228.167 89.150,228.167 88.927 C 228.167 88.703,228.092 88.473,228.000 88.417 C 227.908 88.360,227.833 88.174,227.833 88.004 C 227.833 87.834,227.777 87.669,227.708 87.639 C 227.590 87.586,227.335 87.083,226.539 85.333 C 226.351 84.921,226.003 84.175,225.766 83.676 C 225.528 83.176,225.333 82.670,225.333 82.551 C 225.333 82.431,225.254 82.333,225.157 82.333 C 225.060 82.333,225.023 82.264,225.075 82.180 C 225.127 82.096,225.072 81.927,224.953 81.805 C 224.834 81.683,224.631 81.321,224.502 81.000 C 224.374 80.679,224.133 80.171,223.968 79.870 C 223.802 79.569,223.667 79.213,223.667 79.078 C 223.667 78.944,223.592 78.833,223.500 78.833 C 223.408 78.833,223.333 78.723,223.333 78.588 C 223.333 78.281,222.624 76.747,222.174 76.083 C 221.988 75.808,221.835 75.484,221.834 75.363 C 221.832 74.859,220.947 74.366,220.551 74.648 M258.744 74.886 C 258.472 75.203,258.432 76.833,258.696 76.833 C 258.772 76.833,258.815 76.927,258.792 77.042 C 258.761 77.197,259.250 77.262,260.707 77.297 L 262.664 77.344 262.707 85.547 L 262.750 93.750 264.020 93.798 C 265.638 93.860,265.495 94.693,265.498 85.208 L 265.500 77.333 267.481 77.333 C 269.723 77.333,269.662 77.375,269.662 75.833 C 269.661 74.595,269.959 74.661,264.197 74.620 C 259.358 74.586,258.985 74.604,258.744 74.886 M300.669 74.635 C 299.044 74.727,299.166 73.946,299.172 84.234 C 299.178 94.586,299.059 93.833,300.693 93.833 C 302.289 93.833,302.167 94.619,302.163 84.342 C 302.159 73.860,302.264 74.545,300.669 74.635 M384.333 74.820 C 384.116 75.049,384.089 76.304,384.126 84.372 L 384.169 93.661 384.552 93.757 C 384.762 93.810,385.343 93.830,385.842 93.802 L 386.750 93.750 386.794 87.375 C 386.818 83.869,386.899 81.000,386.975 81.000 C 387.127 81.000,388.765 82.804,389.164 83.412 C 389.303 83.624,389.877 84.249,390.440 84.801 C 391.002 85.353,391.490 85.879,391.523 85.970 C 391.592 86.160,392.827 87.625,393.611 88.447 C 393.901 88.751,394.107 89.000,394.067 89.000 C 393.996 89.000,395.095 90.210,396.125 91.267 C 396.423 91.572,396.667 91.881,396.668 91.953 C 396.671 92.249,398.333 93.833,398.641 93.833 C 399.539 93.833,399.489 94.390,399.494 84.359 C 399.496 79.257,399.433 74.982,399.354 74.858 C 399.165 74.564,397.266 74.543,396.919 74.831 C 396.702 75.012,396.666 75.928,396.663 81.395 L 396.659 87.750 396.086 87.083 C 395.770 86.717,395.228 86.117,394.879 85.750 C 394.531 85.383,394.067 84.831,393.849 84.523 C 393.630 84.216,392.967 83.466,392.374 82.857 C 391.781 82.248,391.086 81.450,390.829 81.083 C 390.573 80.717,389.974 80.004,389.499 79.500 C 389.024 78.996,388.436 78.324,388.193 78.007 C 387.949 77.689,387.394 77.070,386.958 76.629 C 386.523 76.189,386.167 75.768,386.167 75.694 C 386.167 75.152,384.687 74.446,384.333 74.820 M140.333 76.833 C 140.333 76.925,140.672 77.000,141.086 77.000 C 141.499 77.000,141.968 77.075,142.127 77.167 C 142.286 77.258,142.754 77.484,143.167 77.667 C 144.142 78.101,145.055 78.653,145.194 78.893 C 145.254 78.998,145.461 79.264,145.652 79.484 C 145.843 79.704,146.000 79.943,146.000 80.014 C 146.000 80.085,146.094 80.242,146.208 80.363 C 147.503 81.731,147.587 85.550,146.373 87.792 C 146.162 88.181,146.034 88.500,146.089 88.500 C 146.297 88.500,144.486 90.149,144.167 90.250 C 143.984 90.308,143.833 90.426,143.833 90.511 C 143.833 90.597,143.683 90.667,143.500 90.667 C 143.317 90.667,143.167 90.727,143.167 90.800 C 143.167 91.548,137.499 91.586,136.833 90.843 C 136.787 90.791,136.526 90.637,136.252 90.500 C 135.430 90.087,134.397 89.166,134.026 88.514 C 133.286 87.214,133.167 86.959,133.167 86.671 C 133.167 86.496,133.092 86.307,133.000 86.250 C 132.812 86.134,132.767 82.789,132.951 82.605 C 133.015 82.540,133.094 82.294,133.126 82.058 C 133.201 81.495,133.828 80.167,134.018 80.167 C 134.100 80.167,134.167 80.054,134.167 79.917 C 134.167 79.779,134.242 79.667,134.333 79.667 C 134.425 79.667,134.500 79.580,134.500 79.473 C 134.500 79.238,135.487 78.333,135.743 78.333 C 135.844 78.333,136.035 78.183,136.167 78.000 C 136.299 77.817,136.578 77.667,136.787 77.667 C 136.996 77.667,137.167 77.592,137.167 77.500 C 137.167 77.408,137.348 77.333,137.569 77.333 C 137.791 77.333,137.997 77.262,138.028 77.176 C 138.058 77.089,138.440 77.000,138.875 76.978 C 139.310 76.956,139.667 76.877,139.667 76.802 C 139.667 76.728,139.817 76.667,140.000 76.667 C 140.183 76.667,140.333 76.742,140.333 76.833 M344.125 76.948 C 344.515 76.995,344.833 77.101,344.833 77.183 C 344.833 77.266,345.014 77.333,345.234 77.333 C 345.675 77.333,347.000 77.982,347.000 78.198 C 347.000 78.272,347.122 78.333,347.272 78.333 C 347.552 78.333,347.881 78.653,348.643 79.667 C 348.884 79.987,349.119 80.287,349.166 80.333 C 349.247 80.414,349.423 80.783,349.800 81.667 C 350.194 82.593,350.449 84.951,350.183 85.217 C 350.082 85.318,350.000 85.536,350.000 85.703 C 350.000 86.146,349.606 87.333,349.459 87.333 C 349.390 87.333,349.333 87.483,349.333 87.667 C 349.333 87.850,349.258 88.000,349.167 88.000 C 349.075 88.000,349.000 88.114,349.000 88.254 C 349.000 88.529,347.611 90.000,347.352 90.000 C 347.265 90.000,347.169 90.059,347.139 90.131 C 347.030 90.387,346.027 91.000,345.716 91.000 C 345.542 91.000,345.313 91.087,345.206 91.194 C 344.928 91.472,340.925 91.450,340.586 91.169 C 340.447 91.054,340.333 91.008,340.333 91.068 C 340.333 91.198,338.864 90.401,338.486 90.066 C 338.342 89.938,338.173 89.883,338.111 89.944 C 338.050 90.005,338.000 89.943,338.000 89.805 C 338.000 89.668,337.794 89.360,337.542 89.121 C 336.917 88.530,336.667 88.212,336.667 88.011 C 336.667 87.918,336.517 87.596,336.334 87.296 C 336.151 86.996,336.001 86.586,336.001 86.385 C 336.000 86.184,335.930 85.977,335.845 85.924 C 335.161 85.501,335.989 81.191,336.996 79.933 C 337.697 79.059,338.831 78.000,339.067 78.000 C 339.213 78.000,339.333 77.937,339.333 77.860 C 339.333 77.783,339.652 77.620,340.042 77.498 C 340.431 77.375,340.821 77.213,340.908 77.138 C 340.995 77.062,341.347 77.000,341.690 77.000 C 342.033 77.000,342.364 76.918,342.426 76.818 C 342.493 76.710,342.718 76.682,342.978 76.749 C 343.219 76.812,343.735 76.901,344.125 76.948 M221.179 80.500 C 221.264 80.500,221.333 80.650,221.333 80.833 C 221.333 81.017,221.408 81.167,221.500 81.167 C 221.592 81.167,221.667 81.317,221.667 81.500 C 221.667 81.683,221.742 81.833,221.833 81.833 C 221.925 81.833,222.000 81.983,222.000 82.167 C 222.000 82.350,222.075 82.500,222.167 82.500 C 222.258 82.500,222.333 82.688,222.333 82.917 C 222.333 83.146,222.408 83.333,222.500 83.333 C 222.592 83.333,222.667 83.521,222.667 83.750 C 222.667 83.979,222.742 84.167,222.833 84.167 C 222.925 84.167,223.000 84.279,223.000 84.417 C 223.000 84.554,223.075 84.667,223.167 84.667 C 223.258 84.667,223.333 84.779,223.333 84.917 C 223.333 85.127,222.962 85.167,220.989 85.167 L 218.644 85.167 218.761 84.792 C 218.825 84.585,218.935 84.394,219.006 84.366 C 219.077 84.339,219.233 83.982,219.354 83.575 C 219.474 83.167,219.631 82.833,219.703 82.833 C 219.775 82.833,219.833 82.728,219.833 82.599 C 219.833 82.321,220.528 80.941,220.708 80.861 C 220.777 80.831,220.842 80.606,220.853 80.361 C 220.865 80.079,220.900 80.023,220.948 80.208 C 220.990 80.369,221.094 80.500,221.179 80.500 " stroke="none" fill="#6a6970" fill-rule="evenodd"></path><path id="path4" d="M172.047 11.623 C 172.485 11.657,173.160 11.657,173.547 11.622 C 173.934 11.587,173.575 11.559,172.750 11.559 C 171.925 11.560,171.609 11.588,172.047 11.623 M168.917 11.833 L 168.417 11.961 168.917 11.971 C 169.192 11.976,169.717 11.919,170.083 11.843 L 170.750 11.705 170.083 11.706 C 169.717 11.706,169.192 11.763,168.917 11.833 M175.333 11.833 C 175.563 11.907,176.012 11.967,176.333 11.967 C 176.861 11.967,176.877 11.954,176.500 11.833 C 176.271 11.760,175.821 11.700,175.500 11.700 C 174.972 11.700,174.956 11.713,175.333 11.833 M167.250 12.167 L 166.917 12.310 167.250 12.310 C 167.433 12.310,167.733 12.245,167.917 12.167 L 168.250 12.023 167.917 12.023 C 167.733 12.023,167.433 12.088,167.250 12.167 M177.417 12.167 C 177.600 12.245,177.938 12.310,178.167 12.310 C 178.546 12.310,178.554 12.297,178.250 12.167 C 178.067 12.088,177.729 12.023,177.500 12.023 C 177.120 12.023,177.113 12.036,177.417 12.167 M165.531 12.614 C 165.136 12.754,164.846 12.902,164.887 12.943 C 164.929 12.984,165.402 12.869,165.940 12.688 C 166.477 12.506,166.767 12.358,166.583 12.358 C 166.400 12.359,165.927 12.474,165.531 12.614 M179.917 12.805 C 182.859 13.856,185.378 15.412,187.395 17.422 C 189.533 19.553,189.527 19.502,187.818 20.792 C 186.378 21.878,186.556 21.902,185.162 20.435 C 183.457 18.640,179.220 15.955,178.481 16.201 C 178.386 16.232,178.912 16.504,179.648 16.805 C 181.545 17.581,183.346 18.814,184.949 20.435 C 186.595 22.099,186.428 22.079,188.042 20.818 C 189.565 19.628,189.565 19.628,188.526 18.384 C 186.256 15.666,181.970 12.942,179.167 12.435 C 178.846 12.377,179.183 12.543,179.917 12.805 M15.916 12.693 C 15.869 12.816,15.850 21.392,15.874 31.750 L 15.917 50.583 21.917 50.586 L 27.917 50.590 21.958 50.543 L 16.000 50.496 16.000 31.581 L 16.000 12.667 20.708 12.668 C 25.109 12.669,27.347 12.832,29.000 13.272 C 29.229 13.333,29.364 13.326,29.301 13.256 C 28.748 12.652,16.134 12.122,15.916 12.693 M60.913 12.672 C 60.851 12.773,60.845 12.901,60.900 12.956 C 60.955 13.011,61.000 12.968,61.000 12.861 C 61.000 12.725,61.528 12.667,62.750 12.667 L 64.500 12.667 64.503 29.625 C 64.504 38.952,64.564 46.676,64.636 46.790 C 64.737 46.948,66.453 47.007,71.925 47.040 L 79.083 47.083 79.131 48.792 L 79.178 50.500 70.206 50.500 C 63.257 50.500,61.184 50.453,61.013 50.292 C 60.834 50.124,60.806 50.132,60.868 50.333 C 60.935 50.552,62.106 50.583,70.097 50.583 L 79.250 50.583 79.250 48.750 L 79.250 46.917 72.000 46.833 L 64.750 46.750 64.667 29.667 L 64.583 12.583 62.805 12.536 C 61.643 12.505,60.987 12.553,60.913 12.672 M114.549 12.708 C 114.462 12.823,114.254 13.217,114.087 13.583 C 113.920 13.950,113.532 14.769,113.225 15.403 C 112.918 16.037,112.699 16.588,112.738 16.627 C 112.812 16.701,114.500 13.219,114.500 12.993 C 114.500 12.847,114.925 12.667,115.272 12.667 C 115.412 12.667,115.770 13.201,116.113 13.923 C 116.811 15.392,117.046 15.512,116.396 14.067 C 115.723 12.572,115.037 12.067,114.549 12.708 M211.783 12.606 C 211.506 12.883,211.652 50.459,211.930 50.566 C 212.273 50.697,215.060 50.697,215.403 50.566 C 215.639 50.475,215.667 49.564,215.667 41.992 C 215.667 37.263,215.732 33.479,215.814 33.429 C 215.895 33.379,216.285 33.693,216.680 34.127 C 217.483 35.009,221.533 39.314,224.084 41.997 C 225.000 42.961,226.800 44.869,228.084 46.237 C 229.367 47.605,230.836 49.163,231.348 49.700 L 232.280 50.676 234.668 50.630 C 236.171 50.601,237.078 50.517,237.115 50.406 C 237.147 50.308,236.216 49.216,235.045 47.979 C 232.291 45.068,225.498 37.845,224.420 36.680 C 223.960 36.183,222.898 35.058,222.060 34.180 C 217.395 29.292,217.654 29.695,218.625 28.830 C 219.196 28.320,222.141 25.590,224.833 23.075 C 225.429 22.518,226.592 21.434,227.417 20.667 C 228.242 19.899,229.479 18.741,230.167 18.092 C 230.854 17.443,232.410 15.986,233.624 14.855 C 234.838 13.723,235.790 12.731,235.739 12.649 C 235.688 12.567,234.545 12.501,233.198 12.502 L 230.750 12.504 229.833 13.382 C 229.329 13.864,228.242 14.890,227.417 15.660 C 226.592 16.431,225.354 17.593,224.667 18.241 C 217.168 25.317,216.150 26.250,215.938 26.250 C 215.803 26.250,215.727 24.339,215.667 19.417 L 215.583 12.583 213.741 12.537 C 212.728 12.511,211.847 12.542,211.783 12.606 M215.459 19.500 C 215.482 23.212,215.537 26.347,215.581 26.466 C 215.724 26.848,215.943 26.676,218.917 23.851 C 219.651 23.154,220.738 22.138,221.334 21.594 C 221.929 21.050,223.131 19.925,224.003 19.094 C 226.780 16.450,230.370 13.094,230.648 12.882 C 230.964 12.642,235.500 12.578,235.500 12.814 C 235.500 12.895,235.181 13.244,234.792 13.589 C 234.402 13.934,233.071 15.161,231.834 16.316 C 228.810 19.140,227.469 20.383,227.233 20.583 C 227.125 20.675,226.447 21.317,225.727 22.009 C 225.006 22.702,222.935 24.639,221.125 26.314 C 217.424 29.738,217.524 29.552,218.699 30.817 C 221.264 33.580,221.953 34.316,224.184 36.675 C 225.523 38.091,226.873 39.523,227.184 39.857 C 228.999 41.804,231.962 44.960,233.333 46.407 C 237.706 51.022,237.547 50.500,234.584 50.500 L 232.390 50.500 231.207 49.292 C 230.557 48.627,229.785 47.821,229.492 47.500 C 229.199 47.179,227.824 45.717,226.438 44.250 C 225.052 42.783,223.355 40.986,222.667 40.256 C 221.979 39.527,221.229 38.738,221.000 38.505 C 220.771 38.271,219.544 36.974,218.274 35.623 C 217.004 34.272,215.861 33.167,215.734 33.167 C 215.541 33.167,215.496 34.577,215.460 41.792 L 215.417 50.417 213.667 50.417 L 211.917 50.417 211.874 31.750 C 211.850 21.483,211.868 12.987,211.912 12.869 C 211.973 12.709,212.429 12.667,213.705 12.702 L 215.417 12.750 215.459 19.500 M162.943 13.741 C 158.253 16.115,154.608 20.306,153.017 25.153 C 152.825 25.741,152.672 26.341,152.679 26.486 C 152.685 26.631,152.897 26.113,153.150 25.333 C 154.801 20.235,158.370 16.163,163.330 13.716 C 164.111 13.331,164.673 13.012,164.579 13.008 C 164.485 13.004,163.749 13.334,162.943 13.741 M30.667 13.945 C 33.239 15.192,35.020 17.760,35.388 20.750 C 35.435 21.127,35.456 21.077,35.475 20.545 C 35.566 17.983,31.776 13.308,29.630 13.336 C 29.513 13.338,29.979 13.612,30.667 13.945 M170.083 15.488 C 169.808 15.552,170.671 15.572,172.000 15.533 C 174.248 15.467,175.500 15.586,177.833 16.087 L 178.250 16.176 177.833 15.994 C 176.553 15.435,171.686 15.118,170.083 15.488 M167.692 16.021 C 167.110 16.205,166.670 16.392,166.714 16.436 C 166.758 16.481,167.272 16.368,167.856 16.185 C 168.439 16.003,169.067 15.820,169.250 15.779 C 169.513 15.721,169.495 15.703,169.167 15.695 C 168.938 15.690,168.274 15.836,167.692 16.021 M117.175 16.022 C 117.159 16.224,118.035 18.021,118.112 17.944 C 118.154 17.901,117.962 17.428,117.686 16.892 C 117.409 16.355,117.179 15.964,117.175 16.022 M19.685 16.395 C 19.365 16.780,19.508 28.407,19.833 28.430 C 19.977 28.441,19.995 28.419,19.875 28.379 C 19.714 28.325,19.667 26.981,19.667 22.412 L 19.667 16.515 20.283 16.399 C 20.623 16.336,22.179 16.321,23.742 16.367 C 25.305 16.412,26.208 16.392,25.750 16.323 C 24.210 16.088,19.897 16.140,19.685 16.395 M27.373 16.733 C 29.141 17.251,30.095 17.943,30.850 19.250 C 31.114 19.708,31.331 19.988,31.332 19.872 C 31.340 18.742,28.892 16.773,27.236 16.578 C 26.600 16.503,26.603 16.507,27.373 16.733 M164.917 17.183 C 162.260 18.535,157.602 22.991,158.210 23.599 C 158.250 23.639,158.556 23.230,158.889 22.690 C 160.095 20.735,162.472 18.666,165.083 17.297 C 165.908 16.864,166.508 16.509,166.417 16.507 C 166.325 16.506,165.650 16.810,164.917 17.183 M111.935 18.101 C 111.600 18.806,111.359 19.414,111.398 19.454 C 111.438 19.493,111.741 18.947,112.072 18.239 C 112.404 17.532,112.645 16.923,112.609 16.887 C 112.573 16.850,112.269 17.397,111.935 18.101 M118.510 18.852 C 118.491 19.042,119.519 21.203,119.593 21.129 C 119.633 21.089,119.409 20.537,119.093 19.903 C 118.778 19.269,118.516 18.796,118.510 18.852 M110.692 20.775 C 110.394 21.379,110.182 21.904,110.221 21.943 C 110.260 21.982,110.532 21.516,110.825 20.908 C 111.118 20.300,111.330 19.774,111.296 19.740 C 111.261 19.706,110.989 20.171,110.692 20.775 M31.417 21.928 C 31.417 22.878,31.468 23.527,31.530 23.370 C 31.684 22.980,31.691 20.630,31.539 20.392 C 31.472 20.286,31.417 20.977,31.417 21.928 M114.010 22.761 C 113.546 23.730,113.167 24.552,113.167 24.589 C 113.167 24.625,112.791 25.419,112.331 26.353 C 111.872 27.288,111.533 28.088,111.577 28.133 C 111.622 28.177,111.801 27.884,111.976 27.482 C 112.850 25.471,114.998 21.167,115.127 21.167 C 115.208 21.167,115.490 21.635,115.754 22.208 C 116.711 24.292,118.646 28.247,118.656 28.142 C 118.667 28.029,117.970 26.504,116.325 23.042 C 115.125 20.518,115.086 20.513,114.010 22.761 M119.675 21.370 C 119.660 21.593,120.523 23.365,120.607 23.282 C 120.652 23.237,120.462 22.761,120.186 22.225 C 119.909 21.689,119.679 21.304,119.675 21.370 M109.337 23.620 C 108.466 25.417,108.141 26.167,108.231 26.167 C 108.338 26.167,110.182 22.293,110.110 22.221 C 110.075 22.186,109.727 22.816,109.337 23.620 M35.358 23.167 C 35.333 23.678,35.135 24.464,34.750 25.583 C 34.658 25.852,34.670 25.868,34.815 25.667 C 35.128 25.231,35.521 23.655,35.453 23.109 L 35.387 22.583 35.358 23.167 M30.839 24.654 C 30.369 25.658,29.197 26.823,28.083 27.392 C 27.625 27.626,27.337 27.821,27.443 27.826 C 28.482 27.867,31.849 24.460,31.305 23.916 C 31.260 23.871,31.051 24.203,30.839 24.654 M157.567 24.771 C 157.339 25.286,157.181 25.736,157.216 25.771 C 157.250 25.806,157.473 25.384,157.710 24.834 C 157.947 24.283,158.106 23.833,158.062 23.833 C 158.018 23.833,157.795 24.255,157.567 24.771 M121.012 24.204 C 121.006 24.271,121.225 24.814,121.500 25.412 C 122.626 27.862,123.408 29.537,125.000 32.917 C 126.803 36.740,127.210 37.617,127.353 37.981 C 127.439 38.200,127.545 38.344,127.589 38.300 C 127.657 38.231,126.746 36.228,122.955 28.114 C 121.772 25.581,121.025 24.079,121.012 24.204 M33.906 26.952 C 33.545 27.475,32.764 28.295,32.171 28.773 C 30.744 29.922,30.723 29.848,32.760 30.830 C 35.041 31.931,36.480 33.271,37.505 35.250 C 37.884 35.983,38.144 36.396,38.081 36.167 C 37.427 33.784,34.873 31.354,31.789 30.182 C 31.361 30.019,31.139 29.500,31.497 29.500 C 31.798 29.500,33.913 27.379,34.303 26.685 C 34.845 25.721,34.676 25.834,33.906 26.952 M156.917 26.333 C 156.854 26.530,156.840 26.729,156.886 26.775 C 156.932 26.821,157.021 26.697,157.083 26.500 C 157.146 26.303,157.160 26.104,157.114 26.058 C 157.068 26.012,156.979 26.136,156.917 26.333 M107.166 28.207 C 106.679 29.239,105.197 32.371,103.874 35.167 C 102.550 37.962,101.239 40.737,100.958 41.333 C 100.678 41.929,99.897 43.572,99.223 44.984 C 98.548 46.397,98.029 47.584,98.068 47.624 C 98.135 47.691,98.391 47.178,99.751 44.250 C 100.049 43.608,100.864 41.892,101.563 40.436 C 102.262 38.980,102.833 37.770,102.833 37.746 C 102.833 37.722,103.386 36.551,104.062 35.143 C 107.014 28.995,108.185 26.463,108.112 26.390 C 108.080 26.358,107.654 27.175,107.166 28.207 M152.409 27.576 C 152.345 28.001,152.334 28.390,152.384 28.440 C 152.434 28.490,152.527 28.183,152.591 27.758 C 152.655 27.332,152.666 26.944,152.616 26.894 C 152.566 26.844,152.473 27.151,152.409 27.576 M156.583 27.500 C 156.520 27.788,156.506 28.061,156.552 28.107 C 156.597 28.153,156.687 27.955,156.750 27.667 C 156.813 27.379,156.828 27.105,156.782 27.059 C 156.736 27.014,156.647 27.212,156.583 27.500 M26.167 28.026 C 25.754 28.112,24.779 28.243,24.000 28.318 C 22.649 28.447,22.630 28.455,23.583 28.477 C 24.556 28.499,26.919 28.137,27.122 27.934 C 27.242 27.813,27.141 27.823,26.167 28.026 M110.949 29.258 C 110.337 30.506,110.394 30.654,111.019 29.442 C 111.296 28.905,111.494 28.439,111.460 28.405 C 111.426 28.371,111.196 28.755,110.949 29.258 M156.273 29.107 C 156.134 30.115,156.153 33.734,156.301 34.566 C 156.365 34.923,156.417 33.667,156.417 31.774 C 156.417 27.956,156.421 28.028,156.273 29.107 M119.028 29.144 C 119.285 29.812,121.403 34.152,121.450 34.106 C 121.483 34.073,121.126 33.229,120.657 32.231 C 120.189 31.233,119.659 30.098,119.482 29.708 C 119.214 29.123,118.841 28.659,119.028 29.144 M152.134 30.458 C 152.089 31.077,152.104 32.071,152.167 32.667 C 152.263 33.570,152.287 33.384,152.308 31.542 C 152.336 29.139,152.262 28.682,152.134 30.458 M110.100 31.017 C 109.953 31.312,109.864 31.586,109.904 31.626 C 109.943 31.665,110.099 31.459,110.250 31.167 C 110.401 30.875,110.489 30.600,110.446 30.557 C 110.403 30.514,110.247 30.721,110.100 31.017 M108.854 33.687 C 108.378 34.709,108.015 35.571,108.047 35.603 C 108.080 35.635,108.495 34.825,108.970 33.803 C 109.445 32.781,109.807 31.919,109.776 31.887 C 109.744 31.855,109.329 32.665,108.854 33.687 M19.700 32.367 C 19.488 32.578,19.395 46.198,19.601 46.736 C 19.713 47.027,25.013 47.099,27.083 46.837 C 27.699 46.760,26.483 46.719,23.917 46.731 L 19.750 46.750 19.750 39.583 L 19.750 32.417 20.917 32.366 C 24.664 32.204,28.635 32.730,30.603 33.651 C 35.834 36.099,35.928 43.240,30.763 45.754 C 30.114 46.070,29.678 46.329,29.793 46.331 C 30.794 46.344,33.169 44.375,33.953 42.882 C 36.075 38.839,34.112 34.631,29.295 32.898 C 27.603 32.289,20.188 31.879,19.700 32.367 M121.507 34.458 C 121.516 34.625,122.151 35.779,122.160 35.645 C 122.171 35.473,121.669 34.333,121.581 34.333 C 121.536 34.333,121.503 34.390,121.507 34.458 M152.370 34.750 C 152.368 35.025,152.427 35.438,152.500 35.667 L 152.633 36.083 152.630 35.667 C 152.629 35.438,152.570 35.025,152.500 34.750 L 152.373 34.250 152.370 34.750 M156.514 35.583 C 156.509 35.767,156.578 36.029,156.667 36.167 C 156.881 36.498,156.881 36.082,156.667 35.583 L 156.523 35.250 156.514 35.583 M122.215 36.042 C 122.545 36.858,124.568 40.988,124.615 40.940 C 124.648 40.908,124.327 40.139,123.902 39.232 C 123.477 38.325,122.955 37.190,122.741 36.708 C 122.416 35.978,121.952 35.389,122.215 36.042 M152.686 36.439 C 152.658 36.951,153.436 39.194,154.183 40.759 C 155.858 44.266,159.072 47.608,162.365 49.266 C 164.095 50.137,163.934 49.941,162.045 48.875 C 157.378 46.243,154.039 41.751,152.784 36.417 C 152.710 36.102,152.704 36.103,152.686 36.439 M156.841 36.686 C 156.781 38.691,160.675 43.704,163.728 45.552 C 167.178 47.640,173.840 48.810,176.250 47.750 C 176.444 47.665,173.680 47.829,173.386 47.920 C 173.004 48.038,169.899 47.661,168.417 47.316 C 163.360 46.139,159.165 42.428,157.239 37.427 C 157.025 36.871,156.846 36.538,156.841 36.686 M38.190 36.917 C 38.190 37.100,38.255 37.400,38.333 37.583 L 38.477 37.917 38.477 37.583 C 38.477 37.400,38.412 37.100,38.333 36.917 L 38.190 36.583 38.190 36.917 M106.697 38.194 C 106.425 38.775,105.774 40.150,105.251 41.250 C 102.238 47.592,101.333 49.536,101.344 49.646 C 101.358 49.788,102.653 47.189,103.784 44.750 C 104.294 43.650,105.302 41.520,106.024 40.016 C 106.746 38.512,107.305 37.249,107.265 37.210 C 107.226 37.170,106.970 37.613,106.697 38.194 M38.562 39.750 C 38.563 40.758,38.590 41.149,38.623 40.619 C 38.657 40.088,38.656 39.263,38.623 38.786 C 38.589 38.308,38.562 38.742,38.562 39.750 M128.011 39.193 C 128.005 39.253,128.346 40.041,128.769 40.943 C 129.191 41.845,129.717 42.989,129.937 43.484 C 130.158 43.979,130.375 44.348,130.420 44.303 C 130.465 44.258,130.216 43.627,129.867 42.902 C 128.286 39.619,128.022 39.090,128.011 39.193 M124.893 41.708 C 125.415 42.934,128.061 48.328,128.114 48.275 C 128.165 48.224,127.719 47.257,125.433 42.458 C 124.827 41.186,124.443 40.653,124.893 41.708 M38.250 42.167 C 38.187 42.455,38.172 42.728,38.218 42.774 C 38.264 42.820,38.353 42.621,38.417 42.333 C 38.480 42.045,38.494 41.772,38.448 41.726 C 38.403 41.680,38.313 41.879,38.250 42.167 M185.410 42.677 C 184.269 43.842,182.488 45.178,181.000 45.984 C 179.614 46.736,179.520 46.915,180.872 46.230 C 181.733 45.794,182.794 45.138,183.401 44.667 C 184.298 43.970,185.742 42.631,186.145 42.122 C 186.578 41.576,186.236 41.834,185.410 42.677 M186.667 41.887 C 186.667 41.939,187.229 42.405,187.917 42.922 C 189.436 44.065,189.434 43.926,187.958 45.451 C 186.307 47.157,184.906 48.178,182.803 49.207 C 181.824 49.686,181.049 50.105,181.081 50.137 C 181.484 50.540,186.070 47.578,187.949 45.701 C 189.617 44.036,189.613 44.080,188.208 42.983 C 186.678 41.788,186.667 41.780,186.667 41.887 M37.437 44.393 C 36.546 46.267,34.659 48.149,32.683 49.138 C 31.920 49.521,31.381 49.833,31.485 49.833 C 32.332 49.833,35.194 47.837,36.330 46.454 C 36.985 45.657,38.295 43.234,38.146 43.095 C 38.112 43.062,37.793 43.646,37.437 44.393 M130.507 44.537 C 130.497 44.716,131.330 46.500,131.424 46.500 C 131.519 46.500,131.155 45.601,130.778 44.905 C 130.632 44.636,130.510 44.471,130.507 44.537 M28.500 46.500 L 28.083 46.633 28.500 46.638 C 28.729 46.641,29.067 46.579,29.250 46.500 L 29.583 46.357 29.250 46.362 C 29.067 46.364,28.729 46.427,28.500 46.500 M131.512 46.697 C 131.505 46.759,131.837 47.537,132.250 48.426 C 133.271 50.626,133.336 50.500,131.187 50.500 C 129.495 50.500,129.356 50.475,129.112 50.125 C 128.969 49.919,128.847 49.838,128.842 49.946 C 128.817 50.503,129.340 50.667,131.137 50.664 C 133.583 50.661,133.537 50.738,132.443 48.481 C 131.938 47.437,131.519 46.634,131.512 46.697 M179.315 46.740 C 179.275 46.781,178.606 47.002,177.829 47.232 C 177.052 47.461,176.529 47.653,176.667 47.658 C 177.007 47.670,179.068 47.074,179.446 46.854 C 179.613 46.756,179.669 46.675,179.569 46.672 C 179.470 46.669,179.356 46.700,179.315 46.740 M97.340 48.986 C 96.550 50.619,96.594 50.667,98.886 50.667 C 100.718 50.667,101.733 50.344,101.290 49.901 C 101.237 49.848,101.110 49.961,101.008 50.152 C 100.836 50.474,100.677 50.500,98.911 50.500 C 96.695 50.500,96.726 50.534,97.511 48.978 C 97.792 48.422,97.993 47.938,97.958 47.903 C 97.923 47.868,97.645 48.355,97.340 48.986 M30.637 49.919 C 30.590 49.965,30.034 50.107,29.401 50.232 C 28.768 50.358,28.438 50.469,28.667 50.478 C 28.896 50.487,29.518 50.393,30.049 50.267 C 31.008 50.042,31.452 49.833,30.972 49.833 C 30.835 49.833,30.684 49.872,30.637 49.919 M163.833 49.901 C 163.833 50.150,167.500 51.253,167.884 51.119 C 167.994 51.081,167.821 50.996,167.500 50.929 C 166.941 50.813,164.475 50.074,164.042 49.893 C 163.927 49.845,163.833 49.848,163.833 49.901 M180.167 50.333 C 179.944 50.477,179.944 50.495,180.167 50.495 C 180.304 50.495,180.529 50.422,180.667 50.333 C 180.889 50.190,180.889 50.172,180.667 50.172 C 180.529 50.172,180.304 50.244,180.167 50.333 M179.083 50.667 C 178.873 50.757,178.842 50.810,179.000 50.810 C 179.137 50.810,179.400 50.745,179.583 50.667 C 179.793 50.576,179.824 50.523,179.667 50.523 C 179.529 50.523,179.267 50.588,179.083 50.667 M177.667 51.000 L 177.250 51.133 177.667 51.138 C 177.896 51.141,178.233 51.079,178.417 51.000 L 178.750 50.857 178.417 50.862 C 178.233 50.864,177.896 50.927,177.667 51.000 M168.833 51.342 C 169.246 51.415,169.846 51.471,170.167 51.467 C 170.707 51.459,170.695 51.448,170.000 51.325 C 169.587 51.251,168.987 51.195,168.667 51.200 C 168.126 51.208,168.139 51.218,168.833 51.342 M175.417 51.333 L 174.750 51.453 175.333 51.467 C 175.654 51.474,176.217 51.419,176.583 51.343 L 177.250 51.205 176.667 51.209 C 176.346 51.212,175.783 51.268,175.417 51.333 M171.875 51.623 C 172.402 51.656,173.265 51.656,173.792 51.623 C 174.319 51.590,173.887 51.563,172.833 51.563 C 171.779 51.563,171.348 51.590,171.875 51.623 " stroke="none" fill="#7c8484" fill-rule="evenodd"></path></g></svg>