<?xml version="1.0" encoding="UTF-8"?>
<svg version="1.1" xmlns="http://www.w3.org/2000/svg" width="260" height="154">
<path d="M0 0 C85.8 0 171.6 0 260 0 C260 10.23 260 20.46 260 31 C174.2 31 88.4 31 0 31 C0 20.77 0 10.54 0 0 Z " fill="#CF1341" transform="translate(0,123)"/>
<path d="M0 0 C5.67420636 -0.07460523 11.34812208 -0.12881608 17.02270508 -0.16479492 C18.94983906 -0.17980652 20.87693932 -0.20022216 22.80395508 -0.22631836 C25.58683639 -0.26303943 28.36926288 -0.27980292 31.15234375 -0.29296875 C32.00271713 -0.30845261 32.85309052 -0.32393646 33.72923279 -0.33988953 C40.96452053 -0.34188846 47.42698383 0.70070895 52.9375 5.625 C56.97399895 12.2301801 57.65209413 18.50203433 56 26 C54.4375 28.5 54.4375 28.5 53 30 C54.20381448 32.49361571 55.45428722 34.68143083 57 37 C59.27390016 44.06105839 59.70919183 49.93034013 56.4375 56.75 C53.80115458 60.7540563 50.47976304 62.47133955 46 64 C42.44271226 64.50021592 38.96146887 64.46914125 35.375 64.390625 C34.38749756 64.38496521 33.39999512 64.37930542 32.38256836 64.37347412 C29.25453482 64.35123369 26.12768239 64.30106027 23 64.25 C20.86850622 64.22991907 18.73699434 64.2116711 16.60546875 64.1953125 C11.40324858 64.15140973 6.2017087 64.08462275 1 64 C-0.07619365 60.77141906 -0.12052496 58.45460721 -0.11352539 55.05981445 C-0.11344986 53.83877518 -0.11337433 52.6177359 -0.11329651 51.35969543 C-0.10813522 50.04087875 -0.10297394 48.72206207 -0.09765625 47.36328125 C-0.0957908 45.99993441 -0.0943675 44.63658689 -0.09336853 43.27323914 C-0.08955332 39.68771509 -0.07973155 36.10223165 -0.06866455 32.51672363 C-0.05842901 28.8568578 -0.05386632 25.1969854 -0.04882812 21.53710938 C-0.03810838 14.35805442 -0.02104393 7.1790329 0 0 Z M20 17 C20 18.98 20 20.96 20 23 C22.12493141 23.02693575 24.24995912 23.04636628 26.375 23.0625 C28.15003906 23.07990234 28.15003906 23.07990234 29.9609375 23.09765625 C32.91921521 23.21466593 32.91921521 23.21466593 35 22 C35.65213292 19.97536745 35.65213292 19.97536745 36 18 C32.57767028 16.85922343 29.91326783 16.90184883 26.3125 16.9375 C25.13300781 16.94652344 23.95351562 16.95554687 22.73828125 16.96484375 C21.38283203 16.98224609 21.38283203 16.98224609 20 17 Z M20 40 C20 42.31 20 44.62 20 47 C22.27024968 47.08097324 24.54132075 47.13917704 26.8125 47.1875 C28.70935547 47.23970703 28.70935547 47.23970703 30.64453125 47.29296875 C33.92690647 47.28130054 33.92690647 47.28130054 35.94921875 45.67578125 C37.26562049 43.90605208 37.26562049 43.90605208 37 41 C33.93466836 39.46733418 30.73245728 39.89723529 27.375 39.9375 C26.31539062 39.94426758 26.31539062 39.94426758 25.234375 39.95117188 C23.48954725 39.96296125 21.744763 39.98089676 20 40 Z " fill="#002C5F" transform="translate(69,54)"/>
<path d="M0 0 C5.919375 -0.061875 11.83875 -0.12375 17.9375 -0.1875 C20.71208618 -0.22846802 20.71208618 -0.22846802 23.54272461 -0.27026367 C25.03759105 -0.2790398 26.53246477 -0.28668105 28.02734375 -0.29296875 C29.15662292 -0.3159906 29.15662292 -0.3159906 30.30871582 -0.33947754 C38.97093919 -0.34366421 45.93963298 2.08520958 52.26953125 8.0234375 C55.16267247 11.32801867 58 15.47562248 58 20 C58.66 20 59.32 20 60 20 C62.20933222 29.35402755 62.48371495 41.28580316 58 50 C53.23378511 56.74424667 48.20571635 61.24141666 40 63 C37.09040622 63.08378506 34.20578759 63.11617895 31.296875 63.09765625 C30.04019012 63.09553383 30.04019012 63.09553383 28.75811768 63.09336853 C26.08870843 63.08778197 23.4193838 63.07523194 20.75 63.0625 C18.93750121 63.05748326 17.12500111 63.05292066 15.3125 63.04882812 C10.87496752 63.03781694 6.43749809 63.02056155 2 63 C2 62.34 2 61.68 2 61 C1.34 60.67 0.68 60.34 0 60 C0 40.2 0 20.4 0 0 Z M22 18 C22 26.91 22 35.82 22 45 C31.25268591 45.96336223 31.25268591 45.96336223 35 42.875 C38.91565557 37.24624512 39.80307317 31.72719266 39 25 C38.20296108 22.48448988 37.20645994 20.36265071 36 18 C31.38 18 26.76 18 22 18 Z " fill="#012C60" transform="translate(132,55)"/>
<path d="M0 0 C1.78804274 1.42545753 3.36948513 2.70203941 4.77734375 4.50390625 C4.77734375 5.49390625 4.77734375 6.48390625 4.77734375 7.50390625 C5.43734375 7.50390625 6.09734375 7.50390625 6.77734375 7.50390625 C5.5414383 11.2116226 3.97360779 12.30460493 0.96484375 14.75390625 C-0.34419922 15.84445313 -0.34419922 15.84445313 -1.6796875 16.95703125 C-4.22265625 18.50390625 -4.22265625 18.50390625 -6.390625 18.3359375 C-8.22265625 17.50390625 -8.22265625 17.50390625 -10.72265625 15.94140625 C-15.84622103 13.837085 -20.75389316 14.26497971 -26.22265625 14.50390625 C-21.38004357 16.63729897 -16.34294317 17.72223866 -11.19335938 18.828125 C-4.33296285 20.4278004 0.8584787 23.48564921 4.77734375 29.50390625 C7.14946361 35.55281189 8.32350221 42.54187521 5.90234375 48.74609375 C2.49974062 54.67826368 -1.92984682 58.33202921 -8.33984375 60.61328125 C-19.43566329 63.15839881 -33.14243102 63.17511359 -43.22265625 57.50390625 C-46.07824639 55.70713043 -48.83386264 53.89954454 -51.22265625 51.50390625 C-51.22265625 50.84390625 -51.22265625 50.18390625 -51.22265625 49.50390625 C-51.88265625 49.50390625 -52.54265625 49.50390625 -53.22265625 49.50390625 C-53.55265625 47.85390625 -53.88265625 46.20390625 -54.22265625 44.50390625 C-51.98451872 42.94199744 -49.73496577 41.40506743 -47.47265625 39.87890625 C-46.8384375 39.43289062 -46.20421875 38.986875 -45.55078125 38.52734375 C-43.67578125 37.27734375 -43.67578125 37.27734375 -40.22265625 35.50390625 C-37.8984375 36.1328125 -37.8984375 36.1328125 -36.22265625 37.50390625 C-31.51748404 41.06843065 -28.45925418 41.62506068 -22.53515625 41.56640625 C-21.35566406 41.55738281 -20.17617188 41.54835937 -18.9609375 41.5390625 C-18.05730469 41.52746094 -17.15367188 41.51585937 -16.22265625 41.50390625 C-16.22265625 40.84390625 -16.22265625 40.18390625 -16.22265625 39.50390625 C-17.42921875 39.2615625 -18.63578125 39.01921875 -19.87890625 38.76953125 C-21.49361113 38.43156976 -23.10818777 38.09299524 -24.72265625 37.75390625 C-25.90988281 37.51800781 -25.90988281 37.51800781 -27.12109375 37.27734375 C-33.91406888 35.82966053 -40.47569451 33.82586661 -45.22265625 28.50390625 C-48.89886684 21.47115555 -50.50290584 15.1871221 -48.16015625 7.44140625 C-45.71236549 1.56670841 -41.13780438 -1.95853203 -35.34765625 -4.37109375 C-23.84421312 -7.66060574 -10.00964658 -6.73760042 0 0 Z " fill="#012C60" transform="translate(57.22265625,57.49609375)"/>
<path d="M0 0 C4.63306583 3.75630755 8.21061687 8.05643958 10.79296875 13.45703125 C10.79296875 14.11703125 10.79296875 14.77703125 10.79296875 15.45703125 C8.36078816 16.65666768 5.92326297 17.84187563 3.48046875 19.01953125 C2.4450293 19.53290039 2.4450293 19.53290039 1.38867188 20.05664062 C-3.8671875 22.5703125 -3.8671875 22.5703125 -7.20703125 21.45703125 C-7.51640625 20.46703125 -7.82578125 19.47703125 -8.14453125 18.45703125 C-8.49515625 17.46703125 -8.84578125 16.47703125 -9.20703125 15.45703125 C-12.17665311 14.30365133 -15.11156658 14.32250496 -18.26953125 14.33203125 C-19.12675781 14.32945313 -19.98398438 14.326875 -20.8671875 14.32421875 C-23.36267326 14.3633799 -23.36267326 14.3633799 -26.20703125 15.45703125 C-28.85070007 20.62009387 -30.01859132 26.70961335 -30.20703125 32.45703125 C-28.96908831 36.10208548 -27.87852294 37.91257853 -24.89453125 40.33203125 C-21.68416731 41.67590453 -19.65955929 41.88859725 -16.20703125 41.45703125 C-11.57705122 39.51890008 -10.1272286 37.00486707 -8.20703125 32.45703125 C-2.0434632 34.12286045 3.27556531 37.33508411 8.79296875 40.45703125 C8.79296875 41.11703125 8.79296875 41.77703125 8.79296875 42.45703125 C9.78296875 42.95203125 9.78296875 42.95203125 10.79296875 43.45703125 C9.66845148 46.42896975 8.57003084 48.79143812 6.79296875 51.45703125 C8.44296875 52.44703125 10.09296875 53.43703125 11.79296875 54.45703125 C11.46296875 56.10703125 11.13296875 57.75703125 10.79296875 59.45703125 C8.98046875 60.08203125 8.98046875 60.08203125 6.79296875 60.45703125 C3.79296875 58.45703125 3.79296875 58.45703125 2.79296875 55.45703125 C2.10589844 55.80636719 1.41882813 56.15570313 0.7109375 56.515625 C-0.64064453 57.19818359 -0.64064453 57.19818359 -2.01953125 57.89453125 C-2.91285156 58.34699219 -3.80617187 58.79945312 -4.7265625 59.265625 C-12.20074696 62.85558762 -22.25998408 62.54875036 -30.3046875 60.7734375 C-35.60969945 58.79738204 -40.56223804 55.85770488 -44.20703125 51.45703125 C-44.91090662 49.80573428 -45.57591216 48.13748087 -46.20703125 46.45703125 C-47.05630968 44.9542582 -47.91063623 43.45432883 -48.76953125 41.95703125 C-52.70270897 34.14885892 -53.34185298 24.9986815 -50.984375 16.5703125 C-47.61379253 7.40707071 -41.65270842 -0.27803531 -32.64453125 -4.54296875 C-21.83386626 -7.85766162 -9.2230121 -6.44794651 0 0 Z " fill="#012C5F" transform="translate(246.20703125,57.54296875)"/>
<path d="M0 0 C-0.33 1.32 -0.66 2.64 -1 4 C-2.58354369 3.87769378 -4.1668122 3.75182996 -5.75 3.625 C-6.86890625 3.53605469 -7.9878125 3.44710938 -9.140625 3.35546875 C-11.77326973 3.11298831 -14.3667013 2.83340682 -16.984375 2.48828125 C-51.33686386 -1.84470755 -86.51484186 1.13341916 -120.5 6.9375 C-121.20931671 7.05861145 -121.91863342 7.1797229 -122.64944458 7.30450439 C-131.35455179 8.81153138 -139.95525226 10.60885135 -148.53161621 12.73338318 C-151.43655972 13.44549478 -153.9956231 14 -157 14 C-157 13.34 -157 12.68 -157 12 C-138.49301782 6.5727147 -120.10056761 1.89156312 -101 -1 C-99.93120605 -1.16371094 -98.86241211 -1.32742188 -97.76123047 -1.49609375 C-65.50790938 -6.21015306 -32.08464694 -5.55414897 0 0 Z " fill="#032C5E" transform="translate(202,4)"/>
<path d="M0 0 C12.67857143 0 12.67857143 0 16 3 C18.32733902 5.99229303 18.41492514 9.23192696 18.32421875 12.96484375 C17.78844972 16.32792408 16.17155623 18.45617699 14 21 C11 22 11 22 0 22 C0 14.74 0 7.48 0 0 Z " fill="#FCD4DF" transform="translate(159,128)"/>
<path d="M0 0 C2.475 0.495 2.475 0.495 5 1 C6.58203125 3.94140625 6.58203125 3.94140625 7.8125 7.5625 C8.23144531 8.76003906 8.65039062 9.95757812 9.08203125 11.19140625 C9.38496094 12.11824219 9.68789063 13.04507813 10 14 C10.37511719 13.07316406 10.75023437 12.14632812 11.13671875 11.19140625 C11.90435547 9.39509766 11.90435547 9.39509766 12.6875 7.5625 C13.18636719 6.36753906 13.68523438 5.17257813 14.19921875 3.94140625 C15.09060547 2.48541016 15.09060547 2.48541016 16 1 C17.65 0.67 19.3 0.34 21 0 C21 7.26 21 14.52 21 22 C19.68 22 18.36 22 17 22 C16.505 17.05 16.505 17.05 16 12 C14.68 15.3 13.36 18.6 12 22 C10.68 21.67 9.36 21.34 8 21 C6.55036313 18.44149911 5.89599095 15.8223715 5 13 C4.67 15.97 4.34 18.94 4 22 C2.68 22 1.36 22 0 22 C0 14.74 0 7.48 0 0 Z M3 8 C4 10 4 10 4 10 Z " fill="#CE133F" transform="translate(42,23)"/>
<path d="M0 0 C0.66 0 1.32 0 2 0 C4.20933222 9.35402755 4.48371495 21.28580316 0 30 C-4.76621489 36.74424667 -9.79428365 41.24141666 -18 43 C-20.90959378 43.08378506 -23.79421241 43.11617895 -26.703125 43.09765625 C-27.95980988 43.09553383 -27.95980988 43.09553383 -29.24188232 43.09336853 C-31.91129157 43.08778197 -34.5806162 43.07523194 -37.25 43.0625 C-39.06249879 43.05748326 -40.87499889 43.05292066 -42.6875 43.04882812 C-47.12503248 43.03781694 -51.56250191 43.02056155 -56 43 C-55.67 42.01 -55.34 41.02 -55 40 C-53.98164063 39.98541748 -52.96328125 39.97083496 -51.9140625 39.95581055 C-48.10431328 39.89745571 -44.29513234 39.82022822 -40.48583984 39.73754883 C-38.84303063 39.70447322 -37.20011253 39.67638823 -35.55712891 39.65356445 C-33.183451 39.61969595 -30.81075559 39.56736925 -28.4375 39.51171875 C-27.71320801 39.50532883 -26.98891602 39.4989389 -26.24267578 39.49235535 C-18.67370127 39.27836197 -12.1829054 36.96669443 -6.5390625 31.8125 C-2.15618894 26.65094332 0.14861048 19.61658332 0.09765625 12.890625 C0.09443359 12.13652344 0.09121094 11.38242188 0.08789062 10.60546875 C0.07951172 9.82816406 0.07113281 9.05085938 0.0625 8.25 C0.05798828 7.45722656 0.05347656 6.66445312 0.04882812 5.84765625 C0.03708565 3.89840492 0.01915146 1.94919262 0 0 Z " fill="#B1B9C6" transform="translate(190,75)"/>
<path d="M0 0 C0.99 0 1.98 0 3 0 C1.87548273 2.9719385 0.77706209 5.33440687 -1 8 C1.475 9.485 1.475 9.485 4 11 C3.67 12.65 3.34 14.3 3 16 C1.1875 16.625 1.1875 16.625 -1 17 C-4 15 -4 15 -5 12 C-5.68707031 12.34933594 -6.37414062 12.69867188 -7.08203125 13.05859375 C-7.98308594 13.51363281 -8.88414062 13.96867187 -9.8125 14.4375 C-10.70582031 14.88996094 -11.59914062 15.34242187 -12.51953125 15.80859375 C-19.99371571 19.39855637 -30.05295283 19.09171911 -38.09765625 17.31640625 C-43.68608828 15.2347801 -47.71325675 12.10036311 -52 8 C-51.34 7.67 -50.68 7.34 -50 7 C-48.30078125 7.92578125 -48.30078125 7.92578125 -46.3125 9.3125 C-38.32007535 14.44132865 -30.32189158 14.81502877 -21 14 C-12.72587694 12.16824445 -6.29436 8.47091714 -1.25 1.625 C-0.63125 0.820625 -0.63125 0.820625 0 0 Z " fill="#B0B9C5" transform="translate(254,101)"/>
<path d="M0 0 C7.2335194 0.11366959 7.2335194 0.11366959 10.25 2.1875 C11.6875 5.0625 11.6875 5.0625 12.25 8.1875 C11.33271321 10.93936037 10.3114239 12.1260761 8.25 14.1875 C8.91 15.13625 9.57 16.085 10.25 17.0625 C12.25 20.1875 12.25 20.1875 12.25 22.1875 C10 22.0625 10 22.0625 7.25 21.1875 C3.25 16.10641892 3.25 16.10641892 3.25 13.1875 C1.6 13.1875 -0.05 13.1875 -1.75 13.1875 C-1.75 16.1575 -1.75 19.1275 -1.75 22.1875 C-3.07 22.1875 -4.39 22.1875 -5.75 22.1875 C-5.77887814 18.70835059 -5.79675687 15.22923169 -5.8125 11.75 C-5.82087891 10.75677734 -5.82925781 9.76355469 -5.83789062 8.74023438 C-5.84111328 7.79599609 -5.84433594 6.85175781 -5.84765625 5.87890625 C-5.85289307 5.00435791 -5.85812988 4.12980957 -5.86352539 3.22875977 C-5.64555169 -0.69054807 -3.39912637 0.02514147 0 0 Z M-1.75 4.1875 C-1.75 6.1675 -1.75 8.1475 -1.75 10.1875 C0.89 10.1875 3.53 10.1875 6.25 10.1875 C6.91 8.8675 7.57 7.5475 8.25 6.1875 C6.48863645 4.00418311 6.48863645 4.00418311 4.3046875 3.9921875 C1.27734375 4.08984375 1.27734375 4.08984375 -1.75 4.1875 Z " fill="#CB1441" transform="translate(112.75,22.8125)"/>
<path d="M0 0 C2.5 1.75 2.5 1.75 4 4 C4 5.32 4 6.64 4 8 C3.01 8 2.02 8 1 8 C0.67 6.68 0.34 5.36 0 4 C-2.64 4 -5.28 4 -8 4 C-7.67 4.99 -7.34 5.98 -7 7 C-4.99939943 7.91521187 -4.99939943 7.91521187 -2.625 8.5 C0.7188459 9.41492852 2.88263732 10.16777211 5 13 C5.0625 16.5 5.0625 16.5 4 20 C1.19666871 22.31274831 -0.67468812 23.09561814 -4.328125 22.83203125 C-6.69057958 22.38621321 -8.78799791 21.9467369 -11 21 C-13 18 -13 18 -13 14 C-11.68 14 -10.36 14 -9 14 C-8.34 15.32 -7.68 16.64 -7 18 C-5.02 18 -3.04 18 -1 18 C-1 16.68 -1 15.36 -1 14 C-1.62648437 13.80664062 -2.25296875 13.61328125 -2.8984375 13.4140625 C-3.71570313 13.15367188 -4.53296875 12.89328125 -5.375 12.625 C-6.59316406 12.24214844 -6.59316406 12.24214844 -7.8359375 11.8515625 C-10 11 -10 11 -12 9 C-12.375 6.0625 -12.375 6.0625 -12 3 C-8.95899338 -0.80125828 -4.51447828 -0.84183919 0 0 Z " fill="#C71543" transform="translate(246,23)"/>
<path d="M0 0 C0.33 0 0.66 0 1 0 C1.58687926 6.36437952 1.34220056 10.95946682 -2.44921875 16.24609375 C-7.31129922 21.74502103 -12.87012462 24.49820049 -20.26123047 25.22119141 C-33.83209948 25.86716147 -44.59258418 24.91034571 -55.63671875 16.3671875 C-57 15 -57 15 -57 13 C-57.66 13 -58.32 13 -59 13 C-59 12.34 -59 11.68 -59 11 C-56.22269525 12.33607533 -53.64603364 13.82198211 -51.0625 15.5 C-41.44360487 21.54514666 -30.20646635 22.49208479 -19.078125 20.46875 C-12.82430032 18.72525948 -7.93660701 16.36696413 -3.75 11.25 C-1.71281541 7.46665719 -0.86809482 4.19579163 0 0 Z " fill="#ADB5C0" transform="translate(63,94)"/>
<path d="M0 0 C4.95 0 9.9 0 15 0 C15 1.32 15 2.64 15 4 C11.37 4 7.74 4 4 4 C4 5.65 4 7.3 4 9 C7.3 9 10.6 9 14 9 C14 10.32 14 11.64 14 13 C10.7 13 7.4 13 4 13 C4 14.65 4 16.3 4 18 C7.63 18 11.26 18 15 18 C15.33 19.32 15.66 20.64 16 22 C10.72 22 5.44 22 0 22 C0 14.74 0 7.48 0 0 Z " fill="#C51742" transform="translate(78,23)"/>
<path d="M0 0 C1.625 1.1875 1.625 1.1875 3.625 4.1875 C3.625 5.1775 3.625 6.1675 3.625 7.1875 C2.305 7.1875 0.985 7.1875 -0.375 7.1875 C-0.99375 6.506875 -1.6125 5.82625 -2.25 5.125 C-2.95125 4.485625 -3.6525 3.84625 -4.375 3.1875 C-8.21717815 3.27977566 -8.21717815 3.27977566 -11.375 5.1875 C-11.4995486 6.82980364 -11.55068524 8.47802276 -11.5625 10.125 C-11.57667969 11.02089844 -11.59085938 11.91679688 -11.60546875 12.83984375 C-11.60694769 15.37864534 -11.60694769 15.37864534 -9.375 17.1875 C-6.68660615 17.45741906 -4.08358064 17.27487357 -1.375 17.1875 C-1.045 15.5375 -0.715 13.8875 -0.375 12.1875 C2.1 12.6825 2.1 12.6825 4.625 13.1875 C3.0952145 17.23693221 2.10604948 18.90613144 -1.6875 21.125 C-5.639539 22.2637231 -7.51045647 22.53168906 -11.375 21.1875 C-14.87806403 18.61858638 -16.61979922 16.4888689 -17.375 12.25 C-17.64295965 8.19232536 -16.66997489 5.5903938 -14.375 2.1875 C-10.57844205 -2.03089772 -5.07633556 -1.73664111 0 0 Z " fill="#C71641" transform="translate(173.375,23.8125)"/>
<path d="M0 0 C0.66 0 1.32 0 2 0 C1.58977511 5.84570466 0.83443379 10.42365275 -3 15 C-8.84061522 19.26387874 -14.61437961 19.54410398 -21.625 19.390625 C-22.61250244 19.38496521 -23.60000488 19.37930542 -24.61743164 19.37347412 C-27.74546518 19.35123369 -30.87231761 19.30106027 -34 19.25 C-36.13149378 19.22991907 -38.26300566 19.2116711 -40.39453125 19.1953125 C-45.59675142 19.15140973 -50.7982913 19.08462275 -56 19 C-56 18.01 -56 17.02 -56 16 C-54.83017578 15.98018066 -53.66035156 15.96036133 -52.45507812 15.93994141 C-48.08638138 15.86347389 -43.71799996 15.77482197 -39.34960938 15.68261719 C-37.46425636 15.64449662 -35.57883479 15.60961519 -33.69335938 15.578125 C-30.97240821 15.53210468 -28.25192207 15.47417386 -25.53125 15.4140625 C-24.69758911 15.40251129 -23.86392822 15.39096008 -23.00500488 15.37905884 C-16.67449686 15.22187167 -10.8187707 14.56598372 -5.1875 11.4375 C-2.13244751 8.03329866 -1.14807276 4.36827684 0 0 Z " fill="#AFB3BC" transform="translate(126,99)"/>
<path d="M0 0 C0.66 0 1.32 0 2 0 C2.99 2.97 3.98 5.94 5 9 C8.96 9.33 12.92 9.66 17 10 C16 13 16 13 13.71484375 14.38671875 C11.14322917 15.59114583 8.57161458 16.79557292 6 18 C7.485 24.435 7.485 24.435 9 31 C6 30 6 30 4.796875 27.890625 C4.45140625 27.01921875 4.1059375 26.1478125 3.75 25.25 C3.39421875 24.38890625 3.0384375 23.5278125 2.671875 22.640625 C1.91337802 19.65955548 2.04424119 17.90794701 3 15 C3.66 14.67 4.32 14.34 5 14 C4.360625 13.71125 3.72125 13.4225 3.0625 13.125 C1 12 1 12 0 10 C-0.33 10.33 -0.66 10.66 -1 11 C-2.92578125 10.94921875 -2.92578125 10.94921875 -5.3125 10.6875 C-6.48232422 10.56955078 -6.48232422 10.56955078 -7.67578125 10.44921875 C-10.08207271 9.98413721 -11.87133832 9.19341444 -14 8 C-14 7.34 -14 6.68 -14 6 C-10.37 6.33 -6.74 6.66 -3 7 C-2.01 4.69 -1.02 2.38 0 0 Z " fill="#042B5D" transform="translate(212,5)"/>
<path d="M0 0 C2.35270657 0.94672475 3.7148637 1.50627639 5.00488281 3.73999023 C5.23530273 4.42262939 5.46572266 5.10526855 5.703125 5.80859375 C5.9609375 6.55560547 6.21875 7.30261719 6.484375 8.07226562 C6.73703125 8.85279297 6.9896875 9.63332031 7.25 10.4375 C7.518125 11.21416016 7.78625 11.99082031 8.0625 12.79101562 C9.15814105 16.03601374 10 18.54618582 10 22 C8.68 22 7.36 22 6 22 C5.67 20.02 5.34 18.04 5 16 C2.36 16 -0.28 16 -3 16 C-3.66 17.98 -4.32 19.96 -5 22 C-6.32 22 -7.64 22 -9 22 C-2.97560976 2.97560976 -2.97560976 2.97560976 0 0 Z M0 7 C-0.33 8.65 -0.66 10.3 -1 12 C0.32 11.67 1.64 11.34 3 11 C2.34 9.68 1.68 8.36 1 7 C0.67 7 0.34 7 0 7 Z " fill="#CA1344" transform="translate(196,23)"/>
<path d="M0 0 C1.94238281 0.17602539 1.94238281 0.17602539 4 1 C5.09667969 2.82592773 5.09667969 2.82592773 5.921875 5.18359375 C6.22480469 6.02857422 6.52773438 6.87355469 6.83984375 7.74414062 C7.14019531 8.63294922 7.44054688 9.52175781 7.75 10.4375 C8.06582031 11.32244141 8.38164062 12.20738281 8.70703125 13.11914062 C11 19.63573796 11 19.63573796 11 22 C9.35 21.67 7.7 21.34 6 21 C5.67 19.35 5.34 17.7 5 16 C2.36 16 -0.28 16 -3 16 C-3.33 17.98 -3.66 19.96 -4 22 C-5.32 22 -6.64 22 -8 22 C-7.37910554 17.00956079 -5.90498961 12.79272252 -4 8.1875 C-3.72671875 7.50751953 -3.4534375 6.82753906 -3.171875 6.12695312 C-1.14553571 1.14553571 -1.14553571 1.14553571 0 0 Z M1 6 C0.34 7.98 -0.32 9.96 -1 12 C0.32 12 1.64 12 3 12 C2.67 10.02 2.34 8.04 2 6 C1.67 6 1.34 6 1 6 Z " fill="#CB1442" transform="translate(19,23)"/>
<path d="M0 0 C1.87988281 0.23852539 1.87988281 0.23852539 4 1 C5.09667969 2.82592773 5.09667969 2.82592773 5.921875 5.18359375 C6.22480469 6.02857422 6.52773437 6.87355469 6.83984375 7.74414062 C7.14019531 8.63294922 7.44054687 9.52175781 7.75 10.4375 C8.06582031 11.32244141 8.38164062 12.20738281 8.70703125 13.11914062 C11 19.63573796 11 19.63573796 11 22 C9.68 21.67 8.36 21.34 7 21 C6.67 19.02 6.34 17.04 6 15 C3.03 15 0.06 15 -3 15 C-3.33 16.98 -3.66 18.96 -4 21 C-5.32 21.33 -6.64 21.66 -8 22 C-5.92957946 14.39162534 -3.14169523 7.2271408 0 0 Z " fill="#FDDCE5" transform="translate(192,128)"/>
<path d="M0 0 C8 0 8 0 10.5625 1.9375 C12.49450566 6.05351207 12.41956801 9.67329273 11 14 C8 16 8 16 0 16 C0 10.72 0 5.44 0 0 Z " fill="#C81C47" transform="translate(162,131)"/>
<path d="M0 0 C2.29296875 0.01171875 2.29296875 0.01171875 5 1 C6.39040824 3.66922189 7.37664929 5.9901323 8.3125 8.8125 C8.57611328 9.53759766 8.83972656 10.26269531 9.11132812 11.00976562 C10.39218312 14.64606306 11 17.05266286 11 21 C10.01 21 9.02 21 8 21 C7.34 19.02 6.68 17.04 6 15 C3.36 14.67 0.72 14.34 -2 14 C-2.66 16.31 -3.32 18.62 -4 21 C-4.99 21 -5.98 21 -7 21 C-6.26951699 16.31196344 -4.63363115 12.09114445 -2.9375 7.6875 C-2.51500977 6.57665039 -2.51500977 6.57665039 -2.08398438 5.44335938 C-1.39281425 3.62757345 -0.69688311 1.81360101 0 0 Z " fill="#FDDCE5" transform="translate(139,129)"/>
<path d="M0 0 C0.99 0 1.98 0 3 0 C3 7.26 3 14.52 3 22 C-1.5 20.875 -1.5 20.875 -3.578125 17.62109375 C-4.01640625 16.94755859 -4.4546875 16.27402344 -4.90625 15.58007812 C-5.57140625 14.51950195 -5.57140625 14.51950195 -6.25 13.4375 C-6.70890625 12.72658203 -7.1678125 12.01566406 -7.640625 11.28320312 C-8.77093497 9.52886786 -9.88687103 7.76528659 -11 6 C-11.33 11.28 -11.66 16.56 -12 22 C-12.66 22 -13.32 22 -14 22 C-14 15.07 -14 8.14 -14 1 C-9.04911994 2.23772001 -7.86586565 4.51941123 -5.25 8.5625 C-4.83878906 9.17802734 -4.42757812 9.79355469 -4.00390625 10.42773438 C-2.99236489 11.94504641 -1.99480211 13.47166086 -1 15 C-0.67 10.05 -0.34 5.1 0 0 Z " fill="#FEE5EE" transform="translate(72,128)"/>
<path d="M0 0 C1.93166016 0.01740234 1.93166016 0.01740234 3.90234375 0.03515625 C5.19269531 0.04417969 6.48304687 0.05320312 7.8125 0.0625 C8.81152344 0.07410156 9.81054688 0.08570312 10.83984375 0.09765625 C10.83984375 1.08765625 10.83984375 2.07765625 10.83984375 3.09765625 C6.87984375 3.09765625 2.91984375 3.09765625 -1.16015625 3.09765625 C-1.16015625 5.40765625 -1.16015625 7.71765625 -1.16015625 10.09765625 C2.13984375 10.09765625 5.43984375 10.09765625 8.83984375 10.09765625 C8.83984375 10.75765625 8.83984375 11.41765625 8.83984375 12.09765625 C5.53984375 12.09765625 2.23984375 12.09765625 -1.16015625 12.09765625 C-1.16015625 14.40765625 -1.16015625 16.71765625 -1.16015625 19.09765625 C3.12984375 19.09765625 7.41984375 19.09765625 11.83984375 19.09765625 C11.83984375 20.08765625 11.83984375 21.07765625 11.83984375 22.09765625 C6.55984375 22.09765625 1.27984375 22.09765625 -4.16015625 22.09765625 C-4.18698826 18.6184389 -4.20691295 15.13942586 -4.22265625 11.66015625 C-4.23103516 10.66693359 -4.23941406 9.67371094 -4.24804688 8.65039062 C-4.25126953 7.70615234 -4.25449219 6.76191406 -4.2578125 5.7890625 C-4.26304932 4.91451416 -4.26828613 4.03996582 -4.27368164 3.13891602 C-4.08521174 -0.24989437 -3.47516227 0.10739068 0 0 Z " fill="#F6B8CC" transform="translate(90.16015625,127.90234375)"/>
<path d="M0 0 C0.99 0.33 1.98 0.66 3 1 C1.76409455 4.70771635 0.19626404 5.80069868 -2.8125 8.25 C-4.12154297 9.34054688 -4.12154297 9.34054688 -5.45703125 10.453125 C-8 12 -8 12 -9.94921875 11.921875 C-12 11 -12 11 -14.7578125 9.44921875 C-18.57462179 7.74315098 -21.78722402 7.65802009 -25.875 7.8125 C-26.90753906 7.83280273 -26.90753906 7.83280273 -27.9609375 7.85351562 C-29.64097001 7.8885163 -31.3205935 7.94231046 -33 8 C-32.625 6.0625 -32.625 6.0625 -32 4 C-28.22846353 2.11423177 -23.81790183 2.49466267 -19.8359375 3.6015625 C-16.4416487 4.86011902 -13.22559632 6.35865674 -10 8 C-9.31292969 7.41089844 -8.62585938 6.82179688 -7.91796875 6.21484375 C-7.01691406 5.46332031 -6.11585937 4.71179688 -5.1875 3.9375 C-4.29417969 3.18339844 -3.40085937 2.42929688 -2.48046875 1.65234375 C-1.66191406 1.10707031 -0.84335937 0.56179687 0 0 Z " fill="#ADB2BC" transform="translate(61,64)"/>
<path d="M0 0 C0.99 0 1.98 0 3 0 C4.65 4.95 6.3 9.9 8 15 C8.61875 13.453125 9.2375 11.90625 9.875 10.3125 C11.25 6.875 12.625 3.4375 14 0 C14.99 0 15.98 0 17 0 C13.11137026 16.15276968 13.11137026 16.15276968 10 22 C8.1328125 21.80859375 8.1328125 21.80859375 6 21 C2.48986095 14.6794555 1.16617039 7.07374406 0 0 Z " fill="#FBD3DD" transform="translate(109,128)"/>
<path d="M0 0 C1.93719378 -0.05406122 3.87481921 -0.09282025 5.8125 -0.125 C6.89144531 -0.14820312 7.97039062 -0.17140625 9.08203125 -0.1953125 C12 0 12 0 15 2 C14.67 2.66 14.34 3.32 14 4 C10.37 4 6.74 4 3 4 C3.02320313 5.78148438 3.04640625 7.56296875 3.0703125 9.3984375 C3.08906667 11.72395416 3.10726724 14.04947533 3.125 16.375 C3.14175781 17.550625 3.15851563 18.72625 3.17578125 19.9375 C3.18222656 21.05898437 3.18867188 22.18046875 3.1953125 23.3359375 C3.20578613 24.37282715 3.21625977 25.4097168 3.22705078 26.47802734 C3 29 3 29 1 31 C0 30 0 30 -0.11352539 27.13256836 C-0.10828857 25.88096924 -0.10305176 24.62937012 -0.09765625 23.33984375 C-0.0962413 22.67537735 -0.09482635 22.01091095 -0.09336853 21.3263092 C-0.08775518 19.19666101 -0.07520054 17.06711661 -0.0625 14.9375 C-0.05748671 13.49674631 -0.05292351 12.05599097 -0.04882812 10.61523438 C-0.03778145 7.07678898 -0.02050792 3.53840461 0 0 Z " fill="#A6ABB2" transform="translate(152,70)"/>
<path d="M0 0 C2.475 0.495 2.475 0.495 5 1 C6.46875 3.36328125 6.46875 3.36328125 7.5 6.3125 C7.8609375 7.27800781 8.221875 8.24351563 8.59375 9.23828125 C9 12 9 12 7.59375 14.35546875 C7.0678125 14.89816406 6.541875 15.44085938 6 16 C5.67 15.01 5.34 14.02 5 13 C4.67 15.97 4.34 18.94 4 22 C2.68 22 1.36 22 0 22 C0 14.74 0 7.48 0 0 Z M3 8 C4 10 4 10 4 10 Z " fill="#C31842" transform="translate(42,23)"/>
<path d="M0 0 C0.58523438 0.31453125 1.17046875 0.6290625 1.7734375 0.953125 C8.6932589 4.40264558 15.40796664 6.17339245 22.97998047 7.47949219 C25.25390625 7.91015625 25.25390625 7.91015625 29 9 C30.23413086 11.06811523 30.23413086 11.06811523 31 13 C27.82946803 12.43655118 24.66463796 11.84559198 21.5 11.25 C20.613125 11.09273437 19.72625 10.93546875 18.8125 10.7734375 C11.81295827 9.43528982 4.80107619 7.61835863 0 2 C0 1.34 0 0.68 0 0 Z " fill="#ACB3BE" transform="translate(12,84)"/>
<path d="M0 0 C2.5 1.4375 2.5 1.4375 4 3 C4 3.66 4 4.32 4 5 C3.01 4.67 2.02 4.34 1 4 C-0.66458673 3.90691456 -2.33281997 3.87003815 -4 3.875 C-4.86625 3.87242188 -5.7325 3.86984375 -6.625 3.8671875 C-9.15011695 3.90405795 -9.15011695 3.90405795 -12 5 C-14.48774061 9.95421849 -15.41856638 15.534524 -16 21 C-16.33 21 -16.66 21 -17 21 C-17.62289264 9.33806566 -17.62289264 9.33806566 -15.3125 4.375 C-10.3564116 -0.71503674 -6.81442721 -1.89210609 0 0 Z " fill="#A8B5C3" transform="translate(232,68)"/>
<path d="M0 0 C1.32 0.33 2.64 0.66 4 1 C4 7.93 4 14.86 4 22 C2.68 22 1.36 22 0 22 C0 14.74 0 7.48 0 0 Z " fill="#D0123F" transform="translate(139,23)"/>
<path d="M0 0 C3.78863057 1.42073646 7.3476877 3.14719365 10.9375 5 C11.618125 5.33 12.29875 5.66 13 6 C13.73605469 6.35835938 14.47210938 6.71671875 15.23046875 7.0859375 C18.92675626 8.30586878 22.44328762 8.45902842 26.3125 8.625 C27.42334961 8.68300781 27.42334961 8.68300781 28.55664062 8.7421875 C30.37071309 8.83581705 32.18532116 8.91896851 34 9 C34 9.66 34 10.32 34 11 C21.10204094 11.53866186 11.20320812 11.39232075 1.1796875 2.26953125 C0 1 0 1 0 0 Z " fill="#ACAFB4" transform="translate(202,108)"/>
<path d="M0 0 C3.96 0 7.92 0 12 0 C12 0.99 12 1.98 12 3 C8.7 2.67 5.4 2.34 2 2 C2 7.61 2 13.22 2 19 C3.98 19 5.96 19 8 19 C8 19.33 8 19.66 8 20 C5.36 20 2.72 20 0 20 C0 13.4 0 6.8 0 0 Z " fill="#FFF2F7" transform="translate(160,129)"/>
<path d="M0 0 C0.99 0 1.98 0 3 0 C3 7.26 3 14.52 3 22 C1.68 21.67 0.36 21.34 -1 21 C-0.83701416 20.42475586 -0.67402832 19.84951172 -0.50610352 19.25683594 C-0.00962472 17.04291893 0.11479744 15.15326203 0.09765625 12.890625 C0.09443359 12.13652344 0.09121094 11.38242188 0.08789062 10.60546875 C0.07951172 9.82816406 0.07113281 9.05085937 0.0625 8.25 C0.05573242 7.06083984 0.05573242 7.06083984 0.04882812 5.84765625 C0.03708565 3.89840492 0.01915146 1.94919262 0 0 Z " fill="#FCC2D3" transform="translate(72,128)"/>
<path d="M0 0 C0.33 1.32 0.66 2.64 1 4 C-1.43218059 5.19963643 -3.86970578 6.38484438 -6.3125 7.5625 C-7.00279297 7.90474609 -7.69308594 8.24699219 -8.40429688 8.59960938 C-13.66015625 11.11328125 -13.66015625 11.11328125 -17 10 C-16 7 -16 7 -12.91015625 5.17578125 C-11.6326637 4.54434632 -10.3498293 3.92363056 -9.0625 3.3125 C-8.41603516 2.99216797 -7.76957031 2.67183594 -7.10351562 2.34179688 C-2.29509262 0 -2.29509262 0 0 0 Z " fill="#AAB1BB" transform="translate(256,69)"/>
<path d="M0 0 C1.98 0.495 1.98 0.495 4 1 C5.046875 3.28515625 5.046875 3.28515625 5.75 6.0625 C5.99234375 6.98160156 6.2346875 7.90070313 6.484375 8.84765625 C6.65453125 9.55792969 6.8246875 10.26820313 7 11 C6.34 11 5.68 11 5 11 C5 11.66 5 12.32 5 13 C3.02 13 1.04 13 -1 13 C-0.67 8.71 -0.34 4.42 0 0 Z " fill="#F9CDD8" transform="translate(192,128)"/>
<path d="M0 0 C1.89510699 -0.08160748 3.79124504 -0.13946459 5.6875 -0.1875 C6.74324219 -0.22230469 7.79898438 -0.25710937 8.88671875 -0.29296875 C12.38158604 0.03590835 14.22938553 0.87706164 17 3 C17 3.66 17 4.32 17 5 C11.39 4.67 5.78 4.34 0 4 C0 2.68 0 1.36 0 0 Z " fill="#ADB3BE" transform="translate(89,90)"/>
<path d="M0 0 C0.33 0.66 0.66 1.32 1 2 C5.29 2 9.58 2 14 2 C14.33 3.32 14.66 4.64 15 6 C10.05 6 5.1 6 0 6 C0 4.02 0 2.04 0 0 Z " fill="#CF133F" transform="translate(79,39)"/>
<path d="M0 0 C4.62 0 9.24 0 14 0 C14 0.66 14 1.32 14 2 C9.71 1.67 5.42 1.34 1 1 C1 7.93 1 14.86 1 22 C0.34 22 -0.32 22 -1 22 C-1.22201613 19.0837882 -1.42808498 16.16792256 -1.625 13.25 C-1.72167969 12.0125 -1.72167969 12.0125 -1.8203125 10.75 C-1.871875 9.95078125 -1.9234375 9.1515625 -1.9765625 8.328125 C-2.02893066 7.5949707 -2.08129883 6.86181641 -2.13525391 6.10644531 C-2 4 -2 4 0 0 Z " fill="#BA1640" transform="translate(158,127)"/>
<path d="M0 0 C3.63 0 7.26 0 11 0 C11 0.33 11 0.66 11 1 C7.7 1 4.4 1 1 1 C1 7.6 1 14.2 1 21 C1.66 20.34 2.32 19.68 3 19 C5.1640625 18.5859375 5.1640625 18.5859375 7.625 18.375 C8.44226563 18.30023438 9.25953125 18.22546875 10.1015625 18.1484375 C10.72804687 18.09945312 11.35453125 18.05046875 12 18 C12 18.66 12 19.32 12 20 C12.66 20.33 13.32 20.66 14 21 C11 22 11 22 0 22 C0 14.74 0 7.48 0 0 Z " fill="#F8ABC1" transform="translate(159,128)"/>
<path d="M0 0 C0.66 0 1.32 0 2 0 C2 5.28 2 10.56 2 16 C-2.0434431 11.9565569 -3.8204342 9.93270155 -6 5 C-2.125 6.875 -2.125 6.875 -1 8 C-0.67 5.36 -0.34 2.72 0 0 Z " fill="#C51744" transform="translate(70,128)"/>
<path d="M0 0 C3.96 0 7.92 0 12 0 C12 0.66 12 1.32 12 2 C8.7 2 5.4 2 2 2 C2 4.64 2 7.28 2 10 C5.96 10 9.92 10 14 10 C14 10.33 14 10.66 14 11 C9.38 11 4.76 11 0 11 C0 7.37 0 3.74 0 0 Z " fill="#FFEEF6" transform="translate(87,138)"/>
<path d="M0 0 C0.66 0 1.32 0 2 0 C2 1.32 2 2.64 2 4 C4.31 4 6.62 4 9 4 C8.67 4.66 8.34 5.32 8 6 C5.69 6 3.38 6 1 6 C0.34 8.31 -0.32 10.62 -1 13 C-1.99 13 -2.98 13 -4 13 C-3.27991594 8.39146203 -1.68704061 4.32762591 0 0 Z " fill="#FDDDE8" transform="translate(136,137)"/>
<path d="M0 0 C2.5625 0.1875 2.5625 0.1875 4.5625 2.1875 C4.1875 4.8125 4.1875 4.8125 3.5625 7.1875 C1.75 7.8125 1.75 7.8125 -0.4375 8.1875 C-1.4275 7.5275 -2.4175 6.8675 -3.4375 6.1875 C-3.6875 3.625 -3.6875 3.625 -3.4375 1.1875 C-2.4375 0.1875 -2.4375 0.1875 0 0 Z " fill="#032B58" transform="translate(253.4375,109.8125)"/>
<path d="M0 0 C4.62 0 9.24 0 14 0 C14.66 1.32 15.32 2.64 16 4 C10.72 3.67 5.44 3.34 0 3 C0 2.01 0 1.02 0 0 Z " fill="#AFB7C1" transform="translate(89,68)"/>
<path d="M0 0 C0.33 0 0.66 0 1 0 C1.50604984 6.98629919 1.0333905 11.20200116 -3 17 C-6 17 -6 17 -8 16 C-7.38511719 15.27296875 -7.38511719 15.27296875 -6.7578125 14.53125 C-2.91116613 9.74594829 -1.07957806 6.04563713 0 0 Z " fill="#B3BAC3" transform="translate(63,94)"/>
<path d="M0 0 C1.93719378 -0.05406122 3.87481921 -0.09282025 5.8125 -0.125 C6.89144531 -0.14820312 7.97039062 -0.17140625 9.08203125 -0.1953125 C12 0 12 0 15 2 C14.67 2.66 14.34 3.32 14 4 C9.71 3.67 5.42 3.34 1 3 C0.67 2.01 0.34 1.02 0 0 Z " fill="#AFB5BA" transform="translate(152,70)"/>
<path d="M0 0 C0.33 0.99 0.66 1.98 1 3 C-6.11389522 8.55580866 -6.11389522 8.55580866 -11 9 C-11 8.01 -11 7.02 -11 6 C-10.01 6 -9.02 6 -8 6 C-7.67 5.01 -7.34 4.02 -7 3 C-3.4375 1.3125 -3.4375 1.3125 0 0 Z " fill="#AAB0B3" transform="translate(58,109)"/>
<path d="M0 0 C0.33 0 0.66 0 1 0 C0.61271765 5.71241466 0.12989477 8.73688282 -4 13 C-4.99 12.67 -5.98 12.34 -7 12 C-5.62313063 9.0344352 -3.95648934 6.60865245 -2 4 C-1.30419733 2.68163705 -0.62775567 1.35208914 0 0 Z " fill="#B0B9C3" transform="translate(125,72)"/>
<path d="M0 0 C0.99 0 1.98 0 3 0 C3.99 3.63 4.98 7.26 6 11 C5.34 11 4.68 11 4 11 C3.67 11.66 3.34 12.32 3 13 C2.49487756 11.39743892 1.99608373 9.79288208 1.5 8.1875 C1.2215625 7.29417969 0.943125 6.40085938 0.65625 5.48046875 C0 3 0 3 0 0 Z " fill="#FAC6D5" transform="translate(109,128)"/>
<path d="M0 0 C-4.52084209 4.49335977 -7.54972485 6.73672346 -14 7 C-14 6.34 -14 5.68 -14 5 C-12.35 4.67 -10.7 4.34 -9 4 C-8.67 3.01 -8.34 2.02 -8 1 C-4.68510482 -0.74468167 -3.63361056 -1.21120352 0 0 Z " fill="#A8AEB2" transform="translate(186,110)"/>
<path d="M0 0 C1.77230751 0.7883609 3.54279534 1.58081347 5.3125 2.375 C6.29863281 2.81585938 7.28476562 3.25671875 8.30078125 3.7109375 C11 5 11 5 14 7 C11.5 7.875 11.5 7.875 8 8 C5.01982358 6.36036889 2.40323877 4.40933836 0 2 C0 1.34 0 0.68 0 0 Z " fill="#B0B8C6" transform="translate(12,84)"/>
<path d="M0 0 C0.99 0.33 1.98 0.66 3 1 C2.00310315 4.68851835 1.31080309 5.80574807 -2 7.875 C-2.99 8.24625 -3.98 8.6175 -5 9 C-5.66 8.67 -6.32 8.34 -7 8 C-4.69 5.36 -2.38 2.72 0 0 Z " fill="#B6C0CA" transform="translate(187,102)"/>
<path d="M0 0 C-1.32 0.33 -2.64 0.66 -4 1 C-4 1.99 -4 2.98 -4 4 C-9.94 3.67 -15.88 3.34 -22 3 C-22 2.67 -22 2.34 -22 2 C-21.14277344 1.95101562 -20.28554687 1.90203125 -19.40234375 1.8515625 C-12.01065271 1.45139263 -12.01065271 1.45139263 -4.8125 -0.125 C-2 -1 -2 -1 0 0 Z " fill="#B5BFCB" transform="translate(242,114)"/>
<path d="M0 0 C1.9451 2.91765 2.45276317 4.62537285 3 8 C1.02 8 -0.96 8 -3 8 C-1.125 1.125 -1.125 1.125 0 0 Z " fill="#BA3457" transform="translate(141,133)"/>
<path d="M0 0 C-1.59370671 1.36646148 -3.20032982 2.71787166 -4.8125 4.0625 C-6.15248047 5.19365234 -6.15248047 5.19365234 -7.51953125 6.34765625 C-8.74736328 7.16556641 -8.74736328 7.16556641 -10 8 C-10.99 7.67 -11.98 7.34 -13 7 C-12.01 6.67 -11.02 6.34 -10 6 C-10 5.01 -10 4.02 -10 3 C-9.01 3 -8.02 3 -7 3 C-7 2.34 -7 1.68 -7 1 C-3.375 -1.125 -3.375 -1.125 0 0 Z " fill="#061F4F" transform="translate(61,65)"/>
<path d="M0 0 C0.99 0.33 1.98 0.66 3 1 C0.29384966 10.59453303 0.29384966 10.59453303 -4 14 C-3.625 11.0625 -3.625 11.0625 -3 8 C-2.34 7.67 -1.68 7.34 -1 7 C-0.59270772 4.67843403 -0.25561323 2.3431213 0 0 Z " fill="#C11C45" transform="translate(133,137)"/>
<path d="M0 0 C2.64 0 5.28 0 8 0 C9.4606285 2.64738916 10 3.89448334 10 7 C9.34 7 8.68 7 8 7 C7.67 5.68 7.34 4.36 7 3 C4.69 3 2.38 3 0 3 C0 2.01 0 1.02 0 0 Z " fill="#BA3151" transform="translate(137,143)"/>
<path d="M0 0 C2.5654594 2.5654594 2.54046087 4.47686668 3 8 C1.35 8 -0.3 8 -2 8 C-1.125 2.25 -1.125 2.25 0 0 Z " fill="#B42E52" transform="translate(193,133)"/>
<path d="M0 0 C-3.5087188 3.09592835 -6.49197399 4.74194623 -11 6 C-11 5.01 -11 4.02 -11 3 C-9.73581754 2.30034557 -8.46334598 1.61565237 -7.1875 0.9375 C-6.47980469 0.55464844 -5.77210938 0.17179687 -5.04296875 -0.22265625 C-3 -1 -3 -1 0 0 Z " fill="#AAACB4" transform="translate(249,112)"/>
<path d="M0 0 C0.66 0.33 1.32 0.66 2 1 C1.34 5.62 0.68 10.24 0 15 C-0.33 15 -0.66 15 -1 15 C-1.02693575 12.87506859 -1.04636628 10.75004088 -1.0625 8.625 C-1.07410156 7.44164063 -1.08570313 6.25828125 -1.09765625 5.0390625 C-1 2 -1 2 0 0 Z " fill="#B4BFCB" transform="translate(216,74)"/>
<path d="M0 0 C0 0.66 0 1.32 0 2 C-2.97851562 2.29296875 -2.97851562 2.29296875 -5.95703125 2.5859375 C-8.29988142 2.92665391 -8.29988142 2.92665391 -11 5 C-10.625 3.0625 -10.625 3.0625 -10 1 C-6.78548731 -0.60725635 -3.56387464 -0.05748185 0 0 Z " fill="#AFC0D6" transform="translate(39,67)"/>
<path d="M0 0 C4.30764815 1.56641751 8.06171464 3.68336156 12 6 C12 6.33 12 6.66 12 7 C9.15382151 7.517487 7.50716808 7.34894002 5.109375 5.69921875 C3.3339267 4.18720079 1.61626937 2.68147909 0 1 C0 0.67 0 0.34 0 0 Z " fill="#B3BBC8" transform="translate(202,108)"/>
<path d="M0 0 C2.18975773 3.28463659 2.99806563 6.20696275 4 10 C2.68 9.67 1.36 9.34 0 9 C-1.10844919 5.67465243 -0.84454356 3.37817425 0 0 Z " fill="#FCC5D5" transform="translate(199,140)"/>
<path d="M0 0 C3.3 0 6.6 0 10 0 C10 0.99 10 1.98 10 3 C6.7 2.67 3.4 2.34 0 2 C0 1.34 0 0.68 0 0 Z " fill="#FFE1F0" transform="translate(162,129)"/>
<path d="M0 0 C0.33 0 0.66 0 1 0 C1 5.28 1 10.56 1 16 C0.01 15.34 -0.98 14.68 -2 14 C-2 13.34 -2 12.68 -2 12 C-1.34 12 -0.68 12 0 12 C0 8.04 0 4.08 0 0 Z " fill="#B82C51" transform="translate(71,128)"/>
<path d="M0 0 C0.66 0 1.32 0 2 0 C1.609375 6.0546875 1.609375 6.0546875 1 8 C-0.98 8.99 -0.98 8.99 -3 10 C-2.01 6.7 -1.02 3.4 0 0 Z " fill="#B9BEC8" transform="translate(126,99)"/>
<path d="M0 0 C1.32 0.66 2.64 1.32 4 2 C3.34 3.98 2.68 5.96 2 8 C-0.36556709 5.63443291 -0.58244041 4.25696479 -1 1 C-0.67 0.67 -0.34 0.34 0 0 Z " fill="#B92148" transform="translate(116,137)"/>
<path d="M0 0 C1.32 0 2.64 0 4 0 C4.33 1.65 4.66 3.3 5 5 C3.68 5 2.36 5 1 5 C0.67 3.35 0.34 1.7 0 0 Z " fill="#C2193F" transform="translate(201,40)"/>
<path d="M0 0 C0.99 0 1.98 0 3 0 C2.67 1.98 2.34 3.96 2 6 C0.68 6.33 -0.64 6.66 -2 7 C-1.34 4.69 -0.68 2.38 0 0 Z " fill="#F9C1D5" transform="translate(123,128)"/>
<path d="M0 0 C0.66 1.32 1.32 2.64 2 4 C1.34 4 0.68 4 0 4 C-0.33 4.99 -0.66 5.98 -1 7 C-1.66 6.67 -2.32 6.34 -3 6 C-2.42655063 3.13275314 -2.1385485 2.1385485 0 0 Z " fill="#B2B8BC" transform="translate(220,69)"/>
<path d="M0 0 C0 3.51716303 -0.82445585 4.37121748 -3 7 C-3.99 6.67 -4.98 6.34 -6 6 C-6 5.34 -6 4.68 -6 4 C-4.03852126 2.61061923 -2.03833424 1.2739589 0 0 Z " fill="#B1BAC9" transform="translate(55,69)"/>
<path d="M0 0 C0.66 0 1.32 0 2 0 C2.33 1.98 2.66 3.96 3 6 C2.01 6 1.02 6 0 6 C-0.38218767 4.34385343 -0.71395102 2.67542976 -1 1 C-0.67 0.67 -0.34 0.34 0 0 Z " fill="#FCC9D9" transform="translate(147,144)"/>
<path d="M0 0 C1.2077558 3.62326739 0.54311128 4.64146369 -1 8 C-1.66 7.67 -2.32 7.34 -3 7 C-2.25 2.25 -2.25 2.25 0 0 Z " fill="#FDDFEA" transform="translate(123,133)"/>
<path d="M0 0 C0.66 0 1.32 0 2 0 C2 0.99 2 1.98 2 3 C3.98 3 5.96 3 8 3 C4.25 6 4.25 6 2 6 C1.34 4.02 0.68 2.04 0 0 Z " fill="#052651" transform="translate(236,71)"/>
<path d="M0 0 C1.65 1.65 3.3 3.3 5 5 C4.01 5.495 4.01 5.495 3 6 C2.67 6.66 2.34 7.32 2 8 C-0.1519437 4.77208445 -0.20086443 3.71599191 0 0 Z " fill="#FAD2DC" transform="translate(68,140)"/>
</svg>
