<?xml version="1.0" encoding="UTF-8"?>
<svg version="1.1" xmlns="http://www.w3.org/2000/svg" width="1228" height="360">
<path d="M0 0 C55.77 0 111.54 0 169 0 C169 2.64 169 5.28 169 8 C164.37352394 9.41157267 159.79005011 10.46659247 155.03466797 11.34326172 C132.04858535 15.4181104 132.04858535 15.4181104 113.625 28.6875 C100.8940832 47.92772737 104.68499649 76.16070512 104.69841743 98.2836895 C104.69950081 101.82937835 104.69456968 105.37504983 104.689812 108.92073488 C104.67878932 117.29759349 104.678239 125.67440722 104.68432617 134.05126953 C104.69036729 142.63325934 104.67803464 151.21508526 104.6567561 159.79704714 C104.63903161 167.22446358 104.63315548 174.65182835 104.63639385 182.07926512 C104.63818879 186.48947853 104.63575227 190.89957485 104.62167931 195.30976868 C104.50385287 235.68211335 108.75624884 274.55153459 137.5390625 305.59375 C158.8432602 326.42452108 188.03331556 333.82368794 217 335 C218.21429688 335.061875 218.21429688 335.061875 219.453125 335.125 C242.74445149 335.75877759 267.38929064 329.88272744 285 314 C285.58652344 313.505 286.17304688 313.01 286.77734375 312.5 C308.76784046 292.55397124 313.92997284 257.91730271 316 230 C316.46537401 219.40805502 316.40780468 208.8051595 316.37004495 198.20534563 C316.35848887 194.18380368 316.3628558 190.1622704 316.36479187 186.14071655 C316.36566679 179.40219893 316.35475983 172.66378345 316.33618164 165.92529297 C316.31497465 158.19014457 316.31152008 150.45514482 316.3177436 142.71997321 C316.32348065 135.19734317 316.3177442 127.67476423 316.30657005 120.15214157 C316.30198636 116.98599658 316.30102252 113.81988347 316.3031559 110.65373611 C317.3771966 65.7573089 317.3771966 65.7573089 297.39453125 27.1796875 C285.63850879 16.47844682 269.25098408 12.61395981 254 10 C252.01952613 9.61075977 250.04015476 9.21581918 248.0625 8.8125 C247.26972656 8.65394531 246.47695312 8.49539063 245.66015625 8.33203125 C245.11230469 8.22246094 244.56445312 8.11289063 244 8 C244 5.36 244 2.72 244 0 C266.67883842 -0.1869605 289.3575496 -0.32799391 312.03700256 -0.41449738 C322.56773657 -0.45573187 333.09799149 -0.51193928 343.62841797 -0.60351562 C352.80779022 -0.68330461 361.98681549 -0.73487787 371.16652489 -0.75270796 C376.02641128 -0.76312927 380.8853051 -0.78758348 385.74487305 -0.84584045 C390.32191253 -0.90026435 394.89755361 -0.91686859 399.47488594 -0.90486145 C401.15188773 -0.90705698 402.8289377 -0.9229006 404.5056591 -0.9536438 C417.14111618 -1.17389648 417.14111618 -1.17389648 421.70120239 1.70582581 C423.72968296 3.70026216 425.35581615 5.68501212 427 8 C428.1346794 9.30147588 429.27912467 10.59456906 430.4375 11.875 C431.00339844 12.53242188 431.56929688 13.18984375 432.15234375 13.8671875 C434.2371655 16.27376821 436.36521533 18.63764945 438.5 21 C441.76390848 24.61676345 444.98790949 28.26389608 448.1875 31.9375 C450.27211164 34.30964429 452.38428644 36.65556065 454.5 39 C457.76390848 42.61676345 460.98790949 46.26389608 464.1875 49.9375 C466.27211164 52.30964429 468.38428644 54.65556065 470.5 57 C473.76390848 60.61676345 476.98790949 64.26389608 480.1875 67.9375 C482.27211164 70.30964429 484.38428644 72.65556065 486.5 75 C489.76390848 78.61676345 492.98790949 82.26389608 496.1875 85.9375 C498.27211164 88.30964429 500.38428644 90.65556065 502.5 93 C505.76390848 96.61676345 508.98790949 100.26389608 512.1875 103.9375 C514.27211164 106.30964429 516.38428644 108.65556065 518.5 111 C521.76390848 114.61676345 524.98790949 118.26389608 528.1875 121.9375 C530.27211164 124.30964429 532.38428644 126.65556065 534.5 129 C537.76390848 132.61676345 540.98790949 136.26389608 544.1875 139.9375 C546.27211164 142.30964429 548.38428644 144.65556065 550.5 147 C553.76390848 150.61676345 556.98790949 154.26389608 560.1875 157.9375 C562.27211164 160.30964429 564.38428644 162.65556065 566.5 165 C569.76390848 168.61676345 572.98790949 172.26389608 576.1875 175.9375 C578.27211164 178.30964429 580.38428644 180.65556065 582.5 183 C585.76390848 186.61676345 588.98790949 190.26389608 592.1875 193.9375 C594.27211164 196.30964429 596.38428644 198.65556065 598.5 201 C601.76704335 204.62023723 604.99520776 208.26983565 608.1953125 211.94921875 C610.22958141 214.26088797 612.3022231 216.5353143 614.375 218.8125 C617.42858867 222.18940982 620.34429205 225.63217132 623.1875 229.1875 C628.09003486 235.25320218 633.42258037 240.88164977 638.76953125 246.5546875 C641.66014891 249.62447226 644.47165564 252.74957975 647.21728516 255.94995117 C649.35000824 258.4024951 651.52269813 260.81672517 653.69921875 263.23046875 C654.90904419 264.57274536 654.90904419 264.57274536 656.14331055 265.94213867 C656.75601807 266.62123291 657.36872559 267.30032715 658 268 C658.13582605 226.51431711 657.83055102 185.04664823 657.22231936 143.56572199 C657.13292105 137.41572709 657.05355414 131.26562871 656.97601616 125.11547446 C656.89911224 119.05112436 656.81530102 112.98689436 656.7262429 106.92271066 C656.67400782 103.35838054 656.62431898 99.79406767 656.58185196 96.22960663 C656.84671436 60.55194034 656.84671436 60.55194034 641.5546875 29.265625 C628.83378384 16.87772929 607.74985367 12.50744258 590.92919922 9.44287109 C589 9 589 9 588 8 C588 5.36 588 2.72 588 0 C728.25 0 868.5 0 1013 0 C1013 2.64 1013 5.28 1013 8 C1011.51247048 9.48752952 1010.00974368 9.44127146 1007.94921875 9.796875 C986.73894392 13.30064761 986.73894392 13.30064761 970.4375 26.2421875 C964.72072954 36.14909085 964.65710088 46.63726225 967.375 57.6875 C973.29779538 78.51051303 982.17059117 98.69288817 989.98730469 118.86279297 C995.85038628 133.99510296 1001.65470653 149.14934091 1007.4375 164.3125 C1008.33284028 166.65983255 1009.22818534 169.00716328 1010.12353516 171.35449219 C1011.45746772 174.85169993 1012.79139397 178.34891008 1014.12521362 181.84616089 C1019.19338314 195.13261471 1024.27825522 208.41266496 1029.36914062 221.69042969 C1030.09508019 223.5839736 1030.82099163 225.47752829 1031.546875 227.37109375 C1032.08501831 228.77489792 1032.08501831 228.77489792 1032.6340332 230.20706177 C1035.01130194 236.41146105 1037.3807653 242.61879952 1039.74601746 248.82778931 C1041.40763934 253.18908494 1043.07149599 257.54952647 1044.73550415 261.90991211 C1045.52891584 263.9908678 1046.32123591 266.07224006 1047.11239624 268.15405273 C1048.20626411 271.03215626 1049.30390402 273.90879509 1050.40234375 276.78515625 C1050.72338074 277.63288101 1051.04441772 278.48060577 1051.37518311 279.35401917 C1053.03920864 283.69974034 1054.8295933 287.87402486 1057 292 C1057.43006348 290.874729 1057.86012695 289.74945801 1058.30322266 288.59008789 C1067.45498196 264.64919732 1076.64035802 240.7215493 1085.875 216.8125 C1095.5276553 191.81796709 1105.17824807 166.82270298 1114.77246094 141.80566406 C1116.20029663 138.08269074 1117.6305166 134.36065233 1119.06347656 130.63964844 C1125.20565959 114.68330756 1131.24490613 98.71063713 1136.6875 82.5 C1137.08598145 81.31937988 1137.48446289 80.13875977 1137.89501953 78.92236328 C1142.63240046 64.53621961 1148.02258082 47.98585257 1143 33 C1138.26277613 23.87645773 1130.27032991 19.60929309 1121 16 C1116.78889755 14.74420731 1112.54042391 13.75701431 1108.25 12.8125 C1106.08825675 12.32026001 1103.92679009 11.82680348 1101.765625 11.33203125 C1100.26999023 10.99292725 1100.26999023 10.99292725 1098.74414062 10.64697266 C1095.45753235 9.87210505 1092.23244426 8.97435106 1089 8 C1089 5.36 1089 2.72 1089 0 C1134.87 0 1180.74 0 1228 0 C1228 2.97 1228 5.94 1228 9 C1227.10539062 9.17015625 1226.21078125 9.3403125 1225.2890625 9.515625 C1205.7743039 13.42689858 1191.72273122 22.03000962 1180.46508789 38.64990234 C1165.08220079 61.958089 1155.28122502 88.41042573 1145.16943359 114.31274414 C1139.5804226 128.61778582 1133.80738206 142.84485994 1128 157.0625 C1127.52328857 158.23000793 1127.04657715 159.39751587 1126.55541992 160.60040283 C1124.66649339 165.22641561 1122.77731693 169.85232598 1120.8873291 174.47790527 C1117.07427301 183.81163778 1113.28237276 193.15380064 1109.5 202.5 C1103.35622301 217.67600412 1097.17994584 232.83869294 1091 248 C1084.71813304 263.41220151 1078.43913023 278.82550527 1072.1875 294.25 C1071.89840759 294.96297241 1071.60931519 295.67594482 1071.3114624 296.41052246 C1068.04703974 304.46183427 1064.79062027 312.51632491 1061.5438385 320.57476807 C1059.95915771 324.50717841 1058.37265056 328.43885082 1056.78604126 332.3704834 C1056.01650176 334.27903035 1055.24791522 336.18796183 1054.48031616 338.09729004 C1053.41881959 340.73765028 1052.35426659 343.37675877 1051.2890625 346.015625 C1050.97005478 346.81154053 1050.65104706 347.60745605 1050.32237244 348.42749023 C1048.11380296 353.88619704 1048.11380296 353.88619704 1047 355 C1043.66672158 355.1424478 1040.33546107 355.04222103 1037 355 C1032.7159833 346.96777876 1029.28718512 338.63795943 1025.87313843 330.21286011 C1024.48250542 326.78153788 1023.08285143 323.35391593 1021.68382263 319.92601013 C1020.93776398 318.09786429 1020.19213506 316.26954301 1019.44691467 314.4410553 C1015.22772941 304.0925075 1010.95820685 293.76486559 1006.6875 283.4375 C1005.88520714 281.4964386 1005.08296133 279.55535775 1004.28076172 277.61425781 C1002.66182677 273.69701781 1001.04266417 269.77987202 999.42333984 265.86279297 C995.84179243 257.1986415 992.26323524 248.53325499 988.68447876 239.86795044 C986.70644416 235.078582 984.72821199 230.28929517 982.75 225.5 C981.95833239 223.58333372 981.16666572 221.66666706 980.375 219.75 C979.983125 218.80125 979.59125 217.8525 979.1875 216.875 C975.62499998 208.24999994 975.62499998 208.24999994 974.4375 205.37498474 C973.64584769 203.45836301 972.85418102 201.5417472 972.0625 199.62513733 C970.08299588 194.83283173 968.1037415 190.04042327 966.125 185.24780273 C962.56683795 176.63042475 959.00696497 168.01377654 955.43763733 159.40101624 C953.45718185 154.62202523 951.47824235 149.8424075 949.5 145.0625 C948.91667404 143.6532576 948.91667404 143.6532576 948.32156372 142.21554565 C943.81353187 131.31810551 939.342887 120.40654522 934.93359375 109.46875 C934.51353058 108.42698105 934.09346741 107.3852121 933.66067505 106.31187439 C931.65763542 101.34103233 929.65922028 96.36839792 927.66796875 91.39282227 C923.80250856 81.75727734 919.84004762 72.16930768 915.7265625 62.63671875 C915.32239609 61.69401627 914.91822968 60.75131378 914.5018158 59.78004456 C905.91415461 40.04338885 893.86646728 22.01631264 873.4765625 13.25390625 C856.1529717 7.00573474 835.24253492 6.74394795 818 13.8125 C816.64593428 14.50240421 815.31095543 15.23132734 814 16 C813.31679688 16.39703125 812.63359375 16.7940625 811.9296875 17.203125 C801.49226697 24.10849068 797.55771891 35.25670507 795 47 C792.77698641 59.82539732 792.71438233 72.54024347 792.74121094 85.52050781 C792.73849507 87.74654759 792.73493082 89.97258646 792.73059082 92.19862366 C792.72153326 98.20091647 792.7249841 104.20313994 792.73134899 110.20543385 C792.73644606 116.51812222 792.73170707 122.83080502 792.72857666 129.14349365 C792.72471477 140.42225524 792.73089599 151.70098853 792.74109533 162.97974345 C792.75002017 173.1634317 792.74848357 183.3470743 792.73925781 193.53076172 C792.72850318 205.40731614 792.72459869 217.28384852 792.73048234 229.16040874 C792.73358095 235.42847585 792.73407021 241.69651168 792.72740936 247.96457672 C792.72157675 253.86461915 792.72573954 259.76457654 792.73719788 265.66460991 C792.73981363 267.81382291 792.73913314 269.96304323 792.73467255 272.11225319 C792.70157617 289.69787652 793.71337327 306.96442459 797.125 324.25 C797.30675781 325.2090625 797.48851562 326.168125 797.67578125 327.15625 C798.10952223 329.43909725 798.55070544 331.72017344 799 334 C799.91495239 334.12846313 799.91495239 334.12846313 800.84838867 334.25952148 C803.62830451 334.65069064 806.40790264 335.04407444 809.1875 335.4375 C810.62706055 335.63956055 810.62706055 335.63956055 812.09570312 335.84570312 C813.49272461 336.04389648 813.49272461 336.04389648 814.91796875 336.24609375 C815.77156982 336.36654053 816.6251709 336.4869873 817.50463867 336.61108398 C820 337 820 337 822.30712891 337.53222656 C825.92353892 338.16042616 829.5081101 338.20218292 833.16796875 338.23828125 C833.96165359 338.246353 834.75533844 338.25442474 835.57307434 338.26274109 C837.25662075 338.27654664 838.94019473 338.28728452 840.6237793 338.29516602 C842.30973789 338.30656522 843.99566397 338.32681989 845.68139648 338.35668945 C867.81059809 338.74775739 888.36522512 334.48895793 905.42578125 319.51953125 C920.86176544 304.41147388 931.0188517 285.47470585 941.6171875 266.87109375 C944.30235225 262.17167894 947.09040618 257.56352643 950 253 C952.31 253.99 954.62 254.98 957 256 C956.3076709 262.45111914 954.56059625 268.48383217 952.75390625 274.703125 C952.2588987 276.42822296 952.2588987 276.42822296 951.75389099 278.18817139 C950.69444619 281.87671583 949.62864551 285.56338742 948.5625 289.25 C947.88042629 291.61966705 947.19878226 293.98945782 946.51757812 296.359375 C944.34688326 303.9067769 942.17338306 311.45337176 940 319 C936.7 330.55 933.4 342.1 930 354 C849.81 354 769.62 354 687 354 C687 351.03 687 348.06 687 345 C687.68924561 344.87471924 688.37849121 344.74943848 689.08862305 344.62036133 C715.7724615 340.46232764 715.7724615 340.46232764 737.3125 325.375 C750.17862991 306.55694849 747.15622151 276.90930181 747.12939453 255.12158203 C747.13075455 253.22644518 747.13253782 251.33130859 747.13470459 249.43617249 C747.13921065 244.35078723 747.13751701 239.26542257 747.1343255 234.18003702 C747.13176248 228.80629331 747.13415062 223.43255116 747.13571167 218.05880737 C747.13752356 209.02976165 747.13515455 200.00072415 747.13037109 190.97167969 C747.12494693 180.61539774 747.12668167 170.25913554 747.1321975 159.90285408 C747.13677661 150.93814781 747.1373555 141.97344738 747.13475883 133.00874031 C747.13322003 127.68722135 747.13293452 122.36571159 747.13629532 117.04419327 C751.05197836 64.67684805 751.05197836 64.67684805 737.8125 16.5625 C730.35595288 9.76875707 721.84414562 8.8992067 712 9 C704.16979424 9.70008717 697.61473113 12.24591914 691.375 17 C680.04415272 31.31264919 679.90215837 48.17371572 679.61108398 65.59326172 C679.58171287 67.17070233 679.55200793 68.74813675 679.52199841 70.32556534 C679.44146792 74.62342878 679.36647895 78.92137221 679.29285669 83.21935892 C679.2457698 85.94846345 679.19731149 88.67754021 679.14838791 91.4066124 C678.91902669 104.20459659 678.70188156 117.00276524 678.48888445 129.80103111 C678.43764697 132.86620778 678.38580339 135.93137357 678.33373642 138.99653625 C677.12221449 210.33883985 676.58349255 281.64783467 677 353 C674.69 353.66 672.38 354.32 670 355 C665.26660331 349.87328381 660.83193824 344.57628963 656.5625 339.0625 C652.6270919 333.98662946 648.53026724 329.155682 644.1796875 324.42578125 C641.86407108 321.84872426 639.67794934 319.19417609 637.5 316.5 C633.88267336 312.02858234 630.10174212 307.75586164 626.2265625 303.5078125 C624.02139243 301.02409464 621.94488996 298.47205295 619.875 295.875 C615.34754877 290.27148201 610.45649907 285.05059067 605.49169922 279.83349609 C601.78291191 275.93214658 598.18472646 271.96080766 594.65673828 267.89526367 C592.24029133 265.13091388 589.75030371 262.43836074 587.25 259.75 C586.20032051 258.61737312 585.15084569 257.48455653 584.1015625 256.3515625 C583.58110352 255.78985352 583.06064453 255.22814453 582.52441406 254.64941406 C580.21468976 252.15029533 577.9205045 249.63718929 575.625 247.125 C569.13606064 240.034188 562.5692792 233.01631149 556 226 C555.39639648 225.35514648 554.79279297 224.71029297 554.17089844 224.04589844 C550.43991118 220.06075132 546.70566643 216.07867875 542.96923828 212.09863281 C540.90399157 209.89768306 538.84069088 207.69491805 536.77734375 205.4921875 C535.37247807 203.99471451 533.9675322 202.49731675 532.5625 201 C531.60561279 199.97737061 531.60561279 199.97737061 530.62939453 198.93408203 C526.76806958 194.82344476 522.83247734 190.80423875 518.8137207 186.84716797 C517.00125185 185.00127493 515.30440254 183.09205243 513.625 181.125 C510.88378551 177.93317491 507.99314112 174.95697023 505 172 C501.39280873 168.43640017 498.00522111 164.78075144 494.7109375 160.9296875 C492.25548723 158.16029838 489.60903661 155.59964876 486.97265625 153.00390625 C484.42662171 150.41753849 482.07978443 147.6846472 479.71484375 144.93359375 C477.52873686 142.46862128 475.19429245 140.18119453 472.84350586 137.87475586 C471.0653795 136.06648777 469.40303314 134.20388497 467.75 132.28125 C464.10326989 128.08654563 460.32197842 124.03474835 456.5 120 C452.10504081 115.36037297 447.79727556 110.66985818 443.60742188 105.84375 C441.44278786 103.36086481 439.22443814 100.9293206 437 98.5 C425.81818182 86.22727273 425.81818182 86.22727273 423 82 C422.97633137 99.26759283 422.95885812 116.53518039 422.94818783 133.80278587 C422.9430953 141.82572356 422.93616277 149.8486509 422.92456055 157.87158203 C422.81075344 201.30432522 422.81075344 201.30432522 423.453125 244.73046875 C423.47345732 245.5631213 423.49378963 246.39577385 423.51473808 247.25365829 C424.06410853 287.88197456 424.06410853 287.88197456 442 323 C442.91652344 324.01513672 442.91652344 324.01513672 443.8515625 325.05078125 C456.3192081 337.4462204 474.46628835 341.19481328 491 345 C491 347.97 491 350.94 491 354 C442.16 354 393.32 354 343 354 C343 351.03 343 348.06 343 345 C344.258125 344.8040625 345.51625 344.608125 346.8125 344.40625 C363.98896961 341.49658403 379.47153145 336.23770913 390.0625 321.6875 C412.2939369 286.83239835 406.14641407 235.07034753 406.36918616 195.62552905 C406.38688689 192.52918138 406.40573077 189.43284267 406.42493629 186.33650398 C406.49203991 175.49641257 406.55439201 164.65630508 406.61254883 153.81616211 C406.66660281 143.76674133 406.73176428 133.71743252 406.80188721 123.66811222 C406.86197722 114.98041838 406.91395815 106.29269955 406.95981437 97.60491902 C406.98722007 92.44148954 407.01783627 87.2781308 407.05682945 82.1147747 C407.09319591 77.26608859 407.11938225 72.41744796 407.1381073 67.56866264 C407.14659444 65.80314036 407.15855653 64.03763033 407.17449379 62.27215958 C407.6998371 38.78524733 407.6998371 38.78524733 398.75 17.6875 C391.63261326 10.73187205 382.38861576 9.10223171 372.6875 8.6875 C363.86654052 8.9572056 354.35831542 10.33108353 347.54296875 16.2890625 C335.62534725 29.50404533 337.84976302 52.91129573 338.02734375 69.484375 C338.13059337 86.45895774 337.77509734 103.42150501 337.37890625 120.390625 C337.35512508 121.41003394 337.35512508 121.41003394 337.33086348 122.450037 C337.13321429 130.89483978 336.92808117 139.3394531 336.72039449 147.78401423 C336.57881149 153.55274714 336.44193706 159.32158404 336.30632645 165.09046006 C336.15689591 171.4448792 336.00482878 177.79923248 335.85142326 184.15355682 C335.78733691 186.8083923 335.72410476 189.46324364 335.66131783 192.11811066 C335.36414772 204.61387816 335.04045998 217.1075112 334.53100586 229.59667969 C334.4967151 230.48892872 334.46242434 231.38117775 334.42709446 232.30046463 C332.79470746 269.67360587 321.50587107 305.8137626 293.46240234 331.71044922 C289.88912763 334.8613736 286.02782859 337.47363101 282 340 C281.23558594 340.50917969 280.47117187 341.01835937 279.68359375 341.54296875 C256.07518238 356.6725767 226.42093407 360.56971745 198.99145508 360.39111328 C196.06739557 360.37502693 193.1447214 360.3910754 190.22070312 360.41015625 C153.56180897 360.45163993 116.62153231 351.93082926 89.6328125 325.69921875 C76.50808694 311.82515764 68.92282215 295.31821988 64.1875 277 C63.9925293 276.25476074 63.79755859 275.50952148 63.59667969 274.74169922 C60.17765991 260.51387351 59.70268608 246.03687837 59.71289062 231.48095703 C59.70684728 229.6964894 59.6999183 227.91202458 59.69218445 226.12756348 C59.67743336 222.32079373 59.6685813 218.51407515 59.66447449 214.70727921 C59.65768488 208.66856051 59.63584355 202.62994991 59.61193848 196.59127808 C59.56323964 183.76921092 59.53075144 170.94712087 59.5 158.125 C59.46678891 144.28274683 59.43063195 130.44053675 59.37586927 116.59834945 C59.3527477 110.61494586 59.33883758 104.63161826 59.33237457 98.64817452 C59.32636945 94.90406036 59.31221757 91.16000672 59.29603004 87.41592407 C59.29023338 85.70168737 59.28766494 83.98743563 59.28886986 82.27318954 C59.29332932 73.38653715 59.00267864 64.6161825 58.09143066 55.771698 C58.01197 54.99750365 57.93250934 54.22330931 57.85064077 53.42565453 C56.57923307 42.17073325 53.74038495 30.55884836 44.66015625 23.0703125 C31.9956573 14.40415022 17.64816092 11.86552679 2.8190918 9.40136719 C1 9 1 9 0 8 C0 5.36 0 2.72 0 0 Z " fill="#212120" transform="translate(0,0)"/>
</svg>
