<?xml version="1.0" encoding="UTF-8"?>
<svg version="1.1" xmlns="http://www.w3.org/2000/svg" width="1140" height="760">
<path d="M0 0 C3.63 0.66 7.26 1.32 11 2 C8.30396567 12.87421744 5.53830332 23.7278351 2.6875 34.5625 C2.38159943 35.72665939 2.38159943 35.72665939 2.06951904 36.91433716 C-3.07660812 56.4755377 -8.42335066 75.98236847 -13.76319885 95.49137878 C-14.06564011 96.59637222 -14.36808136 97.70136566 -14.6796875 98.83984375 C-14.97346786 99.91305374 -15.26724823 100.98626373 -15.56993103 102.09199524 C-17.74674076 110.05257189 -19.89293664 118.02067132 -22 126 C-21.25830566 126.36778564 -20.51661133 126.73557129 -19.75244141 127.11450195 C-4.34619568 134.87202338 5.49774416 146.73597905 11 163 C13.27301092 170.91765471 14.59334262 178.77789611 15 187 C15.04125 187.69996094 15.0825 188.39992188 15.125 189.12109375 C15.68627855 207.67836594 11.01927636 228.09013771 -1.3125 242.3125 C-12.31012064 253.75002547 -25.14324598 260.71643296 -41.2265625 261.1484375 C-53.65867229 261.31172095 -53.65867229 261.31172095 -59 260 C-59.1242334 261.15878662 -59.2484668 262.31757324 -59.37646484 263.51147461 C-59.90450252 267.71039291 -60.85229354 271.7407052 -61.9765625 275.81640625 C-62.17856262 276.56569397 -62.38056274 277.31498169 -62.58868408 278.0869751 C-63.2623091 280.58024275 -63.94366757 283.07132855 -64.625 285.5625 C-65.1073911 287.34256814 -65.58931207 289.12276374 -66.07080078 290.90307617 C-67.70532206 296.93772241 -69.35176386 302.96908727 -71 309 C-71.46515015 310.70216675 -71.46515015 310.70216675 -71.93969727 312.4387207 C-72.59091333 314.82147875 -73.24221066 317.20421459 -73.89358521 319.58692932 C-74.55967765 322.02367862 -75.22559081 324.46047693 -75.8913269 326.89732361 C-77.5185311 332.85319463 -79.14813192 338.80838058 -80.78369141 344.76196289 C-84.35868431 357.80192689 -87.79338983 370.86441016 -91 384 C-92.45903258 383.69078116 -93.91720722 383.37751201 -95.375 383.0625 C-96.59316406 382.80146484 -96.59316406 382.80146484 -97.8359375 382.53515625 C-100 382 -100 382 -102 381 C-101.38457867 376.15834989 -100.4573867 371.54825159 -99.20703125 366.83203125 C-99.02462891 366.14012192 -98.84222656 365.44821259 -98.65429688 364.7353363 C-98.04437675 362.42664077 -97.42854083 360.11956924 -96.8125 357.8125 C-96.3737129 356.15793836 -95.93516153 354.50331419 -95.49682617 352.84863281 C-90.24304365 333.04947864 -84.90648007 313.27202973 -79.56184387 293.49723816 C-78.05040895 287.90332756 -76.54661556 282.3074803 -75.05224609 276.70898438 C-74.73205002 275.51198914 -74.41185394 274.3149939 -74.08195496 273.08172607 C-73.46293456 270.76680744 -72.84561093 268.45143426 -72.23017883 266.13555908 C-71.95272324 265.09921326 -71.67526764 264.06286743 -71.3894043 262.99511719 C-71.14473923 262.07704285 -70.90007416 261.15896851 -70.647995 260.21307373 C-70 258 -70 258 -69 256 C-69.71671875 255.89558594 -70.4334375 255.79117188 -71.171875 255.68359375 C-81.71190976 253.13593342 -90.05594343 244.08335511 -95.75 235.30078125 C-103.39861617 221.89658142 -106.39267071 208.40698129 -106.25 193.0625 C-106.24323242 192.00708008 -106.23646484 190.95166016 -106.22949219 189.86425781 C-105.96085151 169.66622728 -100.40308303 151.39265108 -86 136.73828125 C-76.85207934 128.01354196 -64.10883886 122.8317942 -51.48046875 122.90234375 C-49.9480957 122.90717773 -49.9480957 122.90717773 -48.38476562 122.91210938 C-47.32966797 122.92048828 -46.27457031 122.92886719 -45.1875 122.9375 C-44.11306641 122.94201172 -43.03863281 122.94652344 -41.93164062 122.95117188 C-39.28770023 122.96292272 -36.64388884 122.980221 -34 123 C-30.28272986 110.14906804 -26.6850379 97.27344546 -23.25893974 84.34186363 C-22.53246503 81.60062616 -21.80318898 78.86014619 -21.07325745 76.11982727 C-19.00312988 68.34643654 -16.93739527 60.57188218 -14.87426758 52.79663086 C-13.59943205 47.99296157 -12.32117337 43.19021319 -11.04094124 38.38797951 C-10.56089523 36.58455726 -10.08212371 34.78079518 -9.60476494 32.97665977 C-6.67149723 21.89132981 -3.52332599 10.91289314 0 0 Z M-68 139 C-70.10430501 142.19894348 -71.62116217 145.43423497 -73 149 C-73.29390625 149.74121094 -73.5878125 150.48242188 -73.890625 151.24609375 C-82.76743238 175.65731404 -82.33649721 211.5075856 -71.4765625 235.34375 C-69.09325466 240.4762444 -69.09325466 240.4762444 -65 244 C-64.63986816 242.61893066 -64.63986816 242.61893066 -64.27246094 241.20996094 C-59.24930385 221.96368816 -54.13563766 202.74529699 -48.875 183.5625 C-44.08179384 166.08328505 -39.45034025 148.56965567 -35 131 C-48.11202683 124.96910416 -58.37349043 128.27845454 -68 139 Z M-26 139 C-31.58619888 157.60251147 -36.60432763 176.33688758 -41.5333252 195.12097168 C-43.10207566 201.09724099 -44.67586101 207.07218632 -46.25035858 213.04694366 C-46.62831442 214.48196162 -47.00590728 215.91707522 -47.38312531 217.35228729 C-49.72119385 226.24797362 -52.08232649 235.13562711 -54.67434692 243.96151733 C-55.59743691 247.17329869 -56 249.60686106 -56 253 C-49.37501139 256.15415328 -40.42954052 256.52180533 -33.453125 254.125 C-31.39373962 252.91171869 -29.74201503 251.63366003 -28 250 C-27.46117187 249.5153125 -26.92234375 249.030625 -26.3671875 248.53125 C-11.44740917 233.23660287 -12.57111361 206.3737816 -12.78515625 186.60546875 C-13.11639409 169.95510925 -15.83437583 153.2576376 -25 139 C-25.33 139 -25.66 139 -26 139 Z " fill="#221E1F" transform="translate(553,188)"/>
<path d="M0 0 C2.08086887 2.08086887 1.1858231 6.59636517 1.20532227 9.46704102 C1.21522186 10.35476196 1.22512146 11.24248291 1.23532104 12.15710449 C1.26703484 15.10601082 1.29173234 18.05493329 1.31640625 21.00390625 C1.33696726 23.0427239 1.35796349 25.08153721 1.37937927 27.12034607 C1.4346881 32.49779755 1.48405838 37.87528806 1.53222656 43.25280762 C1.58237742 48.73563121 1.63809689 54.21839784 1.69335938 59.70117188 C1.80104865 70.4673993 1.90246954 81.2336761 2 92 C2.58587891 91.25234375 3.17175781 90.5046875 3.77539062 89.734375 C4.56107422 88.74953125 5.34675781 87.7646875 6.15625 86.75 C6.92775391 85.77546875 7.69925781 84.8009375 8.49414062 83.796875 C12.3938753 79.4442483 16.83975602 76.65968522 22 74 C23.02287109 73.46052734 23.02287109 73.46052734 24.06640625 72.91015625 C33.04648134 69.0966997 45.94918487 69.5529516 55.0625 72.625 C69.87062843 79.10072589 79.72670781 90.20092685 85.83447266 105.02539062 C93.09412136 124.45120922 92.6141019 148.46129241 86 168 C85.63777344 169.08925781 85.27554688 170.17851562 84.90234375 171.30078125 C79.06457157 186.87477008 67.97555193 198.08488223 53 205 C35.15612155 212.17116622 18.23043089 208.99927352 0.625 203.25 C-5.31283808 201.42759438 -11.25480469 200.74178549 -17 203.375 C-19.06216824 204.9935688 -19.06216824 204.9935688 -21 207 C-21.99 207 -22.98 207 -24 207 C-24.00054477 206.06662969 -24.00108953 205.13325937 -24.00165081 204.17160511 C-24.01604003 181.47080277 -24.05903089 158.77019233 -24.13209057 136.06950092 C-24.166758 125.09164008 -24.1920984 114.11390503 -24.19555664 103.13598633 C-24.19859409 93.56870084 -24.21905509 84.00163929 -24.26052457 74.43444031 C-24.28187611 69.36763858 -24.29444409 64.30115539 -24.28615379 59.23430824 C-24.27862733 54.46615099 -24.29437914 49.6986399 -24.32806015 44.93060112 C-24.33631039 43.1798709 -24.33602341 41.42907664 -24.32659721 39.67835236 C-24.31500215 37.28836944 -24.33404902 34.90051375 -24.36076355 32.51069641 C-24.35009029 31.81710803 -24.33941703 31.12351965 -24.32842034 30.40891343 C-24.40753646 26.61794149 -24.93349298 25.08169822 -27.35904408 22.10211468 C-30.21458318 19.8291988 -32.27734208 18.99675302 -35.8125 18.1875 C-36.78832031 17.95417969 -37.76414062 17.72085937 -38.76953125 17.48046875 C-39.87361328 17.24263672 -39.87361328 17.24263672 -41 17 C-41 15.35 -41 13.7 -41 12 C-35.96783198 10.28134569 -30.93242889 8.57266317 -25.89379883 6.87304688 C-24.1809637 6.29373179 -22.4690366 5.71172464 -20.75805664 5.12695312 C-18.29548412 4.28583048 -15.82978519 3.45451236 -13.36328125 2.625 C-12.60163162 2.36251465 -11.83998199 2.1000293 -11.05525208 1.82958984 C-7.2848274 0.57212273 -4.03184138 -0.44782152 0 0 Z M3 99 C1.40946289 102.18107422 1.82581237 105.62309733 1.80712891 109.11816406 C1.79895142 109.957379 1.79077393 110.79659393 1.78234863 111.66123962 C1.75748176 114.44602745 1.74097451 117.23076423 1.7265625 120.015625 C1.72123882 120.96613487 1.71591515 121.91664474 1.71043015 122.89595795 C1.68369176 127.92786351 1.66431987 132.95974421 1.64990234 137.99169922 C1.63326117 143.18831173 1.5884898 148.38428923 1.5375309 153.58066177 C1.50386545 157.57670821 1.49232562 161.57260388 1.48667526 165.56877899 C1.47995985 167.48413694 1.46473026 169.39948487 1.44078445 171.3147049 C1.40914744 173.99841428 1.4090938 176.68041073 1.41650391 179.36425781 C1.40009857 180.15305832 1.38369324 180.94185883 1.36679077 181.75456238 C1.43172185 187.51035624 2.90980918 189.95259289 7 194 C14.95640969 200.55653869 22.72126801 203.65562288 33.0390625 203.34375 C40.10909948 202.52295415 45.59818412 199.38251484 50.375 194.15234375 C64.14058932 175.91955597 65.01747825 148.95445422 62.69970703 127.17871094 C60.62255205 113.466842 55.62392204 100.37288075 45 91 C29.60271867 81.08404065 14.20968499 85.74154752 3 99 Z " fill="#231F20" transform="translate(910,313)"/>
<path d="M0 0 C1.45635864 0.00845947 1.45635864 0.00845947 2.94213867 0.01708984 C13.73749585 0.20032337 22.82764173 1.95194024 31.125 9.3125 C39.51463351 18.87668221 39.54716943 31.59136586 39.3828125 43.62890625 C39.37464432 45.09463257 39.36799285 46.56036804 39.36276245 48.02610779 C39.34577144 51.86452606 39.31164051 55.70258132 39.27270508 59.54083252 C39.20615402 66.38253151 39.16867731 73.22448819 39.1328125 80.06640625 C39.12865641 80.79301704 39.12450031 81.51962784 39.12021828 82.26825714 C38.74487517 102.9855101 38.74487517 102.9855101 42.125 123.3125 C47.10056199 123.59955165 49.26637684 123.37278734 53.125 120.3125 C55.375 120.625 55.375 120.625 57.125 121.3125 C56.31824338 127.17425066 53.45663756 130.44167495 49.125 134.3125 C43.89766776 137.51463861 38.1282253 138.07240194 32.125 137.3125 C24.83398013 135.30118417 20.49168925 130.41244108 16.796875 124.01171875 C15.85190605 122.13841764 14.98031163 120.22839806 14.125 118.3125 C13.61453125 118.88097656 13.1040625 119.44945312 12.578125 120.03515625 C2.6690369 130.55917003 -9.64315407 137.63494085 -24.2421875 138.515625 C-33.9081066 138.64479096 -41.04114592 137.94209902 -48.265625 131.1484375 C-54.44908908 124.09448576 -55.64738847 117.10484675 -55.28515625 107.86328125 C-54.23789718 98.79700984 -49.59084949 92.33954442 -42.875 86.3125 C-30.32833178 77.11160997 -15.56890843 71.15038171 -1.0625 65.8125 C-0.11318604 65.461875 0.83612793 65.11125 1.81420898 64.75 C3.15334351 64.27046875 3.15334351 64.27046875 4.51953125 63.78125 C5.31206299 63.49701172 6.10459473 63.21277344 6.92114258 62.91992188 C9.125 62.3125 9.125 62.3125 13.125 62.3125 C13.17526066 58.27811564 13.2111162 54.24385797 13.23486328 50.20922852 C13.24478563 48.8429852 13.25832786 47.47676231 13.27587891 46.1105957 C13.69022083 26.15812453 13.69022083 26.15812453 5 8.875 C0.32329257 6.33331118 -4.69892587 5.63277201 -9.9375 6.75390625 C-14.99097212 8.6598494 -17.5987057 11.6136168 -19.86328125 16.40234375 C-21.87702229 21.19955695 -23.41638862 26.07131417 -24.875 31.0625 C-27.18454871 38.68938178 -30.19072706 43.72525387 -36.875 48.3125 C-40.3125 49.5 -40.3125 49.5 -43.875 49.3125 C-47.2006527 47.2496697 -50.11010376 44.84229247 -51.875 41.3125 C-52.79018359 31.56054376 -51.19126682 25.37912671 -45.25 17.75 C-33.54960389 4.90881527 -16.87623083 -0.10230676 0 0 Z M-20.27734375 83.3671875 C-26.13708309 89.3222933 -28.68942767 95.61036852 -28.9609375 103.953125 C-28.63077821 109.61796329 -27.32481119 114.73385151 -23.875 119.3125 C-18.95278174 123.33063735 -14.92805287 123.90433253 -8.63671875 123.62109375 C0.44290384 122.60653903 6.49308119 118.51018603 13.125 112.3125 C14.27910254 110.00429492 14.2460297 108.70465724 14.23852539 106.13818359 C14.23844986 105.27744232 14.23837433 104.41670105 14.23829651 103.52987671 C14.23313522 102.59962677 14.22797394 101.66937683 14.22265625 100.7109375 C14.22053383 99.28353745 14.22053383 99.28353745 14.21836853 97.82730103 C14.21276012 94.78066903 14.20020619 91.73410987 14.1875 88.6875 C14.18248608 86.62500106 14.17792299 84.56250097 14.17382812 82.5 C14.16278796 77.43747183 14.14551767 72.37499827 14.125 67.3125 C3.2988192 67.3125 -12.39732698 76.62753088 -20.27734375 83.3671875 Z " fill="#231F20" transform="translate(782.875,383.6875)"/>
<path d="M0 0 C10.60680008 8.688549 16.23170191 19.84145121 18.40625 33.18359375 C18.5703125 36.10546875 18.5703125 36.10546875 17.5703125 43.10546875 C-9.4896875 43.10546875 -36.5496875 43.10546875 -64.4296875 43.10546875 C-62.94829668 75.94652627 -62.94829668 75.94652627 -46.5234375 103.609375 C-35.35077025 111.5928294 -24.75564335 113.0173995 -11.4296875 112.10546875 C-8.14452988 111.52357891 -5.41708473 110.56953049 -2.4296875 109.10546875 C-1.6975 108.77675781 -0.9653125 108.44804687 -0.2109375 108.109375 C6.18976422 104.94190446 10.76659693 100.31801118 15.5703125 95.10546875 C17.5503125 96.09546875 17.5503125 96.09546875 19.5703125 97.10546875 C15.42147162 108.71384171 6.52621659 117.65401722 -4.1796875 123.35546875 C-20.42411059 130.94973654 -36.73271389 131.06867361 -53.4296875 125.10546875 C-56.68230812 123.72482465 -59.52654785 122.11450602 -62.4296875 120.10546875 C-63.23792969 119.55246094 -64.04617187 118.99945313 -64.87890625 118.4296875 C-79.78483472 107.40432233 -88.12113326 90.54377006 -91.11621094 72.52734375 C-93.81782038 51.65509635 -90.5344847 29.17563125 -78.1796875 11.79296875 C-59.84235637 -11.37792577 -24.51171382 -16.75800843 0 0 Z M-53.64453125 4.7578125 C-60.44459256 13.70056272 -63.4296875 25.97505581 -63.4296875 37.10546875 C-44.9496875 37.10546875 -26.4696875 37.10546875 -7.4296875 37.10546875 C-8.82245185 17.29899714 -8.82245185 17.29899714 -19.3046875 1.23046875 C-30.12919591 -7.52083731 -44.50716657 -5.25150746 -53.64453125 4.7578125 Z " fill="#231F20" transform="translate(246.4296875,319.89453125)"/>
<path d="M0 0 C1.68481406 1.68481406 1.12877463 3.76757606 1.14126813 6.01699221 C1.14019988 6.74080281 1.13913163 7.46461341 1.13803101 8.21035767 C1.14085229 8.97398097 1.14367357 9.73760428 1.14658034 10.52436769 C1.15496473 13.10300649 1.15626787 15.68160256 1.15771484 18.26025391 C1.16238037 20.10123822 1.1675235 21.94222138 1.17311096 23.78320312 C1.18441442 27.75833656 1.19283783 31.7334624 1.19923019 35.70860672 C1.20988799 41.99476178 1.23012791 48.28086258 1.25234985 54.56698608 C1.31434542 72.446162 1.3682671 90.32533541 1.40136719 108.20458984 C1.41971368 118.07106381 1.44865281 127.93744761 1.4893719 137.8038553 C1.51044677 143.02713363 1.5258998 148.25029828 1.52817917 153.47362137 C1.53032702 158.39020648 1.54621058 163.30655515 1.57256889 168.22306824 C1.57975894 170.02617972 1.58186428 171.82931986 1.57846642 173.63244247 C1.57456331 176.09782071 1.58905311 178.56244697 1.60800171 181.02774048 C1.60247201 181.73816675 1.59694232 182.44859302 1.59124506 183.18054736 C1.65777461 188.20948144 2.74140251 191.59782306 5 196 C6.71071062 197.56246538 6.71071062 197.56246538 8.75 198.3125 C9.44609375 198.61285156 10.1421875 198.91320312 10.859375 199.22265625 C13.88043239 200.31971906 16.88105218 201.22026305 20 202 C19.67 203.65 19.34 205.3 19 207 C-0.8 207 -20.6 207 -41 207 C-41 205.35 -41 203.7 -41 202 C-39.89591797 201.67128906 -39.89591797 201.67128906 -38.76953125 201.3359375 C-37.79371094 201.01882813 -36.81789063 200.70171875 -35.8125 200.375 C-34.84957031 200.07335937 -33.88664063 199.77171875 -32.89453125 199.4609375 C-29.32987089 197.66177019 -27.06725819 195.36910438 -25 192 C-24.26007736 188.62740635 -24.26007736 188.62740635 -24.37181091 184.97215271 C-24.36471653 184.28860075 -24.35762214 183.60504878 -24.35031277 182.90078312 C-24.33278595 180.62264581 -24.35080769 178.34622688 -24.36889648 176.06811523 C-24.36375562 174.43003566 -24.35647307 172.79196162 -24.34721375 171.15390015 C-24.32871411 166.71376992 -24.34162846 162.2742409 -24.36130404 157.83413577 C-24.37770103 153.18532037 -24.36887632 148.53654272 -24.36378479 143.88771057 C-24.35926546 136.08235073 -24.37512483 128.27723065 -24.40307617 120.47192383 C-24.4351386 111.44906092 -24.43510749 102.42663017 -24.4178614 93.40373653 C-24.40199683 84.72081933 -24.40872869 76.0380605 -24.42579842 67.35515022 C-24.43266935 63.66104985 -24.43163608 59.96707642 -24.42425346 56.27297783 C-24.4165912 51.92339973 -24.42871456 47.57431342 -24.45610237 43.22481918 C-24.46298752 41.62888486 -24.46308275 40.03290462 -24.45588684 38.43697166 C-24.44719316 36.25772065 -24.46314371 34.07998777 -24.4853363 31.90086365 C-24.48814322 30.6817501 -24.49095015 29.46263655 -24.49384212 28.20658016 C-25.10004404 24.3662072 -26.26290585 22.71668205 -29 20 C-32.00376972 18.76888166 -32.00376972 18.76888166 -35.25 18.1875 C-36.32765625 17.95417969 -37.4053125 17.72085937 -38.515625 17.48046875 C-39.74539063 17.24263672 -39.74539063 17.24263672 -41 17 C-41 15.35 -41 13.7 -41 12 C-36.12942838 10.27909012 -31.25476613 8.57051922 -26.37597656 6.87304688 C-24.71823083 6.29435703 -23.06163487 5.71236217 -21.40625 5.12695312 C-19.02120697 4.28416148 -16.63222811 3.45349646 -14.2421875 2.625 C-13.14026566 2.23127197 -13.14026566 2.23127197 -12.01608276 1.82958984 C-7.88635198 0.41276583 -4.43148609 -0.39413639 0 0 Z " fill="#231F20" transform="translate(661,313)"/>
<path d="M0 0 C29.7 0 59.4 0 90 0 C89.12087063 6.15390558 88.68390994 8.17517017 85.60546875 13.0703125 C85.26227097 13.62461441 84.91907318 14.17891632 84.56547546 14.75001526 C83.83092279 15.93391416 83.09107626 17.11454243 82.34637451 18.29208374 C80.36985832 21.41821054 78.43236779 24.56848918 76.48828125 27.71484375 C76.09914551 28.34205826 75.71000977 28.96927277 75.30908203 29.61549377 C72.03629712 34.90188418 68.92254818 40.26810437 65.875 45.6875 C61.63507582 53.19627364 57.26608985 60.61594455 52.8125 68 C47.20578496 77.29608902 41.66939235 86.62999376 36.1875 96 C35.64848053 96.92128189 35.64848053 96.92128189 35.09857178 97.86117554 C33.69818448 100.25513615 32.29809886 102.64927263 30.89859009 105.04374695 C27.92052431 110.13861667 24.93148727 115.2269743 21.9375 120.3125 C21.52588623 121.01181641 21.11427246 121.71113281 20.69018555 122.43164062 C19.79366605 123.95455015 18.89687323 125.47729877 18 127 C40.38268839 127.52323168 62.28072964 124.94727342 79.375 109.1875 C83.37842004 104.97898672 85.68559313 100.27469472 88 95 C88.65938081 93.66304856 89.32360127 92.32842274 90 91 C91.32 91 92.64 91 94 91 C93.45232981 96.33892797 92.90088247 101.67744726 92.34594727 107.015625 C92.15773589 108.83127302 91.97055302 110.64702797 91.78442383 112.46289062 C91.51654735 115.07450767 91.24496188 117.68571652 90.97265625 120.296875 C90.8491555 121.51271271 90.8491555 121.51271271 90.72315979 122.75311279 C90.35278867 126.27356152 89.86064555 129.55741779 89 133 C56 133 23 133 -11 133 C-9.87528345 125.12698413 -9.87528345 125.12698413 -7.33203125 120.91015625 C-6.4978064 119.50564209 -6.4978064 119.50564209 -5.64672852 118.07275391 C-5.04143311 117.07937012 -4.4361377 116.08598633 -3.8125 115.0625 C-2.52576285 112.90511419 -1.23931233 110.7475574 0.046875 108.58984375 C0.70623047 107.49269043 1.36558594 106.39553711 2.04492188 105.26513672 C5.05188231 100.24327247 7.99443505 95.18448293 10.9375 90.125 C11.51137451 89.14152588 12.08524902 88.15805176 12.67651367 87.14477539 C16.97474143 79.77681153 21.24172954 72.3911134 25.5 65 C36.87500135 45.25942796 48.38389879 25.59961572 60 6 C34.82637179 6.3053535 34.82637179 6.3053535 13 18 C7.92164311 23.72811299 4.14758631 30.04908024 1 37 C-0.32 37 -1.64 37 -3 37 C-2.38978864 24.60307446 -1.23702899 12.37028988 0 0 Z " fill="#231F20" transform="translate(11,313)"/>
<path d="M0 0 C-0.56422864 11.73001638 -1.59547734 23.34109829 -3 35 C-4.65 35 -6.3 35 -8 35 C-8.29132813 34.10539062 -8.58265625 33.21078125 -8.8828125 32.2890625 C-13.51137345 18.63626323 -19.59963232 5.87230633 -32.88671875 -1.08984375 C-37.82993375 -3.21880696 -42.89083734 -4.00019019 -48.125 -2.31640625 C-51.57477974 -0.78810309 -53.65780978 0.56156878 -56 3.5625 C-57.7470113 9.56785136 -58.29516319 15.06112817 -55.72265625 20.8984375 C-53.12106027 25.70360993 -53.12106027 25.70360993 -49 29 C-49 29.66 -49 30.32 -49 31 C-48.47921875 31.22816406 -47.9584375 31.45632813 -47.421875 31.69140625 C-44.13588726 33.46689962 -41.22934716 35.70047264 -38.25 37.9375 C-33.5390543 41.44896913 -28.78450463 44.84421749 -23.8894043 48.09423828 C-10.88489799 56.76601064 4.10756772 67.74017748 8.5625 83.52734375 C10.42996528 94.08185734 9.2159602 103.68995847 3.22265625 112.66015625 C-4.36926409 122.03342103 -15.18281983 127.20268257 -27 129 C-30.33963375 129.27943046 -33.64975488 129.33384914 -37 129.3125 C-37.91064209 129.30831055 -38.82128418 129.30412109 -39.75952148 129.29980469 C-54.98728097 129.05010397 -69.33808805 125.83095598 -83 119 C-83 106.13 -83 93.26 -83 80 C-81.35 80.33 -79.7 80.66 -78 81 C-76.82779882 83.30738549 -76.02889359 85.31277823 -75.25 87.75 C-70.3207481 101.41144373 -61.83478921 113.34802308 -48.5625 119.9375 C-40.00049993 123.46723819 -31.84434405 123.85646345 -23 121 C-18.38799185 118.48435919 -15.03417308 116.10867504 -13.34375 111.02734375 C-11.48459385 103.8965014 -11.68338227 98.22074798 -14.9375 91.5625 C-20.86939227 81.90033274 -30.96901633 75.72569709 -40.25 69.625 C-74.39098256 46.82705233 -74.39098256 46.82705233 -80 30 C-80.83770813 19.43938434 -79.67405464 11.61914239 -73.875 2.75 C-55.43275942 -14.89040403 -20.71043486 -13.04506529 0 0 Z " fill="#231F20" transform="translate(1131,393)"/>
<path d="M0 0 C1.74506615 1.74506615 1.23282784 4.19039143 1.31640625 6.56640625 C1.35830078 7.69111328 1.40019531 8.81582031 1.44335938 9.97460938 C1.48267578 11.15861328 1.52199219 12.34261719 1.5625 13.5625 C1.60568359 14.75037109 1.64886719 15.93824219 1.69335938 17.16210938 C1.79983546 20.10794784 1.90184841 23.0538743 2 26 C2.78375 25.01 3.5675 24.02 4.375 23 C5.24125 22.01 6.1075 21.02 7 20 C7.66 20 8.32 20 9 20 C9.32871094 19.16082031 9.32871094 19.16082031 9.6640625 18.3046875 C14.42713249 10.08769542 26.1848938 2.81077208 35 0 C41.60182652 -0.98523991 47.79761151 -1.21909029 53.6875 2.25 C55.515625 3.65625 55.515625 3.65625 57 5 C57.639375 5.5775 58.27875 6.155 58.9375 6.75 C61.21842254 11.58018891 61.58720178 16.27101699 59.875 21.3125 C57.03530989 25.38272249 54.63339641 27.47731315 49.875 29 C44.39055644 29 40.02085703 27.071008 35 25 C28.55877157 22.42350863 22.92379228 22.05843977 16.3125 24.1875 C12.73605407 26.14442325 10.07965245 28.3500665 7 31 C6.34 31 5.68 31 5 31 C5 31.66 5 32.32 5 33 C4.34 33 3.68 33 3 33 C2.88415088 44.38731191 2.79530711 55.77448364 2.74093914 67.16226482 C2.71484512 72.45010378 2.6794502 77.73753957 2.62280273 83.02514648 C2.56847665 88.12800369 2.538578 93.23047311 2.52561378 98.33359718 C2.51637502 100.2804964 2.49833366 102.22737438 2.47134972 104.17410851 C2.43505125 106.90128821 2.43005495 109.62686565 2.43237305 112.35424805 C2.40540848 113.56158096 2.40540848 113.56158096 2.37789917 114.79330444 C2.41558686 118.89099151 2.79155793 120.74171836 5.39949036 123.97322083 C7.78584948 125.83309587 9.4387739 126.86268282 12.3125 127.6875 C13.46492188 128.0278125 13.46492188 128.0278125 14.640625 128.375 C15.41921875 128.58125 16.1978125 128.7875 17 129 C17.77859375 129.20625 18.5571875 129.4125 19.359375 129.625 C21.23448808 130.10375228 23.11662933 130.55483966 25 131 C25 132.32 25 133.64 25 135 C3.22 135 -18.56 135 -41 135 C-41 133.68 -41 132.36 -41 131 C-39.89591797 130.65388672 -39.89591797 130.65388672 -38.76953125 130.30078125 C-32.97825789 128.3652566 -28.76777035 126.89810146 -25 122 C-23.74738106 118.24214317 -23.84441701 114.73102031 -23.83886719 110.81591797 C-23.83390228 109.98137589 -23.82893738 109.1468338 -23.82382202 108.28700256 C-23.80920148 105.52205583 -23.80239704 102.75716656 -23.796875 99.9921875 C-23.79112155 98.06747435 -23.78536384 96.14276122 -23.77960205 94.2180481 C-23.76909106 90.17791477 -23.76324966 86.13780133 -23.75976562 82.09765625 C-23.75429389 76.93629471 -23.73029459 71.77519872 -23.70179367 66.61392021 C-23.68310708 62.63491059 -23.67795839 58.655964 -23.67642975 54.67691422 C-23.67341408 52.77523478 -23.66542247 50.87355618 -23.65224457 48.97192001 C-23.63506501 46.30122891 -23.63709363 43.63117415 -23.64355469 40.96044922 C-23.6343399 40.18400558 -23.62512512 39.40756195 -23.6156311 38.60758972 C-23.65721549 33.08156623 -24.5961214 28.01847239 -27 23 C-31.23126967 19.16233681 -35.54343913 18.12894363 -41 17 C-41 15.68 -41 14.36 -41 13 C-35.88927411 10.99112447 -30.77263513 8.99848251 -25.64892578 7.02294922 C-23.88052695 6.3400376 -22.11327258 5.65415509 -20.34716797 4.96533203 C-17.77725973 3.96568492 -15.20199903 2.98120047 -12.625 2 C-11.82344482 1.68538818 -11.02188965 1.37077637 -10.19604492 1.04663086 C-9.44299072 0.76311768 -8.68993652 0.47960449 -7.9140625 0.1875 C-7.2535791 -0.06644531 -6.5930957 -0.32039063 -5.91259766 -0.58203125 C-3.61106254 -1.08499629 -2.2064834 -0.77283222 0 0 Z " fill="#231F20" transform="translate(350,311)"/>
</svg>
